<?xml version="1.0" encoding="utf-8"?>
<!-- Generator: Adobe Illustrator 19.0.0, SVG Export Plug-In . SVG Version: 6.00 Build 0)  -->
<svg version="1.1" id="Calque_1" xmlns="http://www.w3.org/2000/svg" xmlns:xlink="http://www.w3.org/1999/xlink" x="0px" y="0px" viewBox="0 0 800 534" style="enable-background:new 0 0 800 534;" xml:space="preserve">
  <style type="text/css">
	.st0{fill:#202123;}
	.st1{opacity:0.25;fill:#178B6E;}
	.st2{opacity:0.25;fill:#3B3D3F;}
	.st3{fill:#3B3D3F;}
	.st4{fill:none;}
	.st5{fill:#FEFEFE;}
	.st6{fill:#E7E7E7;}
</style>
  <g id="XMLID_4_"></g>
  <path id="XMLID_1009_" class="st0" d="M800,0v534H0V0c19.3,0,6.3,0,14.6,0H800z" />
  <path id="XMLID_1008_" class="st1" d="M800,0v51H0V0c11.6-0.3,6.3,0,14.6,0H800z" />
  <path id="XMLID_1007_" class="st2" d="M763.8,507.1h-161c-2.8,0-5-2.2-5-5v-29c0-2.8,2.2-5,5-5h161c2.8,0,5,2.2,5,5v29
	C768.8,504.8,766.6,507.1,763.8,507.1z" />
  <path id="XMLID_1006_" class="st2" d="M203,112H20.1c-2.8,0-5-2.2-5-5V78c0-2.8,2.2-5,5-5H207c2.8,0,5,2.2,5,5v25
	C212,108,208,112,203,112z" />
  <path id="XMLID_1005_" class="st2" d="M95.6,176.5H20.1c-2.8,0-5-2.2-5-5v-29c0-2.8,2.2-5,5-5h75.5c2.8,0,5,2.2,5,5v29
	C100.6,174.2,98.4,176.5,95.6,176.5z" />
  <path id="XMLID_1004_" class="st2" d="M95.6,220.5H20.1c-2.8,0-5-2.2-5-5v-29c0-2.8,2.2-5,5-5h75.5c2.8,0,5,2.2,5,5v29
	C100.6,218.2,98.4,220.5,95.6,220.5z" />
  <path id="XMLID_1003_" class="st2" d="M451.1,112h-71.5c-2.8,0-5-2.2-5-5V78c0-2.8,2.2-5,5-5h75.5c2.8,0,5,2.2,5,5v25
	C460.1,108,456,112,451.1,112z" />
  <path id="XMLID_1002_" class="st2" d="M95.6,264.5H20.1c-2.8,0-5-2.2-5-5v-29c0-2.8,2.2-5,5-5h75.5c2.8,0,5,2.2,5,5v29
	C100.6,262.2,98.4,264.5,95.6,264.5z" />
  <path id="XMLID_1001_" class="st2" d="M95.6,352.5H20.1c-2.8,0-5-2.2-5-5v-29c0-2.8,2.2-5,5-5h75.5c2.8,0,5,2.2,5,5v29
	C100.6,350.2,98.4,352.5,95.6,352.5z" />
  <path id="XMLID_1000_" class="st2" d="M95.6,308.5H20.1c-2.8,0-5-2.2-5-5v-29c0-2.8,2.2-5,5-5h75.5c2.8,0,5,2.2,5,5v29
	C100.6,306.2,98.4,308.5,95.6,308.5z" />
  <path id="XMLID_999_" class="st2" d="M425.6,176.5h-308c-2.8,0-5-2.2-5-5v-29c0-2.8,2.2-5,5-5h308c2.8,0,5,2.2,5,5v29
	C430.6,174.2,428.3,176.5,425.6,176.5z" />
  <path id="XMLID_998_" class="st2" d="M425.6,220.5h-308c-2.8,0-5-2.2-5-5v-29c0-2.8,2.2-5,5-5h308c2.8,0,5,2.2,5,5v29
	C430.6,218.2,428.3,220.5,425.6,220.5z" />
  <path id="XMLID_997_" class="st2" d="M425.6,264.5h-308c-2.8,0-5-2.2-5-5v-29c0-2.8,2.2-5,5-5h308c2.8,0,5,2.2,5,5v29
	C430.6,262.2,428.3,264.5,425.6,264.5z" />
  <path id="XMLID_996_" class="st2" d="M425.6,352.5h-308c-2.8,0-5-2.2-5-5v-29c0-2.8,2.2-5,5-5h308c2.8,0,5,2.2,5,5v29
	C430.6,350.2,428.3,352.5,425.6,352.5z" />
  <path id="XMLID_995_" class="st2" d="M425.6,308.5h-308c-2.8,0-5-2.2-5-5v-29c0-2.8,2.2-5,5-5h308c2.8,0,5,2.2,5,5v29
	C430.6,306.2,428.3,308.5,425.6,308.5z" />
  <path id="XMLID_994_" class="st2" d="M763.8,176.5h-308c-2.8,0-5-2.2-5-5v-29c0-2.8,2.2-5,5-5h308c2.8,0,5,2.2,5,5v29
	C768.8,174.2,766.6,176.5,763.8,176.5z" />
  <path id="XMLID_993_" class="st2" d="M763.8,220.5h-308c-2.8,0-5-2.2-5-5v-29c0-2.8,2.2-5,5-5h308c2.8,0,5,2.2,5,5v29
	C768.8,218.2,766.6,220.5,763.8,220.5z" />
  <path id="XMLID_992_" class="st2" d="M763.8,264.5h-308c-2.8,0-5-2.2-5-5v-29c0-2.8,2.2-5,5-5h308c2.8,0,5,2.2,5,5v29
	C768.8,262.2,766.6,264.5,763.8,264.5z" />
  <path id="XMLID_991_" class="st2" d="M763.8,352.5h-308c-2.8,0-5-2.2-5-5v-29c0-2.8,2.2-5,5-5h308c2.8,0,5,2.2,5,5v29
	C768.8,350.2,766.6,352.5,763.8,352.5z" />
  <path id="XMLID_990_" class="st2" d="M763.8,308.5h-308c-2.8,0-5-2.2-5-5v-29c0-2.8,2.2-5,5-5h308c2.8,0,5,2.2,5,5v29
	C768.8,306.2,766.6,308.5,763.8,308.5z" />
  <path id="XMLID_989_" class="st2" d="M95.6,441H20.1c-2.8,0-5-2.2-5-5v-29c0-2.8,2.2-5,5-5h75.5c2.8,0,5,2.2,5,5v29
	C100.6,438.7,98.4,441,95.6,441z" />
  <path id="XMLID_988_" class="st2" d="M95.6,397H20.1c-2.8,0-5-2.2-5-5v-29c0-2.8,2.2-5,5-5h75.5c2.8,0,5,2.2,5,5v29
	C100.6,394.7,98.4,397,95.6,397z" />
  <path id="XMLID_981_" class="st2" d="M425.6,441h-308c-2.8,0-5-2.2-5-5v-29c0-2.8,2.2-5,5-5h308c2.8,0,5,2.2,5,5v29
	C430.6,438.7,428.3,441,425.6,441z" />
  <path id="XMLID_980_" class="st2" d="M425.6,397h-308c-2.8,0-5-2.2-5-5v-29c0-2.8,2.2-5,5-5h308c2.8,0,5,2.2,5,5v29
	C430.6,394.7,428.3,397,425.6,397z" />
  <path id="XMLID_979_" class="st2" d="M763.8,441h-308c-2.8,0-5-2.2-5-5v-29c0-2.8,2.2-5,5-5h308c2.8,0,5,2.2,5,5v29
	C768.8,438.7,766.6,441,763.8,441z" />
  <path id="XMLID_978_" class="st2" d="M763.8,397h-308c-2.8,0-5-2.2-5-5v-29c0-2.8,2.2-5,5-5h308c2.8,0,5,2.2,5,5v29
	C768.8,394.7,766.6,397,763.8,397z" />
  <path id="XMLID_977_" class="st2" d="M152.7,507.1H20.1c-2.8,0-5-2.2-5-5v-29c0-2.8,2.2-5,5-5h132.6c2.8,0,5,2.2,5,5v29
	C157.7,504.8,155.5,507.1,152.7,507.1z" />
  <path id="XMLID_976_" class="st2" d="M355.6,112H227c-2.8,0-5-2.2-5-5V78c0-2.8,2.2-5,5-5h132.6c2.8,0,5,2.2,5,5v25
	C364.6,108,360.6,112,355.6,112z" />
  <path id="XMLID_975_" class="st3" d="M759.4,112H595.3c-2.8,0-5-2.2-5-5V78c0-2.8,2.2-5,5-5h168.1c2.8,0,5,2.2,5,5v25
	C768.4,108,764.3,112,759.4,112z" />
  <path id="XMLID_974_" class="st4" d="M696.8,100.7" />
  <g id="XMLID_951_">
    <g id="XMLID_969_">
      <path id="XMLID_973_" class="st5" d="M643.3,86.2c-0.6-0.6-0.5-1.6,0.1-2.2c1.6-1.6,3.1-3.1,4.7-4.7c0.7-0.7,1.5-0.7,2.2,0
			c1.6,1.6,3.2,3.1,4.7,4.7c0.6,0.6,0.6,1.6,0,2.1c-0.6,0.6-1.5,0.7-2.1,0.1c-0.6-0.6-0.9-1.3-1.9-2v2.4c0,2.9-0.1,5.9-0.1,8.8
			c0,0.7-0.1,1.4-0.7,1.8c-0.5,0.4-1,0.4-1.6,0.2c-0.5-0.2-1.1-0.6-1.2-1.1c-0.1-0.6-0.4-1.1-0.4-1.7V84.4c0-0.1,0,0.1-0.1,0.2
			c-0.5,0.5-0.9,1.1-1.5,1.6C644.8,86.9,643.9,86.8,643.3,86.2z" />
      <path id="XMLID_972_" class="st5" d="M661.5,103c-0.2,0.6-0.8,1-1.6,1h-10.8c-3.6,0-7.2-0.1-10.9-0.1c-1.2,0-2-1.4-1.5-2.5
			c0.2-0.6,0.9-1.4,1.7-1.4h13.9c2.5,0,5.1,0.4,7.6,0.4C661.2,100.4,662,101.9,661.5,103z" />
      <path id="XMLID_971_" class="st6" d="M655,86.2c-0.6,0.6-1.5,0.7-2.1,0.1c-0.6-0.6-0.9-1.3-1.9-2v2.4c0,2.9-0.1,5.9-0.1,8.8
			c0,0.7-0.1,1.4-0.7,1.8c-0.5,0.4-1,0.4-1.6,0.2c-0.5-0.2-1.1-0.6-1.2-1.1c-0.1-0.6-0.4-1.1-0.4-1.7V84.4c0-0.1,0,0.1-0.1,0.2
			c-0.5,0.5-0.9,1.1-1.5,1.6c-0.7,0.6-1.6,0.6-2.2,0c-0.6-0.6-0.5-1.6,0.1-2.2c1.6-1.6,3.1-3.1,4.7-4.7c0.7-0.7,1.5-0.7,2.2,0
			c1.6,1.6,3.2,3.1,4.7,4.7C655.5,84.6,655.5,85.6,655,86.2z" />
      <path id="XMLID_970_" class="st6" d="M661.5,103c-0.2,0.6-0.8,1-1.6,1h-10.8c-3.6,0-7.2-0.1-10.9-0.1c-1.2,0-2-1.4-1.5-2.5
			c0.2-0.6,0.9-1.4,1.7-1.4h13.9c2.5,0,5,0,7.5,0C661.1,100,662,101.9,661.5,103z" />
    </g>
    <g id="XMLID_965_">
      <path id="XMLID_968_" class="st5" d="M705.7,92.5c-1.1-1.1-0.8-2.5,0.5-2.9c0.6-0.2,1.1,0,1.6,0.5c0.6,0.6,1.4,1.2,2,1.8
			c0.1,0,0.4,0,0.4-0.1v-2.2c0-3-0.2-6.1-0.2-9.1c0-1.4,0.9-2.1,2.2-1.6c0.6,0.2,1,0.8,1,1.7c0,3.6,0.1,7.1,0.1,10.7v0.6
			c0,0.1,0.2-0.1,0.3-0.2c0.5-0.5,0.9-1,1.5-1.5c0.6-0.6,1.4-0.7,2-0.2c0.8,0.7,0.9,1.4,0.3,2.2c-0.1,0.2-0.2,0.3-0.4,0.5
			c-1.4,1.4-2.7,2.8-4.1,4.1c-1,1-1.8,1-2.8,0C708.4,95.3,707,93.9,705.7,92.5z" />
      <path id="XMLID_967_" class="st6" d="M717.1,92c-0.1,0.2-0.2,0.3-0.4,0.5c-1.4,1.4-2.7,2.8-4.1,4.1c-1,1-1.8,1-2.8,0
			c-1.4-1.4-2.8-2.8-4.2-4.2c-1.1-1.1-0.8-2.5,0.5-2.9c0.6-0.2,1.1,0,1.6,0.5c0.6,0.6,1.4,1.2,2,1.8c0.1,0,0.4,0,0.4-0.1v-2.2
			c0-3-0.2-6.1-0.2-9.1c0-1.4,0.9-2.1,2.2-1.6c0.6,0.2,1,0.8,1,1.7c0,3.6,0.1,7.1,0.1,10.7v0.6c0,0.1,0.2-0.1,0.3-0.2
			c0.5-0.5,0.9-1,1.5-1.5c0.6-0.6,1.4-0.7,2-0.2C717.6,90.5,717.7,91.2,717.1,92z" />
      <path id="XMLID_966_" class="st6" d="M722.3,103H700c-1,0-1.4-0.7-1.2-1.7c0.1-0.7,0.8-1,1.7-1c7.2,0,14.5,0.1,21.7,0.1
			c0.8,0,1.5,0.3,1.5,1C723.7,102.5,723.3,103,722.3,103z" />
    </g>
    <g id="XMLID_963_">
      <path id="XMLID_964_" class="st6" d="M688.8,103.2c-6.5-0.1-12.8,0-19.3,0c-1.4,0-2.5-1-2.5-2.4v0c0-6.7,0-13.4,0-20.2v0
			c0-1.4,1.2-2.3,2.6-2.3c1.9,0,3.7,0,5.5,0c0.9,0,1.5,0.3,2.1,0.9c1,0.9,1.9,1.9,2.9,2.9c0.6,0.6,0.9,1.4,0.9,2.2
			c0,1.8,0,3.7,0,5.7V90l0.1-0.1c0.5-0.5,0.9-0.9,1.3-1.3c1.1-1,2.6-0.5,3,0.9c0.1,0.6,0,1.1-0.4,1.5c-1.5,1.6-3.1,3.1-4.7,4.7
			c-0.6,0.6-1.7,0.6-2.3,0c-1.6-1.5-3.1-3.1-4.7-4.7c-0.7-0.7-0.6-1.7,0.1-2.4c0.7-0.7,1.7-0.7,2.4-0.1c0.5,0.4,0.9,0.9,1.3,1.3
			c0,0,0,0,0.1,0c0.1-0.1,0.1-0.3,0.1-0.5c0-1.4,0-2.8,0-4.3c0-0.5-0.1-0.8-0.4-1.2c-0.1-0.1-0.2-0.2-0.2-0.3
			c-1-1.4-2.4-2.1-4.2-1.8c-0.6,0.1-1.2,0-1.8,0c-0.4,0-0.6,0.1-0.5,0.5c0,0.5,0,0.9,0,1.4c0,5,0,10.1,0,15.1c0,0.5,0.1,0.7,0.7,0.7
			c5.5,0,11,0,16.5,0c0.5,0,0.7-0.1,0.7-0.7c0-4.3,0-8.6,0-12.9c0-0.5-0.1-0.7-0.6-0.6c-0.8,0-1.7,0-2.5,0c-0.4,0-0.5-0.1-0.5-0.5
			c0-0.9,0-1.7,0-2.6c0-0.4,0.2-0.5,0.5-0.5c1.5,0.1,2.9-0.1,4.4,0.1c1.1,0.1,2.3,1.2,2.2,2.6c0,4.5,0,9,0,13.5c0,0.8-0.1,1.7,0,2.5
			C691.8,101.9,690.3,103.2,688.8,103.2z" />
    </g>
    <g id="XMLID_958_">
      <path id="XMLID_962_" class="st6" d="M626.4,101.1c0,1.6-1.4,3.3-3.1,3.7c-0.2,0-0.3,0.2-0.5,0.2h-10.6c-0.5,0-1.1-0.4-1.5-0.8
			c-1.2-0.9-1.9-2.1-1.9-3.6c0-3.6,0-7.2,0-10.9c0-0.7,0.2-0.9,0.9-0.8c0.6,0,1.3,0,1.9,0c0.5,0,0.7,0.2,0.7,0.7c0,3.4,0,6.8,0,10.2
			c0,0.3,0,0.5,0.1,0.8c0.1,0.5,0.4,0.7,0.9,0.7c0.6,0,1.3,0,1.9,0c0.6,0,0.7-0.2,0.7-0.7c0-3.6,0-7.2,0-10.8c0-0.7,0.2-0.9,0.8-0.8
			c0.7,0.1,1.3,0,2,0c0.6,0,0.8,0.2,0.8,0.8c0,3.6,0,7.1,0,10.7c0,0.9,0,0.9,0.9,0.9c0.5,0,1,0,1.4,0c0.9,0,1.2-0.2,1.2-1.2
			c0-0.6,0-1.2,0-1.8c0-2.9,0-5.8,0-8.7c0-0.5,0.1-0.7,0.7-0.7c0.7,0,1.5,0,2.2,0c0.4,0,0.6,0.1,0.6,0.5
			C626.4,93.4,626.4,97.2,626.4,101.1z" />
      <path id="XMLID_960_" class="st6" d="M629.9,85.2c0.6,1.3-1.3,2.1-2.6,2c-3.6,0-7.2-0.1-10.7-0.1c-1.8,0-3.6,0-5.4-0.1
			c-1.7,0-3.7,0.3-5.3-0.1c-0.4-0.1-0.9-0.3-1.1-0.7c-1-1.6,1.7-2.5,2.9-2.5c1.5,0,2.9,0,4.4,0c0.6,0,0.9-0.3,1-1
			c0.9-3.7,6.3-3.5,7.2,0.1c0.1,0.5,0.4,0.8,0.9,0.8c2,0,4,0,5.9,0c0.8,0,1.8,0.2,2.4,0.9C629.7,84.8,629.8,85,629.9,85.2z" />
    </g>
    <g id="XMLID_952_">
      <path id="XMLID_953_" class="st6" d="M753.6,89.1c-0.7-2.7-2.2-5.1-4.4-6.8c-2.7-2.1-7.5-3.2-10.8-2.2c-1.7,0.5-3.2,1.2-4.4,2.2
			c0,0,0,0,0,0c-2.7,1.8-4.5,5.6-4.9,8.7c-0.3,2.6,0.5,5,1.8,7.2c1,1.6,2.3,3,3.9,4c0.5,0.3,1.1,0.7,1.7,0.9c1.8,0.9,3.7,1,5.6,1
			c3.2,0,5.9-1.2,8.2-3.4c2.1-2.1,3.4-4.5,3.6-7.5C753.8,91.8,753.9,90.4,753.6,89.1z M742.5,84.3c3.3,0.5,4.4,4.1,3.2,6.3
			c-0.3,0.5-0.7,0.9-1.1,1.2c-0.5,0.4-1.2,0.7-1.5,1.4c-0.1,0.2-0.2,0.1-0.4,0.1c-0.4,0-0.7,0-1.1,0c-0.3,0-0.6,0-0.9,0
			c-0.6,0-0.7,0-0.6-0.7c0.1-1.1,0.6-1.9,1.6-2.4c0.3-0.1,0.5-0.3,0.7-0.5c0.8-0.6,0.9-1.2,0.4-1.9c-0.6-0.7-1.5-0.8-2.2-0.2
			c-0.2,0.2-0.4,0.4-0.4,0.7c-0.1,0.4-0.3,0.5-0.7,0.5c-0.6,0-1.3,0-1.9,0c-0.4,0-0.5-0.1-0.5-0.5C737.4,85.6,739.9,84,742.5,84.3z
			 M740,99.1c0-0.4,0-0.8,0-1.2c0-1.5,0-1.5,1.5-1.5c0.4,0,0.8,0,1.2,0c0.3,0,0.4,0.1,0.4,0.4c0,0.8,0,1.5,0,2.3
			c0,0.3-0.1,0.4-0.4,0.4c-0.8,0-1.5,0-2.3,0C740.1,99.5,740,99.4,740,99.1z" />
    </g>
  </g>
  <g id="XMLID_29_">
    <path id="XMLID_30_" class="st6" d="M647.6,68.1h-7.5v-1l3.9-4.4c0.6-0.7,1-1.2,1.2-1.6s0.3-0.8,0.3-1.3c0-0.6-0.2-1.1-0.5-1.5
		c-0.4-0.4-0.8-0.6-1.4-0.6c-0.7,0-1.3,0.2-1.7,0.6c-0.4,0.4-0.6,1-0.6,1.7h-1.4c0-1,0.3-1.9,1-2.5c0.7-0.6,1.6-1,2.7-1
		c1.1,0,1.9,0.3,2.5,0.8s0.9,1.3,0.9,2.2c0,1.1-0.7,2.5-2.1,4l-3,3.3h5.7V68.1z" />
    <path id="XMLID_32_" class="st6" d="M649.3,67.3c0-0.3,0.1-0.5,0.2-0.6c0.1-0.2,0.4-0.3,0.7-0.3s0.5,0.1,0.7,0.3
		c0.2,0.2,0.2,0.4,0.2,0.6c0,0.2-0.1,0.4-0.2,0.6s-0.4,0.2-0.7,0.2s-0.5-0.1-0.7-0.2S649.3,67.5,649.3,67.3z" />
  </g>
  <g id="XMLID_22_">
    <path id="XMLID_24_" class="st6" d="M672.8,61.7h1.1c0.7,0,1.2-0.2,1.6-0.5c0.4-0.3,0.6-0.8,0.6-1.4c0-1.3-0.7-2-2-2
		c-0.6,0-1.1,0.2-1.5,0.5c-0.4,0.4-0.6,0.8-0.6,1.4h-1.4c0-0.9,0.3-1.6,1-2.2c0.7-0.6,1.5-0.9,2.5-0.9c1.1,0,1.9,0.3,2.5,0.9
		c0.6,0.6,0.9,1.4,0.9,2.4c0,0.5-0.2,1-0.5,1.4c-0.3,0.5-0.8,0.8-1.3,1c0.6,0.2,1.1,0.5,1.4,1c0.3,0.5,0.5,1,0.5,1.7
		c0,1-0.3,1.8-1,2.4c-0.7,0.6-1.5,0.9-2.6,0.9s-1.9-0.3-2.6-0.9s-1-1.3-1-2.3h1.5c0,0.6,0.2,1.1,0.6,1.4s0.9,0.5,1.6,0.5
		c0.7,0,1.2-0.2,1.6-0.5c0.4-0.4,0.6-0.9,0.6-1.6c0-0.7-0.2-1.2-0.6-1.5c-0.4-0.4-1-0.5-1.8-0.5h-1.1V61.7z" />
    <path id="XMLID_27_" class="st6" d="M679.9,67.3c0-0.3,0.1-0.5,0.2-0.6c0.1-0.2,0.4-0.3,0.7-0.3s0.5,0.1,0.7,0.3
		c0.2,0.2,0.2,0.4,0.2,0.6c0,0.2-0.1,0.4-0.2,0.6s-0.4,0.2-0.7,0.2s-0.5-0.1-0.7-0.2S679.9,67.5,679.9,67.3z" />
  </g>
  <g id="XMLID_14_">
    <path id="XMLID_16_" class="st6" d="M707.6,64.2h1.6v1.2h-1.6v2.6h-1.5v-2.6H701v-0.9l5.1-7.9h1.5V64.2z M702.6,64.2h3.5v-5.6
		L706,59L702.6,64.2z" />
    <path id="XMLID_20_" class="st6" d="M710.7,67.3c0-0.3,0.1-0.5,0.2-0.6c0.1-0.2,0.4-0.3,0.7-0.3s0.5,0.1,0.7,0.3
		c0.2,0.2,0.2,0.4,0.2,0.6c0,0.2-0.1,0.4-0.2,0.6s-0.4,0.2-0.7,0.2s-0.5-0.1-0.7-0.2S710.7,67.5,710.7,67.3z" />
  </g>
  <g id="XMLID_9_">
    <path id="XMLID_10_" class="st6" d="M732.8,62.4l0.6-5.7h5.8V58h-4.6l-0.3,3.1c0.6-0.3,1.2-0.5,1.9-0.5c1,0,1.9,0.3,2.5,1
		c0.6,0.7,0.9,1.6,0.9,2.8c0,1.2-0.3,2.1-0.9,2.8c-0.6,0.7-1.5,1-2.7,1c-1,0-1.8-0.3-2.5-0.8c-0.6-0.6-1-1.3-1.1-2.3h1.4
		c0.1,0.7,0.3,1.1,0.7,1.5c0.4,0.3,0.9,0.5,1.5,0.5c0.7,0,1.2-0.2,1.6-0.7c0.4-0.5,0.6-1.1,0.6-1.9c0-0.8-0.2-1.4-0.6-1.8
		s-1-0.7-1.7-0.7c-0.6,0-1.1,0.1-1.5,0.4l-0.4,0.3L732.8,62.4z" />
    <path id="XMLID_12_" class="st6" d="M741.3,67.3c0-0.3,0.1-0.5,0.2-0.6c0.1-0.2,0.4-0.3,0.7-0.3s0.5,0.1,0.7,0.3
		c0.2,0.2,0.2,0.4,0.2,0.6c0,0.2-0.1,0.4-0.2,0.6s-0.4,0.2-0.7,0.2s-0.5-0.1-0.7-0.2S741.3,67.5,741.3,67.3z" />
  </g>
  <g id="XMLID_3_">
    <path id="XMLID_5_" class="st6" d="M614.3,68.1h-1.5v-9.6l-2.9,1.1v-1.3l4.1-1.6h0.2V68.1z" />
    <path id="XMLID_7_" class="st6" d="M618.8,67.3c0-0.3,0.1-0.5,0.2-0.6c0.1-0.2,0.4-0.3,0.7-0.3s0.5,0.1,0.7,0.3
		c0.2,0.2,0.2,0.4,0.2,0.6c0,0.2-0.1,0.4-0.2,0.6s-0.4,0.2-0.7,0.2s-0.5-0.1-0.7-0.2S618.8,67.5,618.8,67.3z" />
  </g>
</svg>