<?xml version="1.0" encoding="utf-8"?>
<!-- Generator: Adobe Illustrator 19.0.0, SVG Export Plug-In . SVG Version: 6.00 Build 0)  -->
<svg version="1.1" id="Calque_1" xmlns="http://www.w3.org/2000/svg" xmlns:xlink="http://www.w3.org/1999/xlink" x="0px" y="0px" viewBox="0 0 800 534" style="enable-background:new 0 0 800 534;" xml:space="preserve">
  <style type="text/css">
	.st0{fill:#202123;}
	.st1{opacity:0.25;fill:#178B6E;}
	.st2{opacity:0.25;fill:#3B3D3F;}
	.st3{fill:#3B3D3F;}
	.st4{fill:#E8E8E8;}
	.st5{fill:none;}
	.st6{font-family:'Roboto-Light';}
	.st7{font-size:17px;}
	.st8{fill:none;stroke:#E8E8E8;stroke-miterlimit:10;}
</style>
  <g id="XMLID_4_"></g>
  <path id="XMLID_1233_" class="st0" d="M800,0v534H0V0c20,0,6.3,0,14.6,0H800z" />
  <path id="XMLID_1232_" class="st1" d="M800,0v51H0V0c20.3,0,6.3,0,14.6,0h770C792.8,0,773.5,0,800,0z" />
  <path id="XMLID_1231_" class="st2" d="M763.8,507.1h-161c-2.8,0-5-2.2-5-5v-29c0-2.8,2.2-5,5-5h161c2.8,0,5,2.2,5,5v29
	C768.8,504.8,766.6,507.1,763.8,507.1z" />
  <path id="XMLID_1230_" class="st2" d="M203,112H20.1c-2.8,0-5-2.2-5-5V78c0-2.8,2.2-5,5-5H207c2.8,0,5,2.2,5,5v25
	C212,108,208,112,203,112z" />
  <path id="XMLID_1229_" class="st2" d="M95.6,176.5H20.1c-2.8,0-5-2.2-5-5v-29c0-2.8,2.2-5,5-5h75.5c2.8,0,5,2.2,5,5v29
	C100.6,174.2,98.4,176.5,95.6,176.5z" />
  <path id="XMLID_1228_" class="st2" d="M95.6,220.5H20.1c-2.8,0-5-2.2-5-5v-29c0-2.8,2.2-5,5-5h75.5c2.8,0,5,2.2,5,5v29
	C100.6,218.2,98.4,220.5,95.6,220.5z" />
  <path id="XMLID_1227_" class="st2" d="M451.1,112h-71.5c-2.8,0-5-2.2-5-5V78c0-2.8,2.2-5,5-5h75.5c2.8,0,5,2.2,5,5v25
	C460.1,108,456,112,451.1,112z" />
  <path id="XMLID_1226_" class="st2" d="M95.6,264.5H20.1c-2.8,0-5-2.2-5-5v-29c0-2.8,2.2-5,5-5h75.5c2.8,0,5,2.2,5,5v29
	C100.6,262.2,98.4,264.5,95.6,264.5z" />
  <path id="XMLID_1225_" class="st2" d="M95.6,352.5H20.1c-2.8,0-5-2.2-5-5v-29c0-2.8,2.2-5,5-5h75.5c2.8,0,5,2.2,5,5v29
	C100.6,350.2,98.4,352.5,95.6,352.5z" />
  <path id="XMLID_1224_" class="st2" d="M95.6,308.5H20.1c-2.8,0-5-2.2-5-5v-29c0-2.8,2.2-5,5-5h75.5c2.8,0,5,2.2,5,5v29
	C100.6,306.2,98.4,308.5,95.6,308.5z" />
  <path id="XMLID_1223_" class="st2" d="M425.6,176.5h-308c-2.8,0-5-2.2-5-5v-29c0-2.8,2.2-5,5-5h308c2.8,0,5,2.2,5,5v29
	C430.6,174.2,428.3,176.5,425.6,176.5z" />
  <path id="XMLID_1222_" class="st2" d="M425.6,220.5h-308c-2.8,0-5-2.2-5-5v-29c0-2.8,2.2-5,5-5h308c2.8,0,5,2.2,5,5v29
	C430.6,218.2,428.3,220.5,425.6,220.5z" />
  <path id="XMLID_1221_" class="st2" d="M425.6,264.5h-308c-2.8,0-5-2.2-5-5v-29c0-2.8,2.2-5,5-5h308c2.8,0,5,2.2,5,5v29
	C430.6,262.2,428.3,264.5,425.6,264.5z" />
  <path id="XMLID_1220_" class="st2" d="M425.6,352.5h-308c-2.8,0-5-2.2-5-5v-29c0-2.8,2.2-5,5-5h308c2.8,0,5,2.2,5,5v29
	C430.6,350.2,428.3,352.5,425.6,352.5z" />
  <path id="XMLID_1219_" class="st2" d="M425.6,308.5h-308c-2.8,0-5-2.2-5-5v-29c0-2.8,2.2-5,5-5h308c2.8,0,5,2.2,5,5v29
	C430.6,306.2,428.3,308.5,425.6,308.5z" />
  <path id="XMLID_1218_" class="st2" d="M763.8,176.5h-308c-2.8,0-5-2.2-5-5v-29c0-2.8,2.2-5,5-5h308c2.8,0,5,2.2,5,5v29
	C768.8,174.2,766.6,176.5,763.8,176.5z" />
  <path id="XMLID_1217_" class="st2" d="M763.8,220.5h-308c-2.8,0-5-2.2-5-5v-29c0-2.8,2.2-5,5-5h308c2.8,0,5,2.2,5,5v29
	C768.8,218.2,766.6,220.5,763.8,220.5z" />
  <path id="XMLID_1216_" class="st2" d="M763.8,264.5h-308c-2.8,0-5-2.2-5-5v-29c0-2.8,2.2-5,5-5h308c2.8,0,5,2.2,5,5v29
	C768.8,262.2,766.6,264.5,763.8,264.5z" />
  <path id="XMLID_1215_" class="st2" d="M763.8,352.5h-308c-2.8,0-5-2.2-5-5v-29c0-2.8,2.2-5,5-5h308c2.8,0,5,2.2,5,5v29
	C768.8,350.2,766.6,352.5,763.8,352.5z" />
  <path id="XMLID_1214_" class="st2" d="M763.8,308.5h-308c-2.8,0-5-2.2-5-5v-29c0-2.8,2.2-5,5-5h308c2.8,0,5,2.2,5,5v29
	C768.8,306.2,766.6,308.5,763.8,308.5z" />
  <path id="XMLID_1213_" class="st2" d="M95.6,441H20.1c-2.8,0-5-2.2-5-5v-29c0-2.8,2.2-5,5-5h75.5c2.8,0,5,2.2,5,5v29
	C100.6,438.7,98.4,441,95.6,441z" />
  <path id="XMLID_1212_" class="st2" d="M95.6,397H20.1c-2.8,0-5-2.2-5-5v-29c0-2.8,2.2-5,5-5h75.5c2.8,0,5,2.2,5,5v29
	C100.6,394.7,98.4,397,95.6,397z" />
  <path id="XMLID_1211_" class="st2" d="M425.6,441h-308c-2.8,0-5-2.2-5-5v-29c0-2.8,2.2-5,5-5h308c2.8,0,5,2.2,5,5v29
	C430.6,438.7,428.3,441,425.6,441z" />
  <path id="XMLID_1210_" class="st2" d="M425.6,397h-308c-2.8,0-5-2.2-5-5v-29c0-2.8,2.2-5,5-5h308c2.8,0,5,2.2,5,5v29
	C430.6,394.7,428.3,397,425.6,397z" />
  <path id="XMLID_1209_" class="st2" d="M763.8,441h-308c-2.8,0-5-2.2-5-5v-29c0-2.8,2.2-5,5-5h308c2.8,0,5,2.2,5,5v29
	C768.8,438.7,766.6,441,763.8,441z" />
  <path id="XMLID_1208_" class="st2" d="M763.8,397h-308c-2.8,0-5-2.2-5-5v-29c0-2.8,2.2-5,5-5h308c2.8,0,5,2.2,5,5v29
	C768.8,394.7,766.6,397,763.8,397z" />
  <path id="XMLID_1207_" class="st3" d="M310.5,512.4H20.1c-2.8,0-5-2.2-5-5v-29c0-2.8,2.2-5,5-5h290.4c2.8,0,5,2.2,5,5v29
	C315.5,510.2,313.3,512.4,310.5,512.4z" />
  <path id="XMLID_1206_" class="st2" d="M355.6,112H227c-2.8,0-5-2.2-5-5V78c0-2.8,2.2-5,5-5h132.6c2.8,0,5,2.2,5,5v25
	C364.6,108,360.6,112,355.6,112z" />
  <path id="XMLID_1205_" class="st2" d="M759.8,112H631.2c-2.8,0-5-2.2-5-5V78c0-2.8,2.2-5,5-5h132.6c2.8,0,5,2.2,5,5v25
	C768.8,108,764.8,112,759.8,112z" />
  <g id="XMLID_1202_">
    <path id="XMLID_1203_" class="st4" d="M170.4,498.1h-7.6v-0.8l4.1-4.7c0.7-0.8,1.2-1.4,1.4-2s0.4-1,0.4-1.5c0-0.8-0.2-1.4-0.7-1.8
		c-0.4-0.4-1.1-0.7-1.9-0.7c-0.8,0-1.5,0.3-2,0.8s-0.8,1.2-0.8,2h-1c0-0.7,0.2-1.3,0.5-1.9c0.3-0.6,0.7-1,1.3-1.3s1.2-0.5,1.9-0.5
		c1.1,0,2,0.3,2.6,0.9c0.6,0.6,0.9,1.4,0.9,2.4c0,0.6-0.2,1.2-0.5,1.9s-1,1.5-1.9,2.5l-3.4,3.8h6.3V498.1z" />
  </g>
  <g id="XMLID_1192_">
    <path id="XMLID_1196_" class="st4" d="M266.6,498.1h-1v-10.9l-3.3,1.2v-0.9l4.1-1.5h0.2V498.1z" />
    <path id="XMLID_1193_" class="st4" d="M277.3,485.9v0.9h-0.1c-1.4,0-2.6,0.4-3.4,1.3c-0.8,0.9-1.3,2-1.4,3.5
		c0.3-0.5,0.8-0.8,1.3-1.1c0.5-0.3,1.1-0.4,1.7-0.4c1.1,0,1.9,0.4,2.5,1.1s0.9,1.7,0.9,2.9c0,0.8-0.1,1.5-0.4,2.1
		c-0.3,0.6-0.7,1.1-1.3,1.5c-0.5,0.4-1.2,0.5-1.9,0.5c-1.2,0-2.1-0.4-2.8-1.3c-0.7-0.8-1.1-1.9-1.1-3.3v-1c0-2.2,0.5-3.8,1.5-5
		c1-1.2,2.4-1.8,4.2-1.8H277.3z M275.2,491c-0.6,0-1.2,0.2-1.8,0.6s-0.9,0.8-1.1,1.4v0.8c0,1,0.3,1.9,0.8,2.6c0.5,0.7,1.2,1,2.1,1
		c0.8,0,1.4-0.3,1.9-0.9c0.5-0.6,0.7-1.4,0.7-2.3c0-1-0.2-1.7-0.7-2.3S276,491,275.2,491z" />
  </g>
  <rect id="XMLID_59_" x="226.7" y="485.4" class="st5" width="11.3" height="15.1" />
  <text id="XMLID_1190_" transform="matrix(1 0 0 1 226.6667 498.1189)" class="st4 st6 st7">8</text>
  <g id="XMLID_1186_">
    <path id="XMLID_1187_" class="st4" d="M197.2,494.2h1.9v0.8h-1.9v3.1h-1v-3.1h-5.7v-0.6l5.6-8.5h1.1V494.2z M191.8,494.2h4.5v-6.9
		l-0.4,0.8L191.8,494.2z" />
  </g>
  <path id="XMLID_1185_" class="st8" d="M245.5,508.2h-26.3c-1.2,0-2.2-1-2.2-2.2v-26.3c0-1.2,1-2.2,2.2-2.2h26.3c1.2,0,2.2,1,2.2,2.2
	v26.3C247.7,507.3,246.7,508.2,245.5,508.2z" />
  <g id="XMLID_1146_">
    <path id="XMLID_1182_" class="st4" d="M21.1,498.1V486h3.4c1,0,1.9,0.2,2.7,0.7s1.4,1.1,1.8,1.9c0.4,0.8,0.7,1.8,0.7,2.9v1.1
		c0,1.1-0.2,2-0.7,2.9c-0.4,0.8-1.1,1.5-1.8,1.9s-1.7,0.7-2.7,0.7H21.1z M22.1,486.9v10.4h2.3c1.3,0,2.3-0.4,3.1-1.3s1.2-2,1.2-3.4
		v-1.1c0-1.4-0.4-2.5-1.1-3.3s-1.8-1.3-3-1.3H22.1z" />
    <path id="XMLID_1179_" class="st4" d="M31.9,486.5c0-0.2,0.1-0.3,0.2-0.5c0.1-0.1,0.3-0.2,0.5-0.2c0.2,0,0.4,0.1,0.5,0.2
		c0.1,0.1,0.2,0.3,0.2,0.5c0,0.2-0.1,0.3-0.2,0.5c-0.1,0.1-0.3,0.2-0.5,0.2c-0.2,0-0.4-0.1-0.5-0.2C32,486.9,31.9,486.7,31.9,486.5z
		 M33.1,498.1h-1v-9h1V498.1z" />
    <path id="XMLID_1177_" class="st4" d="M41.2,495.8c0-0.5-0.2-0.9-0.6-1.2s-1-0.5-1.8-0.7s-1.4-0.4-1.9-0.6c-0.4-0.2-0.8-0.5-1-0.8
		c-0.2-0.3-0.3-0.7-0.3-1.1c0-0.7,0.3-1.3,0.9-1.8s1.4-0.7,2.3-0.7c1,0,1.8,0.2,2.4,0.7c0.6,0.5,0.9,1.1,0.9,1.9h-1
		c0-0.5-0.2-1-0.7-1.3c-0.4-0.3-1-0.5-1.7-0.5c-0.7,0-1.2,0.1-1.6,0.4c-0.4,0.3-0.6,0.7-0.6,1.1c0,0.4,0.2,0.8,0.5,1
		s0.9,0.5,1.8,0.7c0.9,0.2,1.5,0.4,2,0.7s0.8,0.5,1,0.8s0.3,0.7,0.3,1.2c0,0.8-0.3,1.4-0.9,1.8s-1.4,0.7-2.4,0.7
		c-1,0-1.9-0.3-2.5-0.8c-0.7-0.5-1-1.1-1-1.9h1c0,0.6,0.3,1,0.7,1.4c0.5,0.3,1,0.5,1.8,0.5c0.7,0,1.3-0.2,1.7-0.5
		C41,496.7,41.2,496.3,41.2,495.8z" />
    <path id="XMLID_1174_" class="st4" d="M51.6,493.7c0,1.4-0.3,2.5-0.9,3.3c-0.6,0.8-1.5,1.2-2.5,1.2c-1.2,0-2.2-0.4-2.8-1.3v4.6h-1
		v-12.4h0.9l0,1.3c0.6-1,1.6-1.4,2.8-1.4c1.1,0,1.9,0.4,2.5,1.2c0.6,0.8,0.9,1.9,0.9,3.4V493.7z M50.6,493.5c0-1.1-0.2-2-0.7-2.7
		c-0.5-0.7-1.1-1-2-1c-0.6,0-1.1,0.1-1.6,0.4c-0.4,0.3-0.8,0.7-1,1.3v4.3c0.2,0.5,0.6,0.9,1,1.2c0.4,0.3,1,0.4,1.6,0.4
		c0.8,0,1.5-0.3,2-1S50.6,494.8,50.6,493.5z" />
    <path id="XMLID_1172_" class="st4" d="M55,498.1h-1v-12.8h1V498.1z" />
    <path id="XMLID_1169_" class="st4" d="M63.3,498.1c-0.1-0.3-0.2-0.7-0.2-1.3c-0.3,0.5-0.8,0.8-1.3,1.1c-0.5,0.2-1.1,0.4-1.7,0.4
		c-0.9,0-1.6-0.2-2.1-0.7c-0.5-0.5-0.8-1.1-0.8-1.8c0-0.9,0.4-1.6,1.1-2.1c0.7-0.5,1.7-0.8,3-0.8h1.8v-1c0-0.6-0.2-1.1-0.6-1.5
		s-1-0.6-1.7-0.6c-0.7,0-1.3,0.2-1.7,0.5c-0.5,0.4-0.7,0.8-0.7,1.3l-1,0c0-0.7,0.3-1.3,1-1.9c0.7-0.5,1.5-0.8,2.4-0.8
		c1,0,1.8,0.3,2.4,0.8s0.9,1.2,0.9,2.1v4.3c0,0.9,0.1,1.5,0.3,2v0.1H63.3z M60.2,497.4c0.7,0,1.3-0.2,1.8-0.5
		c0.5-0.3,0.9-0.8,1.1-1.3v-2h-1.8c-1,0-1.8,0.2-2.3,0.5c-0.6,0.4-0.8,0.8-0.8,1.4c0,0.5,0.2,0.9,0.6,1.3
		C59.1,497.2,59.6,497.4,60.2,497.4z" />
    <path id="XMLID_1167_" class="st4" d="M69.5,496.7l2.6-7.6h1.1l-3.8,10.5l-0.2,0.5c-0.5,1.1-1.3,1.6-2.3,1.6c-0.2,0-0.5,0-0.8-0.1
		l0-0.8l0.5,0c0.5,0,0.9-0.1,1.2-0.4c0.3-0.2,0.6-0.7,0.8-1.2L69,498l-3.4-8.9h1.1L69.5,496.7z" />
    <path id="XMLID_1165_" class="st4" d="M83,490c-0.2,0-0.4-0.1-0.7-0.1c-0.6,0-1.1,0.2-1.6,0.5s-0.7,0.8-0.9,1.5v6.2h-1v-9h1l0,1.4
		c0.5-1.1,1.4-1.6,2.5-1.6c0.3,0,0.5,0,0.7,0.1L83,490z" />
    <path id="XMLID_1162_" class="st4" d="M83.9,493.5c0-0.9,0.2-1.6,0.5-2.3s0.8-1.2,1.4-1.6s1.3-0.6,2.1-0.6c1.2,0,2.2,0.4,2.9,1.3
		c0.7,0.8,1.1,1.9,1.1,3.3v0.2c0,0.9-0.2,1.7-0.5,2.3s-0.8,1.2-1.4,1.6c-0.6,0.4-1.3,0.6-2.1,0.6c-1.2,0-2.2-0.4-2.9-1.3
		c-0.7-0.8-1.1-1.9-1.1-3.3V493.5z M84.8,493.8c0,1.1,0.3,2,0.8,2.6c0.6,0.7,1.3,1,2.2,1c0.9,0,1.6-0.3,2.2-1
		c0.6-0.7,0.8-1.6,0.8-2.7v-0.2c0-0.7-0.1-1.3-0.4-1.9c-0.3-0.6-0.6-1-1.1-1.3s-1-0.5-1.6-0.5c-0.9,0-1.6,0.3-2.2,1
		c-0.6,0.7-0.8,1.6-0.8,2.7V493.8z" />
    <path id="XMLID_1160_" class="st4" d="M96.1,496.1l0.1,0.8l0.2-0.8l2.2-6.9h0.8l2.1,6.8l0.2,0.9l0.2-0.9l1.8-6.9h1l-2.6,9h-0.8
		l-2.3-7.1l-0.1-0.5l-0.1,0.5l-2.3,7.1h-0.8l-2.6-9h1L96.1,496.1z" />
    <path id="XMLID_1158_" class="st4" d="M112.1,495.8c0-0.5-0.2-0.9-0.6-1.2s-1-0.5-1.8-0.7s-1.4-0.4-1.9-0.6c-0.4-0.2-0.8-0.5-1-0.8
		c-0.2-0.3-0.3-0.7-0.3-1.1c0-0.7,0.3-1.3,0.9-1.8s1.4-0.7,2.3-0.7c1,0,1.8,0.2,2.4,0.7c0.6,0.5,0.9,1.1,0.9,1.9h-1
		c0-0.5-0.2-1-0.7-1.3c-0.4-0.3-1-0.5-1.7-0.5c-0.7,0-1.2,0.1-1.6,0.4c-0.4,0.3-0.6,0.7-0.6,1.1c0,0.4,0.2,0.8,0.5,1
		s0.9,0.5,1.8,0.7c0.9,0.2,1.5,0.4,2,0.7s0.8,0.5,1,0.8s0.3,0.7,0.3,1.2c0,0.8-0.3,1.4-0.9,1.8s-1.4,0.7-2.4,0.7
		c-1,0-1.9-0.3-2.5-0.8c-0.7-0.5-1-1.1-1-1.9h1c0,0.6,0.3,1,0.7,1.4c0.5,0.3,1,0.5,1.8,0.5c0.7,0,1.3-0.2,1.7-0.5
		C111.9,496.7,112.1,496.3,112.1,495.8z" />
    <path id="XMLID_1155_" class="st4" d="M126.7,493.7c0,1.4-0.3,2.5-0.9,3.3c-0.6,0.8-1.5,1.2-2.5,1.2c-1.2,0-2.2-0.4-2.8-1.3v4.6h-1
		v-12.4h0.9l0,1.3c0.6-1,1.6-1.4,2.8-1.4c1.1,0,1.9,0.4,2.5,1.2c0.6,0.8,0.9,1.9,0.9,3.4V493.7z M125.7,493.5c0-1.1-0.2-2-0.7-2.7
		c-0.5-0.7-1.1-1-2-1c-0.6,0-1.1,0.1-1.6,0.4c-0.4,0.3-0.8,0.7-1,1.3v4.3c0.2,0.5,0.6,0.9,1,1.2c0.4,0.3,1,0.4,1.6,0.4
		c0.8,0,1.5-0.3,2-1S125.7,494.8,125.7,493.5z" />
    <path id="XMLID_1152_" class="st4" d="M132.4,498.3c-0.8,0-1.5-0.2-2.1-0.6s-1.1-0.9-1.4-1.6c-0.3-0.7-0.5-1.4-0.5-2.3v-0.4
		c0-0.9,0.2-1.6,0.5-2.3s0.8-1.2,1.4-1.6s1.2-0.6,1.9-0.6c1.1,0,2,0.4,2.6,1.1c0.6,0.7,1,1.8,1,3.1v0.6h-6.4v0.2
		c0,1,0.3,1.9,0.9,2.5s1.3,1,2.2,1c0.5,0,1-0.1,1.4-0.3c0.4-0.2,0.8-0.5,1.1-0.9l0.6,0.5C134.8,497.8,133.8,498.3,132.4,498.3z
		 M132.2,489.8c-0.7,0-1.4,0.3-1.9,0.8c-0.5,0.5-0.8,1.3-0.9,2.2h5.4v-0.1c0-0.9-0.3-1.6-0.7-2.1S132.9,489.8,132.2,489.8z" />
    <path id="XMLID_1150_" class="st4" d="M141.8,490c-0.2,0-0.4-0.1-0.7-0.1c-0.6,0-1.1,0.2-1.6,0.5s-0.7,0.8-0.9,1.5v6.2h-1v-9h1
		l0,1.4c0.5-1.1,1.4-1.6,2.5-1.6c0.3,0,0.5,0,0.7,0.1L141.8,490z" />
    <path id="XMLID_1147_" class="st4" d="M147.3,497.5c0-0.2,0.1-0.4,0.2-0.5c0.1-0.1,0.3-0.2,0.5-0.2s0.4,0.1,0.5,0.2
		c0.1,0.1,0.2,0.3,0.2,0.5s-0.1,0.4-0.2,0.5c-0.1,0.1-0.3,0.2-0.5,0.2s-0.4-0.1-0.5-0.2C147.4,497.9,147.3,497.7,147.3,497.5z
		 M147.3,489.9c0-0.2,0.1-0.4,0.2-0.5c0.1-0.1,0.3-0.2,0.5-0.2s0.4,0.1,0.5,0.2c0.1,0.1,0.2,0.3,0.2,0.5c0,0.2-0.1,0.4-0.2,0.5
		c-0.1,0.1-0.3,0.2-0.5,0.2s-0.4-0.1-0.5-0.2C147.4,490.2,147.3,490.1,147.3,489.9z" />
  </g>
</svg>