<svg width="486" height="134" viewBox="0 0 486 134" fill="none" xmlns="http://www.w3.org/2000/svg">
<g clip-path="url(#clip0_24_190)">
<path d="M131.797 104.222C129.405 104.222 127.014 104.222 124.622 103.956C122.231 103.691 120.105 103.691 117.979 103.425C115.853 103.159 114.259 102.893 112.665 102.627L113.728 96.2461C116.119 96.5119 119.042 96.5119 122.231 96.7778C125.685 96.7778 128.874 97.0437 132.062 97.0437C134.72 97.0437 136.845 96.7778 138.705 96.5119C140.565 95.9802 142.16 95.1826 143.223 94.1191C144.285 92.7897 145.083 91.1945 145.348 89.0675L145.88 85.6112C145.88 85.0794 145.88 84.8135 145.88 84.5477C145.88 84.2818 145.88 83.75 145.88 83.4842C145.88 81.6231 145.348 80.0278 144.02 79.2302C142.691 78.4326 140.565 77.9008 137.908 77.9008H131.265C127.014 77.9008 123.825 76.8373 121.434 74.9762C119.042 73.1151 117.979 70.1905 117.979 66.7342C117.979 65.6707 117.979 64.6072 118.245 63.5437L119.042 58.4921C119.574 54.504 120.902 51.5794 122.496 49.1865C124.356 47.0596 126.482 45.4643 129.405 44.6667C132.328 43.8691 135.517 43.3373 138.971 43.3373C140.034 43.3373 141.363 43.3373 142.957 43.3373C144.551 43.3373 146.145 43.6032 147.74 43.6032C149.334 43.6032 150.928 43.8691 152.523 44.135C154.117 44.4008 155.446 44.6667 156.774 44.9326L155.711 51.3135C153.851 51.0477 151.726 51.0477 149.6 51.0477C147.474 51.0477 145.348 50.7818 143.223 50.7818C141.097 50.7818 139.237 50.7818 137.908 50.7818C135.782 50.7818 133.922 51.0477 132.328 51.3135C130.734 51.8453 129.405 52.6429 128.608 53.7064C127.545 55.0358 127.014 56.631 126.482 59.0239L125.951 62.4802C125.951 63.0119 125.951 63.2778 125.685 63.5437C125.685 63.8096 125.685 64.3413 125.685 64.6072C125.685 66.4683 126.217 68.0635 127.545 68.8612C128.608 69.6588 130.468 70.1905 132.859 70.1905H139.502C144.285 70.1905 147.74 71.254 150.131 73.381C152.523 75.508 153.586 78.1667 153.586 81.8889C153.586 82.9524 153.586 84.0159 153.32 85.0794L152.523 90.6627C151.991 94.1191 150.928 97.0437 149.068 99.1707C147.208 101.298 145.083 102.627 142.16 103.691C139.502 103.691 136.048 104.222 131.797 104.222Z" fill="#CFCCC5"/>
<path d="M159.166 103.69L169.263 40.6786H177.5L173.78 64.3413C175.906 62.746 178.297 61.6826 181.22 60.6191C184.143 59.5556 187.332 59.0238 190.521 59.0238C193.975 59.0238 196.898 59.8214 198.758 61.6826C200.618 63.5437 201.681 66.2024 201.681 69.9246C201.681 71.254 201.681 72.8492 201.415 74.4445L196.632 103.69H188.395L192.912 75.508C192.912 74.9762 192.912 74.4445 192.912 74.1786C192.912 73.6468 192.912 73.381 192.912 72.8492C192.912 70.4564 192.381 68.8611 191.052 67.7976C189.723 67 188.129 66.4683 186.003 66.4683C183.346 66.4683 181.22 66.7341 179.095 67.5318C176.969 68.3294 174.843 69.3929 172.717 70.7222L167.403 103.69H159.166Z" fill="#CFCCC5"/>
<path d="M225.064 104.222C221.61 104.222 218.687 103.69 216.03 102.627C213.372 101.563 211.512 99.9683 210.184 97.8413C208.855 95.7143 208.324 92.7897 208.324 89.0675C208.324 87.7381 208.324 86.1429 208.589 84.8135C208.589 83.4841 208.855 82.1548 209.121 80.8254C209.918 76.3056 210.715 72.8492 212.044 69.9246C213.372 67 214.701 64.873 216.561 63.2778C218.421 61.6825 220.547 60.619 223.204 59.8214C225.861 59.0238 228.784 58.7579 232.238 58.7579C236.49 58.7579 239.679 59.2897 242.336 60.619C244.727 61.6825 246.321 63.5436 247.384 65.9365C248.447 68.3294 248.713 71.254 248.713 74.7103C248.713 76.0397 248.713 77.369 248.447 78.9643C248.182 80.5595 248.182 81.8889 247.916 83.4841C247.119 88.8016 245.79 93.0555 243.93 95.9802C242.07 98.9048 239.679 101.032 236.49 102.361C233.567 103.69 229.847 104.222 225.064 104.222ZM226.127 97.5754C228.253 97.5754 229.847 97.3095 231.441 97.0436C233.036 96.5119 234.098 95.9802 235.161 94.9167C236.224 93.8532 237.021 92.2579 237.818 90.3968C238.616 88.2698 239.147 85.877 239.679 82.6865C239.944 81.0913 239.944 79.7619 240.21 78.4325C240.476 77.1032 240.476 76.0397 240.476 74.9762C240.476 71.7857 239.679 69.6587 238.35 68.3294C237.021 67 234.364 66.4683 231.176 66.4683C229.05 66.4683 227.19 66.7341 225.861 67.2659C224.267 67.7976 223.204 68.5952 222.141 69.6587C221.078 70.7222 220.281 72.5833 219.484 74.7103C218.687 76.8373 217.89 78.9643 217.358 82.4206C217.092 83.75 217.092 84.8135 216.827 85.877C216.827 86.9405 216.827 88.004 216.827 88.8016C216.827 91.1944 217.092 93.0556 217.89 94.1191C218.687 95.4484 219.75 96.246 221.078 96.7778C222.407 97.3095 224.267 97.5754 226.127 97.5754Z" fill="#CFCCC5"/>
<path d="M250.839 123.365L260.67 60.8849C263.593 60.3532 266.782 60.0873 270.236 59.8214C273.691 59.5555 277.411 59.2897 281.396 59.2897C286.179 59.2897 289.899 60.619 292.291 63.0119C294.682 65.6706 295.745 69.3928 295.745 74.4444C295.745 75.7738 295.745 77.369 295.48 78.6984C295.214 80.2936 295.214 81.623 294.948 82.9524C294.151 87.4722 293.088 91.4603 291.228 94.3849C289.368 97.5754 287.242 99.9682 284.319 101.563C281.396 103.159 278.208 103.956 274.222 103.956C272.096 103.956 269.971 103.69 267.845 103.425C265.985 103.159 264.125 102.361 262.265 101.563L258.81 122.833H250.839V123.365ZM273.425 97.0436C276.082 97.0436 278.474 96.5119 280.068 95.1825C281.928 94.119 283.256 92.2579 284.319 89.8651C285.382 87.4722 286.179 84.5476 286.711 81.0913C286.711 80.2936 286.977 79.2302 286.977 78.4325C287.242 77.369 287.242 76.5714 287.242 75.5079C287.242 72.3175 286.711 69.6587 285.382 68.0635C284.054 66.4682 281.928 65.6706 279.005 65.6706H267.845L263.062 95.1825C264.39 95.4484 265.453 95.9802 266.516 96.246C267.579 96.5119 268.376 96.7778 269.439 96.7778C270.768 97.0436 272.096 97.0436 273.425 97.0436Z" fill="#CFCCC5"/>
<path d="M300.528 103.69L307.437 59.5556H315.674L308.765 103.69H300.528ZM309.828 52.1111C309.563 52.1111 309.031 51.8452 308.765 51.5794C308.5 51.3135 308.5 51.0476 308.5 50.5159L309.563 43.6032C309.828 42.5397 310.36 42.0079 311.157 42.0079H317.268C317.8 42.0079 318.066 42.2738 318.066 42.5397C318.331 42.8056 318.331 43.0714 318.331 43.6032L317.268 50.5159C317.003 51.5794 316.471 51.8452 315.674 51.8452H309.828V52.1111Z" fill="#CFCCC5"/>
<path d="M337.463 104.222C331.086 104.222 326.569 102.627 323.646 99.1706C320.723 95.7143 319.128 90.9286 319.128 84.5476C319.128 82.6865 319.128 80.5595 319.394 78.1667C319.66 75.7738 319.926 73.9127 320.191 71.7857C321.254 65.4048 322.583 60.0873 324.709 55.5675C326.569 51.3135 329.226 47.8571 332.68 45.7302C336.135 43.6032 340.12 42.2738 345.169 42.2738C349.686 42.2738 353.406 42.5397 356.329 43.3373C359.518 43.869 361.909 44.6667 364.035 45.1984L362.972 51.5794C360.315 51.0476 357.923 50.7817 355.001 50.25C352.343 49.9841 349.42 49.7183 346.498 49.7183C343.84 49.7183 341.715 50.25 339.855 50.7817C337.995 51.5794 336.135 52.9087 334.806 54.7698C333.477 56.6309 332.149 59.0238 331.086 61.9484C330.023 64.873 329.226 68.8611 328.429 73.1151C328.163 74.9762 327.897 77.1032 327.632 78.9643C327.366 80.8254 327.366 82.6865 327.366 84.2817C327.366 88.5357 328.163 91.4603 330.023 93.5873C331.883 95.4484 335.072 96.5119 339.323 96.5119C343.309 96.5119 346.498 96.5119 348.889 96.246C351.281 95.9802 353.672 95.7143 356.063 95.4484L355.001 101.829C352.343 102.627 349.42 103.159 346.232 103.425C343.309 103.956 340.386 104.222 337.463 104.222Z" fill="#CFCCC5"/>
<path d="M384.23 104.222C381.838 104.222 379.447 104.222 377.055 103.956C374.664 103.69 372.538 103.69 370.412 103.425C368.286 103.159 366.692 102.893 365.098 102.627L366.161 96.246C368.552 96.5119 371.475 96.5119 374.664 96.7778C378.118 96.7778 381.307 97.0436 384.495 97.0436C386.887 97.0436 389.278 96.7778 391.138 96.5119C392.998 95.9801 394.593 95.1825 395.656 94.119C396.718 92.7897 397.516 91.1944 397.781 89.0674L398.313 85.6111C398.313 85.0793 398.313 84.8135 398.313 84.2817C398.313 84.0159 398.313 83.4841 398.313 83.2182C398.313 81.3571 397.781 79.7619 396.453 78.9643C395.124 78.1666 392.998 77.6349 390.341 77.6349H383.698C379.447 77.6349 376.258 76.5714 373.867 74.7103C371.475 72.8492 370.412 69.9246 370.412 66.4682C370.412 65.4047 370.412 64.3412 370.678 63.2778L371.475 58.2262C372.007 54.2381 373.335 51.3135 374.93 48.9206C376.524 46.5278 378.915 45.1984 381.838 44.4008C384.761 43.6032 387.95 43.0714 391.404 43.0714C392.467 43.0714 393.796 43.0714 395.39 43.0714C396.984 43.0714 398.578 43.3373 400.173 43.3373C401.767 43.6032 403.361 43.6032 404.956 43.869C406.55 44.1349 407.879 44.4008 409.207 44.6666L408.144 51.0476C406.284 50.7817 404.159 50.7817 402.033 50.7817C399.907 50.7817 397.781 50.5159 395.656 50.5159C393.53 50.5159 391.67 50.5159 390.341 50.5159C388.215 50.5159 386.355 50.7817 384.761 51.0476C383.167 51.5793 381.838 52.377 381.041 53.4405C379.978 54.7698 379.447 56.3651 378.915 58.7579L378.384 62.2143C378.384 62.746 378.384 63.0119 378.118 63.5436C378.118 63.8095 378.118 64.3412 378.118 64.6071C378.118 66.4682 378.65 68.0635 379.978 68.8611C381.041 69.6587 382.901 69.9246 385.293 69.9246H391.936C396.718 69.9246 400.173 70.9881 402.564 73.1151C404.956 75.242 406.019 77.9008 406.019 81.623C406.019 82.6865 406.019 83.75 405.753 84.8135L404.956 90.3968C404.424 93.8532 403.361 96.7778 401.501 98.9047C399.641 101.032 397.516 102.361 394.593 103.425C391.67 104.488 388.481 104.222 384.23 104.222Z" fill="#CFCCC5"/>
<path d="M428.073 103.69L417.71 43.0714H426.213L434.716 94.9166L460.225 43.0714H468.728L438.702 103.69H428.073Z" fill="#CFCCC5"/>
<path opacity="0.81" d="M57.1296 18.3452C57.661 11.9643 54.7381 0 46.7666 0H46.2351C38.2635 0 35.0749 12.2302 35.3406 18.3452" stroke="#34404E" stroke-width="1.5" stroke-miterlimit="10"/>
<path opacity="0.84" d="M85.8272 11.6984H6.11154V30.3095H85.8272V11.6984Z" fill="#CFCCC5"/>
<path d="M93.7988 30.3095H0.79715V134H93.7988V30.3095Z" fill="#CFCCC5"/>
<path opacity="0.7" d="M16.7403 30.3095H0L16.7403 18.3452V30.3095Z" fill="#34404E"/>
<path opacity="0.46" d="M6.11154 11.1667L16.2089 18.3452L6.11154 24.9921V11.1667Z" fill="#29363F"/>
<path opacity="0.46" d="M85.8272 11.1667L75.4642 18.3452L85.8272 24.9921V11.1667Z" fill="#29363F"/>
<path opacity="0.7" d="M75.1985 30.3095H92.7359L75.1985 18.3452V30.3095Z" fill="#34404E"/>
<path opacity="0.81" d="M61.6468 43.6032C62.9754 34.5635 59.5211 16.4841 47.5637 16.4841H47.0323C35.0749 16.4841 29.4948 34.2976 29.7605 43.3373" stroke="#34404E" stroke-width="1.5" stroke-miterlimit="10"/>
<path d="M51.0181 84.5476C49.158 84.8135 47.5637 85.0794 45.9694 85.0794C42.2493 85.0794 39.0607 83.75 36.4035 80.8254C33.7463 77.9008 32.4177 74.1786 32.4177 69.127C32.4177 63.5436 34.012 59.0238 36.9349 55.8333C39.8579 52.6428 43.3122 50.7817 46.7666 50.7817C50.7523 50.7817 54.2067 52.6428 57.3953 56.0992C60.5839 59.5555 62.1783 64.6071 62.1783 70.9881C62.1783 84.5476 56.8639 98.373 45.9694 112.198C40.3893 119.377 36.6692 122.833 34.8092 122.833L33.2149 121.238C33.2149 120.706 34.012 119.643 35.6064 117.782C41.4522 111.401 45.438 105.817 47.5637 101.298C49.6895 96.5119 50.7523 91.1944 51.0181 84.5476Z" fill="#29363F"/>
<path d="M51.8152 66.2024L42.515 71.7857L40.3893 57.6945L51.8152 66.2024Z" fill="#CFCCC5"/>
<path d="M53.941 76.0397L50.2209 78.1667L45.9694 69.6588L48.0951 68.3294L53.941 76.0397Z" fill="#CFCCC5"/>
<path d="M30.292 47.8571C32.7867 47.8571 34.8092 45.8335 34.8092 43.3373C34.8092 40.841 32.7867 38.8174 30.292 38.8174C27.7972 38.8174 25.7747 40.841 25.7747 43.3373C25.7747 45.8335 27.7972 47.8571 30.292 47.8571Z" fill="#34404E"/>
<path d="M61.9125 47.8571C64.4073 47.8571 66.4297 45.8335 66.4297 43.3373C66.4297 40.841 64.4073 38.8174 61.9125 38.8174C59.4177 38.8174 57.3953 40.841 57.3953 43.3373C57.3953 45.8335 59.4177 47.8571 61.9125 47.8571Z" fill="#34404E"/>
</g>
<defs>
<clipPath id="clip0_24_190">
<rect width="486" height="134" fill="white"/>
</clipPath>
</defs>
</svg>
