<svg width="90" height="90" viewBox="0 0 90 90" fill="none" xmlns="http://www.w3.org/2000/svg">
<path fill-rule="evenodd" clip-rule="evenodd" d="M69 42C69 56.9121 56.9121 69 42 69C27.0879 69 15 56.9121 15 42C15 27.0879 27.0879 15 42 15C56.9121 15 69 27.0879 69 42ZM29.2911 37.3911L40.0911 26.5911C40.5974 26.0849 41.2841 25.8006 42 25.8006C42.7159 25.8006 43.4026 26.0849 43.9089 26.5911L54.7089 37.3911C55.2007 37.9003 55.4729 38.5824 55.4667 39.2903C55.4606 39.9982 55.1766 40.6754 54.676 41.176C54.1754 41.6766 53.4982 41.9606 52.7903 41.9667C52.0824 41.9729 51.4003 41.7007 50.8911 41.2089L44.7 35.0178V55.5C44.7 56.2161 44.4155 56.9028 43.9092 57.4092C43.4028 57.9155 42.7161 58.2 42 58.2C41.2839 58.2 40.5972 57.9155 40.0908 57.4092C39.5845 56.9028 39.3 56.2161 39.3 55.5V35.0178L33.1089 41.2089C32.5997 41.7007 31.9176 41.9729 31.2097 41.9667C30.5018 41.9606 29.8246 41.6766 29.324 41.176C28.8234 40.6754 28.5394 39.9982 28.5333 39.2903C28.5271 38.5824 28.7993 37.9003 29.2911 37.3911V37.3911Z" fill="#5C5F62"/>
<circle cx="42.5" cy="42.5" r="42.5" fill="#5C5F62" fill-opacity="0.07"/>
</svg>
