<svg width="42" height="36" viewBox="0 0 42 36" fill="none" xmlns="http://www.w3.org/2000/svg">
<path d="M31.8844 34.463L31.2318 35.2207C31.4215 35.3841 31.6657 35.4704 31.916 35.4625L31.8844 34.463ZM28.6993 30.0273C28.357 29.5939 27.7282 29.5199 27.2947 29.8622C26.8613 30.2044 26.7873 30.8332 27.1296 31.2667L28.6993 30.0273ZM30.0671 28.6899L29.7192 27.7524C29.7059 27.7573 29.6928 27.7625 29.6797 27.768L30.0671 28.6899ZM25.3379 30.0925L25.17 29.1067C25.1645 29.1076 25.1591 29.1086 25.1536 29.1096L25.3379 30.0925ZM16.8904 30.06L16.7009 31.0419L16.7069 31.043L16.8904 30.06ZM12.0959 28.6576L11.7315 29.5888L11.7324 29.5891L12.0959 28.6576ZM9.71471 27.5486L9.1587 28.3797C9.18064 28.3944 9.20316 28.4082 9.2262 28.4211L9.71471 27.5486ZM9.4213 27.3853L9.97644 26.5536C9.9418 26.5305 9.90576 26.5095 9.86851 26.4909L9.4213 27.3853ZM9.29087 27.2877L9.99798 26.5806C9.93229 26.5149 9.85777 26.4587 9.77657 26.4136L9.29087 27.2877ZM14.8704 31.2012C15.2125 30.7677 15.1384 30.1389 14.7049 29.7967C14.2714 29.4546 13.6425 29.5286 13.3004 29.9622L14.8704 31.2012ZM10.1157 34.463L10.084 35.4625C10.3386 35.4705 10.5867 35.3811 10.7776 35.2125L10.1157 34.463ZM1.95239 28.3314H0.952393C0.952393 28.3849 0.956684 28.4383 0.965227 28.4911L1.95239 28.3314ZM6.64903 5.23449L6.04902 4.4345C5.89589 4.54935 5.77894 4.70574 5.71205 4.88509L6.64903 5.23449ZM15.814 1.80984L16.8095 1.71503C16.7614 1.21013 16.3429 0.821189 15.8359 0.810081L15.814 1.80984ZM15.1447 5.32953C15.197 5.87933 15.6852 6.28258 16.235 6.23021C16.7848 6.17785 17.188 5.6897 17.1357 5.13991L15.1447 5.32953ZM24.7373 5.23776C24.667 5.78554 25.054 6.28664 25.6018 6.357C26.1496 6.42736 26.6507 6.04033 26.721 5.49254L24.7373 5.23776ZM26.1858 1.81006L26.1639 0.810306C25.6693 0.821164 25.257 1.19201 25.194 1.68267L26.1858 1.81006ZM35.3508 5.23472L36.2877 4.88529C36.2209 4.70596 36.1039 4.54959 35.9508 4.43474L35.3508 5.23472ZM40.0476 28.3314L41.0348 28.4911C41.0433 28.4383 41.0476 28.3849 41.0476 28.3314H40.0476ZM18.2275 21.6776L17.2276 21.6611C17.2276 21.6666 17.2275 21.6721 17.2275 21.6776H18.2275ZM31.8844 34.463C32.537 33.7053 32.537 33.7053 32.537 33.7053C32.537 33.7053 32.537 33.7053 32.537 33.7052C32.5369 33.7052 32.5368 33.7051 32.5367 33.705C32.5364 33.7047 32.5359 33.7043 32.5353 33.7038C32.534 33.7027 32.532 33.701 32.5293 33.6986C32.5239 33.694 32.5158 33.687 32.505 33.6777C32.4836 33.6591 32.4516 33.6314 32.4105 33.5956C32.3283 33.524 32.2093 33.42 32.0633 33.2911C31.771 33.0333 31.3716 32.6771 30.9427 32.2832C30.0627 31.4751 29.1308 30.5738 28.6993 30.0273L27.1296 31.2667C27.6767 31.9596 28.7297 32.9664 29.59 33.7563C30.0313 34.1615 30.4409 34.5269 30.7401 34.7909C30.8898 34.923 31.0121 35.0299 31.0973 35.1041C31.1399 35.1411 31.1732 35.17 31.196 35.1898C31.2074 35.1997 31.2162 35.2072 31.2222 35.2124C31.2252 35.215 31.2275 35.217 31.2291 35.2184C31.2299 35.2191 31.2305 35.2196 31.231 35.22C31.2312 35.2202 31.2314 35.2203 31.2315 35.2204C31.2316 35.2205 31.2316 35.2206 31.2317 35.2206C31.2317 35.2206 31.2318 35.2207 31.8844 34.463ZM33.2679 25.9306C31.9939 26.7696 30.7897 27.3551 29.7192 27.7524L30.415 29.6274C31.6275 29.1774 32.9673 28.5233 34.3679 27.6009L33.2679 25.9306ZM29.6797 27.768C28.1145 28.4256 26.6224 28.8593 25.17 29.1067L25.5058 31.0783C27.1191 30.8035 28.7582 30.3245 30.4544 29.6118L29.6797 27.768ZM25.1536 29.1096C22.1664 29.6697 19.4231 29.5155 17.0739 29.0769L16.7069 31.043C19.2499 31.5177 22.247 31.6894 25.5222 31.0754L25.1536 29.1096ZM17.08 29.0781C15.2937 28.7332 13.7547 28.2314 12.4594 27.726L11.7324 29.5891C13.1113 30.1272 14.7686 30.6688 16.7009 31.0418L17.08 29.0781ZM12.4604 27.7263C11.7376 27.4434 10.9668 27.1035 10.2032 26.676L9.2262 28.4211C10.0938 28.9069 10.9537 29.2844 11.7315 29.5888L12.4604 27.7263ZM10.2707 26.7174C10.1619 26.6446 10.0582 26.594 10.0155 26.5726C9.96007 26.5449 9.96573 26.5464 9.97644 26.5536L8.86616 28.2171C8.97475 28.2896 9.07829 28.3401 9.12068 28.3613C9.17582 28.3889 9.16986 28.3872 9.1587 28.3797L10.2707 26.7174ZM9.86851 26.4909C9.89861 26.506 9.93327 26.5275 9.96753 26.5548C9.9963 26.5778 10.016 26.5986 9.99798 26.5806L8.58376 27.9948C8.63861 28.0497 8.76271 28.1741 8.97409 28.2798L9.86851 26.4909ZM9.77657 26.4136C9.50081 26.2603 9.28862 26.1314 9.1481 26.0426C9.07788 25.9983 9.02566 25.964 8.99245 25.9419C8.97585 25.9308 8.96402 25.9228 8.95707 25.9181C8.9536 25.9157 8.95135 25.9141 8.95034 25.9134C8.94984 25.9131 8.94965 25.913 8.94976 25.913C8.94982 25.9131 8.94996 25.9132 8.95017 25.9133C8.95028 25.9134 8.95041 25.9135 8.95055 25.9136C8.95063 25.9136 8.95071 25.9137 8.95079 25.9137C8.95083 25.9138 8.9509 25.9138 8.95092 25.9138C8.95099 25.9139 8.95105 25.9139 8.37763 26.7332C7.8042 27.5524 7.80427 27.5525 7.80434 27.5525C7.80437 27.5526 7.80444 27.5526 7.80449 27.5527C7.8046 27.5527 7.80471 27.5528 7.80482 27.5529C7.80505 27.553 7.80529 27.5532 7.80556 27.5534C7.80609 27.5538 7.8067 27.5542 7.8074 27.5547C7.80879 27.5556 7.8105 27.5568 7.81252 27.5582C7.81658 27.561 7.82191 27.5647 7.82851 27.5692C7.84169 27.5782 7.85993 27.5906 7.88308 27.606C7.92938 27.6369 7.9954 27.6801 8.0801 27.7336C8.24945 27.8406 8.49388 27.9889 8.80517 28.1618L9.77657 26.4136ZM13.3004 29.9622C12.8655 30.5132 11.9296 31.4332 11.0499 32.2575C10.6205 32.6598 10.2207 33.0245 9.92818 33.2886C9.78201 33.4206 9.66287 33.5273 9.58051 33.6007C9.53933 33.6374 9.50737 33.6659 9.48583 33.685C9.47506 33.6945 9.46689 33.7017 9.46149 33.7065C9.45879 33.7089 9.45678 33.7107 9.45548 33.7118C9.45483 33.7124 9.45436 33.7128 9.45407 33.7131C9.45392 33.7132 9.45382 33.7133 9.45376 33.7134C9.45373 33.7134 9.45373 33.7134 9.45371 33.7134C9.45372 33.7134 9.45373 33.7134 10.1157 34.463C10.7776 35.2125 10.7776 35.2125 10.7777 35.2125C10.7777 35.2124 10.7778 35.2124 10.7778 35.2123C10.778 35.2122 10.7781 35.2121 10.7783 35.2119C10.7788 35.2115 10.7794 35.2109 10.7802 35.2102C10.7818 35.2088 10.7841 35.2068 10.787 35.2042C10.793 35.1989 10.8018 35.1911 10.8132 35.181C10.8359 35.1608 10.8692 35.1313 10.9117 35.0933C10.9967 35.0175 11.119 34.9081 11.2685 34.7731C11.5674 34.5032 11.9766 34.1299 12.4174 33.7169C13.278 32.9105 14.3269 31.8898 14.8704 31.2012L13.3004 29.9622ZM10.1473 33.4635C6.86089 33.3594 5.09529 31.9844 4.12799 30.7076C3.63182 30.0528 3.33053 29.4019 3.15424 28.9162C3.06645 28.6743 3.01084 28.4766 2.97803 28.3445C2.96166 28.2785 2.95106 28.2293 2.94504 28.1995C2.94203 28.1846 2.94017 28.1746 2.9393 28.1699C2.93887 28.1675 2.93869 28.1664 2.93874 28.1667C2.93876 28.1668 2.93884 28.1673 2.93898 28.1681C2.93905 28.1686 2.93913 28.1691 2.93923 28.1696C2.93928 28.1699 2.93936 28.1704 2.93938 28.1706C2.93947 28.1711 2.93956 28.1717 1.95239 28.3314C0.965227 28.4911 0.965323 28.4917 0.965423 28.4923C0.965462 28.4925 0.965566 28.4931 0.965644 28.4936C0.965799 28.4946 0.96597 28.4956 0.966158 28.4967C0.966534 28.499 0.966976 28.5016 0.967487 28.5046C0.968509 28.5106 0.969807 28.518 0.971402 28.5267C0.974592 28.5443 0.978973 28.5675 0.984717 28.5959C0.996199 28.6527 1.01316 28.7305 1.03698 28.8265C1.08456 29.0181 1.15987 29.2834 1.27424 29.5985C1.50227 30.2268 1.89025 31.066 2.53386 31.9154C3.84612 33.6475 6.16215 35.3382 10.084 35.4625L10.1473 33.4635ZM2.95239 28.3314C2.95239 23.2073 4.10167 17.53 5.26778 13.0991C5.84888 10.8911 6.43004 9.00779 6.86554 7.67765C7.08321 7.01281 7.26429 6.48677 7.3905 6.12817C7.4536 5.94888 7.50297 5.81148 7.53632 5.71957C7.55299 5.67361 7.56566 5.63903 7.57404 5.61627C7.57823 5.60489 7.58134 5.59646 7.58334 5.59105C7.58435 5.58834 7.58507 5.58639 7.58552 5.58519C7.58574 5.5846 7.58589 5.58419 7.58597 5.58397C7.58601 5.58387 7.58602 5.58385 7.58604 5.58379C7.58603 5.58382 7.586 5.5839 6.64903 5.23449C5.71205 4.88509 5.71199 4.88526 5.71191 4.88548C5.71186 4.88562 5.71176 4.88589 5.71165 4.88617C5.71145 4.88672 5.71117 4.88746 5.71083 4.88839C5.71013 4.89026 5.70915 4.89289 5.7079 4.89628C5.70539 4.90305 5.70177 4.91285 5.69707 4.92562C5.68767 4.95116 5.67397 4.98858 5.65624 5.03743C5.62079 5.13514 5.56926 5.27859 5.50393 5.4642C5.3733 5.83538 5.18745 6.37535 4.96482 7.05534C4.5197 8.41489 3.9267 10.3366 3.33364 12.5901C2.15144 17.0821 0.952393 22.9531 0.952393 28.3314H2.95239ZM7.24903 6.03449C9.47025 4.36855 11.6318 3.56265 13.2298 3.17271C14.0289 2.97772 14.6855 2.88717 15.1352 2.84528C15.3599 2.82434 15.5325 2.8156 15.6448 2.812C15.7009 2.81021 15.742 2.8097 15.7669 2.80959C15.7793 2.80954 15.7877 2.80959 15.792 2.80963C15.7941 2.80965 15.7952 2.80966 15.7952 2.80966C15.7952 2.80966 15.795 2.80966 15.7944 2.80965C15.7942 2.80965 15.7939 2.80964 15.7935 2.80963C15.7933 2.80963 15.7929 2.80962 15.7928 2.80962C15.7925 2.80961 15.7921 2.8096 15.814 1.80984C15.8359 0.810081 15.8355 0.810072 15.835 0.810063C15.8349 0.81006 15.8344 0.81005 15.8341 0.810044C15.8334 0.81003 15.8327 0.810016 15.8319 0.810001C15.8303 0.809971 15.8284 0.809938 15.8262 0.809905C15.8219 0.809838 15.8165 0.809768 15.8101 0.809709C15.7971 0.809592 15.7799 0.809521 15.7584 0.809611C15.7156 0.809792 15.656 0.810621 15.5808 0.813028C15.4304 0.81784 15.2172 0.82897 14.9497 0.853899C14.4148 0.903732 13.6607 1.00887 12.7557 1.22972C10.9453 1.67148 8.52443 2.57791 6.04902 4.4345L7.24903 6.03449ZM14.8185 1.90465L15.1447 5.32953L17.1357 5.13991L16.8095 1.71503L14.8185 1.90465ZM26.721 5.49254L27.1777 1.93746L25.194 1.68267L24.7373 5.23776L26.721 5.49254ZM26.1858 1.81006C26.2078 2.80982 26.2074 2.80983 26.207 2.80984C26.2069 2.80984 26.2066 2.80985 26.2064 2.80985C26.206 2.80986 26.2057 2.80987 26.2054 2.80987C26.2049 2.80988 26.2046 2.80989 26.2046 2.80989C26.2047 2.80989 26.2057 2.80987 26.2079 2.80985C26.2121 2.80981 26.2205 2.80976 26.233 2.80981C26.2579 2.80992 26.2989 2.81043 26.355 2.81222C26.4674 2.81581 26.6399 2.82454 26.8646 2.84547C27.3143 2.88735 27.9709 2.97788 28.77 3.17286C30.368 3.56276 32.5295 4.36865 34.7507 6.0347L35.9508 4.43474C33.4754 2.57803 31.0545 1.67159 29.2441 1.22986C28.339 1.00902 27.585 0.903902 27.0501 0.854088C26.7825 0.829168 26.5693 0.818046 26.4189 0.81324C26.3437 0.810837 26.2842 0.810011 26.2413 0.809832C26.2199 0.809742 26.2026 0.809814 26.1897 0.809932C26.1832 0.809991 26.1778 0.810061 26.1735 0.810128C26.1713 0.810162 26.1695 0.810195 26.1679 0.810225C26.1671 0.81024 26.1663 0.810254 26.1657 0.810268C26.1653 0.810275 26.1649 0.810284 26.1647 0.810288C26.1643 0.810297 26.1639 0.810306 26.1858 1.81006ZM35.3508 5.23472C34.4138 5.58414 34.4138 5.58407 34.4138 5.58404C34.4138 5.58409 34.4138 5.58411 34.4138 5.58422C34.4139 5.58443 34.4141 5.58484 34.4143 5.58544C34.4147 5.58663 34.4155 5.58859 34.4165 5.59129C34.4185 5.59671 34.4216 5.60513 34.4258 5.61651C34.4341 5.63927 34.4468 5.67386 34.4635 5.71981C34.4968 5.81172 34.5462 5.94911 34.6093 6.1284C34.7355 6.487 34.9166 7.01303 35.1343 7.67786C35.5698 9.00798 36.151 10.8913 36.7321 13.0992C37.8983 17.53 39.0476 23.2073 39.0476 28.3314H41.0476C41.0476 22.9531 39.8485 17.0821 38.6663 12.5902C38.0732 10.3367 37.4802 8.41504 37.035 7.05552C36.8124 6.37553 36.6265 5.83557 36.4959 5.46439C36.4305 5.27879 36.379 5.13534 36.3435 5.03763C36.3258 4.98878 36.3121 4.95136 36.3027 4.92582C36.298 4.91305 36.2944 4.90325 36.2919 4.89648C36.2906 4.89309 36.2897 4.89046 36.289 4.8886C36.2886 4.88766 36.2883 4.88692 36.2881 4.88637C36.288 4.88609 36.2879 4.88582 36.2879 4.88569C36.2878 4.88547 36.2877 4.88529 35.3508 5.23472ZM40.0476 28.3314C39.0605 28.1716 39.0606 28.1711 39.0606 28.1706C39.0607 28.1704 39.0608 28.1699 39.0608 28.1696C39.0609 28.169 39.061 28.1685 39.061 28.1681C39.0612 28.1673 39.0613 28.1668 39.0613 28.1667C39.0613 28.1664 39.0612 28.1674 39.0607 28.1698C39.0599 28.1746 39.058 28.1846 39.055 28.1995C39.049 28.2293 39.0384 28.2785 39.022 28.3444C38.9892 28.4765 38.9336 28.6742 38.8458 28.9161C38.6694 29.4019 38.3681 30.0528 37.872 30.7076C36.9046 31.9844 35.139 33.3594 31.8527 33.4635L31.916 35.4625C35.8378 35.3382 38.1538 33.6474 39.4661 31.9155C40.1097 31.066 40.4977 30.2268 40.7257 29.5985C40.8401 29.2834 40.9154 29.0181 40.963 28.8265C40.9869 28.7306 41.0038 28.6527 41.0153 28.596C41.021 28.5675 41.0254 28.5444 41.0286 28.5268C41.0302 28.518 41.0315 28.5106 41.0325 28.5046C41.033 28.5016 41.0335 28.499 41.0339 28.4968C41.034 28.4956 41.0342 28.4946 41.0344 28.4937C41.0345 28.4932 41.0346 28.4925 41.0346 28.4923C41.0347 28.4917 41.0348 28.4911 40.0476 28.3314ZM14.9007 17.0574C12.4057 17.0574 10.5742 19.2234 10.5742 21.6776H12.5742C12.5742 20.1528 13.6777 19.0574 14.9007 19.0574V17.0574ZM10.5742 21.6776C10.5742 24.1385 12.4443 26.298 14.9007 26.298V24.298C13.7042 24.298 12.5742 23.196 12.5742 21.6776H10.5742ZM14.9007 26.298C17.396 26.298 19.2275 24.1319 19.2275 21.6776H17.2275C17.2275 23.2026 16.124 24.298 14.9007 24.298V26.298ZM19.2274 21.6941C19.2683 19.2112 17.3816 17.0574 14.9007 17.0574V19.0574C16.1379 19.0574 17.2523 20.165 17.2276 21.6611L19.2274 21.6941ZM26.8056 17.0574C24.3105 17.0574 22.4786 19.2233 22.4786 21.6776H24.4786C24.4786 20.1529 25.5823 19.0574 26.8056 19.0574V17.0574ZM22.4786 21.6776C22.4786 24.1387 24.3494 26.298 26.8056 26.298V24.298C25.609 24.298 24.4786 23.1958 24.4786 21.6776H22.4786ZM26.8056 26.298C29.3007 26.298 31.1322 24.1319 31.1322 21.6776H29.1322C29.1322 23.2026 28.0286 24.298 26.8056 24.298V26.298ZM31.1322 21.6776C31.1322 19.2234 29.3007 17.0574 26.8056 17.0574V19.0574C28.0287 19.0574 29.1322 20.1528 29.1322 21.6776H31.1322ZM10.5945 9.49049C14.5506 7.33289 17.8092 6.3058 21.0062 6.30422C24.2026 6.30264 27.4567 7.32616 31.4037 9.48949L32.365 7.73564C28.2514 5.48106 24.6591 4.30241 21.0052 4.30422C17.352 4.30603 13.7565 5.48789 9.63686 7.73464L10.5945 9.49049Z" fill="white"/>
</svg>
