<svg width="43" height="42" viewBox="0 0 43 42" fill="none" xmlns="http://www.w3.org/2000/svg">
<path d="M15.7227 34.1343C16.2565 33.9925 16.5743 33.4449 16.4325 32.9111C16.2907 32.3773 15.7431 32.0596 15.2093 32.2013L15.7227 34.1343ZM2.21618 25.9257L1.23983 25.7096L0.807465 27.6623L1.78382 27.8784L2.21618 25.9257ZM30.3864 41V42H32.3864V41H30.3864ZM30.0597 25.3357L29.9694 24.3397C29.567 24.3762 29.2261 24.6513 29.1054 25.0368C28.9846 25.4224 29.1078 25.8428 29.4175 26.1022L30.0597 25.3357ZM42 13.6489H43L43 13.6451L42 13.6489ZM38.9051 7.36363L37.9968 6.94535C37.8089 7.35353 37.9162 7.83696 38.2594 8.12716L38.9051 7.36363ZM38.7194 1.04503L39.6031 0.577058C39.4689 0.323644 39.2324 0.14003 38.9537 0.0728574L38.7194 1.04503ZM30.6491 3.52587L30.4344 4.50255C30.6697 4.55429 30.9158 4.5193 31.1274 4.40403L30.6491 3.52587ZM16.2033 3.52587L15.7251 4.40411C15.9367 4.51932 16.1827 4.55427 16.418 4.50255L16.2033 3.52587ZM8.13297 1.04503L7.89851 0.0729083C7.61982 0.140124 7.38339 0.323711 7.24923 0.577058L8.13297 1.04503ZM7.94724 7.36363L8.59294 8.12722C8.93611 7.83703 9.04353 7.35356 8.85555 6.94535L7.94724 7.36363ZM4.85237 13.6999H5.85238L5.85237 13.6968L4.85237 13.6999ZM16.7927 25.3357L17.4361 26.1012C17.7438 25.8426 17.8667 25.425 17.7483 25.0409C17.6298 24.6569 17.293 24.3811 16.8931 24.3407L16.7927 25.3357ZM15.466 30.035H16.466C16.466 30.006 16.4648 29.9771 16.4622 29.9482L15.466 30.035ZM14.466 41V42H16.466V41H14.466ZM15.2093 32.2013C12.8372 32.8315 11.1895 32.7979 9.99165 32.4645C8.80672 32.1347 7.96103 31.4836 7.23345 30.6838C6.86413 30.2777 6.52987 29.8385 6.19247 29.3779C5.86526 28.9312 5.5174 28.4389 5.16287 27.9979C4.45075 27.1123 3.55199 26.2215 2.21618 25.9257L1.78382 27.8784C2.43773 28.0232 2.97322 28.4664 3.60421 29.2512C3.92125 29.6455 4.22216 30.0725 4.57899 30.5597C4.92563 31.033 5.31067 31.5422 5.75395 32.0295C6.65159 33.0164 7.80432 33.9317 9.45538 34.3913C11.0936 34.8472 13.1193 34.8259 15.7227 34.1343L15.2093 32.2013ZM32.3864 29.8392C32.3864 27.9937 32.5103 26.0841 30.7019 24.5691L29.4175 26.1022C30.3905 26.9173 30.3864 27.7685 30.3864 29.8392H32.3864ZM30.15 26.3316C33.4235 26.0348 36.6604 25.3843 39.0766 23.4911C41.5593 21.5458 43 18.4378 43 13.6489H41C41 18.012 39.7105 20.4536 37.8431 21.9168C35.9091 23.4322 33.1758 24.0491 29.9694 24.3397L30.15 26.3316ZM43 13.6451C42.9897 10.9645 41.7237 8.43783 39.5509 6.6001L38.2594 8.12716C40.0337 9.62784 40.9922 11.6189 41 13.6528L43 13.6451ZM39.8135 7.78192C40.342 6.63423 40.5984 5.40221 40.5619 4.15927L38.5628 4.21803C38.59 5.14421 38.3997 6.07044 37.9968 6.94535L39.8135 7.78192ZM40.5619 4.15927C40.5254 2.91643 40.1969 1.69843 39.6031 0.577058L37.8357 1.51301C38.291 2.37283 38.5355 3.29176 38.5628 4.21803L40.5619 4.15927ZM38.7194 1.04503C38.9537 0.0728574 38.9528 0.0726593 38.952 0.0724596C38.9517 0.0723902 38.9509 0.0721892 38.9503 0.0720511C38.9491 0.0717753 38.9479 0.0714926 38.9467 0.0712032C38.9442 0.0706244 38.9416 0.0700188 38.9388 0.0693886C38.9332 0.0681283 38.9271 0.0667694 38.9203 0.0653285C38.9068 0.0624464 38.8908 0.0592371 38.8723 0.0558307C38.8355 0.0490168 38.7888 0.0414234 38.7322 0.0340863C38.619 0.0194052 38.4664 0.00579888 38.273 0.0014444C37.886 -0.00727081 37.3383 0.0211239 36.6191 0.150707C35.1814 0.409752 33.0626 1.07236 30.1707 2.64771L31.1274 4.40403C33.868 2.91113 35.7844 2.33332 36.9738 2.11901C37.5681 2.01191 37.9819 1.9954 38.228 2.00094C38.3512 2.00371 38.433 2.01203 38.4751 2.01748C38.4961 2.02022 38.5074 2.02225 38.5089 2.02254C38.5097 2.02269 38.5081 2.0224 38.5042 2.02155C38.5022 2.02113 38.4996 2.02057 38.4964 2.01985C38.4948 2.01949 38.4931 2.01909 38.4912 2.01865C38.4903 2.01843 38.4893 2.0182 38.4883 2.01796C38.4878 2.01784 38.487 2.01765 38.4867 2.01759C38.4859 2.0174 38.4851 2.01721 38.7194 1.04503ZM30.8638 2.54919C25.9862 1.47697 20.8662 1.47697 15.9886 2.54919L16.418 4.50255C21.0127 3.49251 25.8397 3.49251 30.4344 4.50255L30.8638 2.54919ZM16.6815 2.64763C13.7885 1.07235 11.6698 0.409757 10.2324 0.150713C9.51344 0.0211299 8.96591 -0.00727236 8.57904 0.0014447C8.38574 0.00580007 8.23315 0.0194098 8.11995 0.0340988C8.06337 0.0414398 8.01673 0.0490382 7.97985 0.0558585C7.96142 0.059268 7.94543 0.0624808 7.93188 0.0653667C7.9251 0.0668096 7.91893 0.0681705 7.91337 0.0694329C7.91059 0.0700641 7.90796 0.0706707 7.90549 0.0712507C7.90425 0.0715407 7.90305 0.0718239 7.90188 0.0721003C7.9013 0.0722386 7.90046 0.07244 7.90017 0.0725096C7.89933 0.0727097 7.89851 0.0729083 8.13297 1.04503C8.36744 2.01716 8.36663 2.01735 8.36584 2.01754C8.36558 2.0176 8.36479 2.01779 8.36429 2.01791C8.36327 2.01815 8.3623 2.01838 8.36135 2.0186C8.35947 2.01904 8.35774 2.01944 8.35615 2.0198C8.35297 2.02053 8.35038 2.02109 8.34839 2.02152C8.34439 2.02237 8.34277 2.02266 8.34355 2.02251C8.3451 2.02223 8.35628 2.0202 8.37731 2.01747C8.41931 2.01202 8.50102 2.00371 8.62409 2.00094C8.86996 1.9954 9.28348 2.01191 9.8777 2.119C11.0668 2.33331 12.9832 2.91114 15.7251 4.40411L16.6815 2.64763ZM7.24923 0.577058C6.65543 1.69843 6.327 2.91643 6.29046 4.15927L8.2896 4.21803C8.31683 3.29176 8.56141 2.37283 9.01672 1.51301L7.24923 0.577058ZM6.29046 4.15927C6.25393 5.40221 6.5104 6.63423 7.03892 7.78192L8.85555 6.94535C8.45265 6.07044 8.26238 5.14421 8.2896 4.21803L6.29046 4.15927ZM7.30153 6.60005C6.21811 7.51622 5.3487 8.61295 4.75285 9.83286L6.54993 10.7106C7.01621 9.756 7.70716 8.87626 8.59294 8.12722L7.30153 6.60005ZM4.75285 9.83286C4.15659 11.0536 3.84833 12.3693 3.85238 13.7029L5.85237 13.6968C5.84928 12.6786 6.08406 11.6644 6.54993 10.7106L4.75285 9.83286ZM3.85237 13.6999C3.85237 18.4589 5.29538 21.5377 7.77867 23.4689C10.1919 25.3457 13.4255 26.0009 16.6923 26.3306L16.8931 24.3407C13.68 24.0164 10.9434 23.3964 9.00646 21.8901C7.13957 20.4383 5.85237 18.0262 5.85237 13.6999H3.85237ZM16.1493 24.5701C14.3561 26.0773 14.3299 28.5157 14.4698 30.1217L16.4622 29.9482C16.3235 28.3548 16.485 26.9006 17.4361 26.1012L16.1493 24.5701ZM14.466 30.035V41H16.466V30.035H14.466ZM32.3864 41V29.8392H30.3864V41H32.3864Z" fill="white"/>
</svg>
