<?xml version="1.0" encoding="utf-8"?>
<!-- Generator: Adobe Illustrator 19.0.0, SVG Export Plug-In . SVG Version: 6.00 Build 0)  -->
<svg version="1.1" id="Calque_1" xmlns="http://www.w3.org/2000/svg" xmlns:xlink="http://www.w3.org/1999/xlink" x="0px" y="0px" viewBox="0 0 556 184" style="enable-background:new 0 0 556 184;" xml:space="preserve">
  <style type="text/css">
	.st0{fill:#364B44;}
	.st1{fill:none;stroke:#364B44;stroke-width:1.5;stroke-miterlimit:10;}
	.st2{fill:#008060;}
	.st3{fill:#178B6E;}
	.st4{fill:#037252;}
	.st5{fill:#FFFFFF;}
</style>
  <g id="XMLID_280_">
    <g id="XMLID_1_">
      <path id="XMLID_2_" class="st0" d="M165.1,141c-2.7,0-5.4-0.1-8.2-0.3c-2.7-0.2-5.2-0.4-7.5-0.6c-2.3-0.2-4.3-0.6-5.9-0.9l1.1-7.2
			c2.7,0.2,5.9,0.4,9.6,0.6c3.7,0.1,7.4,0.2,11,0.2c2.8,0,5.3-0.2,7.4-0.7c2.1-0.5,3.8-1.4,5.1-2.8c1.3-1.4,2.1-3.3,2.5-5.8l0.6-3.8
			c0.1-0.5,0.1-0.9,0.1-1.3c0-0.4,0-0.8,0-1.2c0-2.2-0.7-3.8-2.1-4.9c-1.4-1-3.7-1.5-7-1.5h-7.4c-4.8,0-8.4-1.1-11-3.3
			c-2.6-2.2-3.8-5.3-3.8-9.4c0-1.2,0.1-2.4,0.3-3.7l0.9-5.8c0.7-4.5,2-7.9,4-10.3c2-2.4,4.6-4.2,7.7-5.1c3.2-1,6.8-1.5,10.9-1.5
			c1.3,0,2.8,0,4.5,0.1c1.7,0.1,3.5,0.2,5.4,0.4c1.9,0.2,3.7,0.4,5.5,0.6c1.8,0.2,3.4,0.5,4.9,0.8l-1.1,7.2
			c-2.1-0.2-4.4-0.3-6.9-0.4c-2.5-0.1-4.9-0.2-7.3-0.2c-2.4-0.1-4.4-0.1-6.1-0.1c-2.5,0-4.6,0.2-6.4,0.7c-1.8,0.5-3.2,1.4-4.3,2.8
			c-1.1,1.4-1.8,3.3-2.3,5.8l-0.6,3.8c-0.1,0.5-0.1,0.9-0.2,1.3c-0.1,0.4-0.1,0.8-0.1,1.3c0,2.2,0.6,3.8,1.9,4.7s3.3,1.3,5.9,1.3
			h7.6c5.3,0,9.3,1.2,11.9,3.5c2.6,2.3,3.9,5.5,3.9,9.6c0,1.1-0.1,2.4-0.3,3.7l-0.9,6.3c-0.6,4-1.9,7.1-3.8,9.5
			c-1.9,2.4-4.6,4-7.9,5.1C173.8,140.5,169.8,141,165.1,141z" />
      <path id="XMLID_4_" class="st0" d="M195.9,140.4l11.2-70.8h9.3l-4.2,26.5c2.3-1.7,5.1-3.1,8.3-4.3c3.2-1.2,6.7-1.8,10.6-1.8
			c4,0,7.1,1,9.2,3c2.1,2,3.2,5,3.2,9.2c0,1.5-0.1,3.2-0.4,5.1l-5.3,33h-9.3l5-31.8c0.1-0.6,0.1-1.1,0.1-1.5c0-0.5,0-0.9,0-1.4
			c0-2.7-0.7-4.5-2.1-5.6c-1.4-1.1-3.3-1.6-5.7-1.6c-2.9,0-5.5,0.4-7.8,1.3c-2.3,0.8-4.7,2.1-7.1,3.7l-5.9,37H195.9z" />
      <path id="XMLID_6_" class="st0" d="M270.1,141c-3.9,0-7.3-0.6-10.1-1.8c-2.8-1.2-5-3-6.4-5.5c-1.5-2.5-2.2-5.7-2.2-9.7
			c0-1.6,0.1-3.2,0.2-4.6c0.1-1.5,0.3-3,0.6-4.5c0.8-4.9,1.9-9,3.2-12.2c1.4-3.2,3.1-5.7,5.1-7.5c2-1.8,4.5-3.1,7.4-3.8
			c2.9-0.7,6.3-1.1,10.3-1.1c4.8,0,8.5,0.6,11.2,1.9c2.7,1.3,4.6,3.3,5.7,5.9c1.1,2.6,1.6,5.9,1.6,9.8c0,1.5-0.1,3.1-0.2,4.7
			c-0.2,1.7-0.4,3.4-0.6,5.2c-0.9,6.1-2.4,10.8-4.5,14.1c-2.1,3.4-4.8,5.7-8.3,7C279.6,140.3,275.3,141,270.1,141z M271.1,133.4
			c2.3,0,4.3-0.2,5.9-0.7c1.7-0.5,3.1-1.3,4.3-2.5c1.2-1.2,2.2-2.9,3-5.2c0.8-2.3,1.6-5.1,2.2-8.7c0.2-1.7,0.4-3.3,0.6-4.8
			c0.2-1.5,0.2-2.8,0.2-4c0-3.6-0.8-6.1-2.5-7.6c-1.6-1.5-4.4-2.2-8.2-2.2c-2.4,0-4.4,0.3-6,0.8c-1.7,0.6-3.1,1.5-4.3,2.8
			c-1.2,1.3-2.2,3.2-3,5.7c-0.8,2.4-1.5,5.6-2.1,9.3c-0.2,1.4-0.4,2.7-0.5,3.9s-0.1,2.3-0.1,3.4c0,2.7,0.4,4.7,1.3,6.1
			c0.9,1.4,2.1,2.4,3.7,2.9C267.1,133.1,269,133.4,271.1,133.4z" />
      <path id="XMLID_9_" class="st0" d="M298.9,162.4L310,92.1c3.4-0.6,7-1,10.8-1.3c3.8-0.3,7.9-0.5,12.5-0.5c5.5,0,9.6,1.4,12.2,4.3
			c2.6,2.8,3.9,7.2,3.9,13c0,1.5-0.1,3.2-0.2,4.8c-0.2,1.7-0.4,3.3-0.7,4.8c-0.8,5.1-2.2,9.5-4.1,13c-1.9,3.5-4.5,6.2-7.7,8.1
			c-3.2,1.9-6.9,2.8-11.3,2.8c-2.5,0-4.9-0.2-7.1-0.6c-2.2-0.4-4.3-1.1-6.2-2l-3.9,24H298.9z M324.4,133c3.1,0,5.6-0.6,7.6-1.9
			c2-1.3,3.6-3.3,4.8-5.9c1.2-2.6,2.1-5.9,2.7-9.9c0.1-0.9,0.3-1.9,0.4-3.1c0.2-1.1,0.2-2.2,0.2-3.2c0-3.7-0.7-6.5-2.2-8.3
			c-1.5-1.9-3.8-2.8-7.1-2.8L318.4,98l-5.3,33.1c1.5,0.4,2.8,0.8,3.9,1.1c1.1,0.3,2.2,0.5,3.4,0.6C321.5,133,322.9,133,324.4,133z" />
      <path id="XMLID_12_" class="st0" d="M355,140.4l7.8-49.6h9.4l-7.9,49.6H355z M365.4,82.5c-0.4,0-0.8-0.2-1.1-0.5
			c-0.3-0.3-0.4-0.7-0.2-1.1l1.2-7.8c0.2-1.1,0.8-1.7,1.9-1.7h7c0.5,0,0.8,0.2,1,0.5c0.2,0.3,0.2,0.7,0.2,1.2l-1.2,7.8
			c-0.2,1.1-0.8,1.6-1.8,1.6H365.4z" />
    </g>
    <g id="XMLID_15_">
      <path id="XMLID_16_" class="st0" d="M396.5,141c-7.1,0-12.3-1.9-15.6-5.8c-3.3-3.8-5-9.3-5-16.3c0-2.2,0.1-4.6,0.4-7.1
			c0.3-2.5,0.6-4.9,1-7.2c1.1-7.2,2.8-13.2,5-18.1c2.2-4.9,5.2-8.6,9-11.2c3.8-2.5,8.5-3.8,14.1-3.8c4.9,0,9.2,0.4,12.6,1.1
			c3.5,0.7,6.3,1.4,8.6,2.1l-1.2,7.2c-2.8-0.6-5.8-1-9-1.4c-3.1-0.4-6.4-0.6-9.7-0.6c-2.8,0-5.3,0.4-7.5,1.3
			c-2.2,0.9-4.1,2.4-5.7,4.4c-1.6,2-3,4.8-4.1,8.2c-1.1,3.4-2.1,7.6-3,12.7c-0.3,2.2-0.6,4.4-0.8,6.6c-0.2,2.2-0.4,4.2-0.4,5.9
			c0,4.8,1,8.2,3.1,10.4c2,2.2,5.6,3.2,10.6,3.2c4.5,0,8-0.1,10.7-0.3s5.3-0.5,7.9-0.9l-1.2,7.2c-3,0.9-6.3,1.5-9.8,1.8
			C403.1,140.8,399.8,141,396.5,141z" />
      <path id="XMLID_18_" class="st0" d="M449.3,141c-2.7,0-5.4-0.1-8.2-0.3c-2.7-0.2-5.2-0.4-7.5-0.6c-2.3-0.2-4.3-0.6-5.9-0.9
			l1.1-7.2c2.7,0.2,5.9,0.4,9.6,0.6c3.7,0.1,7.4,0.2,11,0.2c2.8,0,5.3-0.2,7.4-0.7c2.1-0.5,3.8-1.4,5.1-2.8c1.3-1.4,2.1-3.3,2.5-5.8
			l0.6-3.8c0.1-0.5,0.1-0.9,0.1-1.3c0-0.4,0-0.8,0-1.2c0-2.2-0.7-3.8-2.1-4.9c-1.4-1-3.7-1.5-7-1.5h-7.4c-4.8,0-8.4-1.1-11-3.3
			c-2.6-2.2-3.8-5.3-3.8-9.4c0-1.2,0.1-2.4,0.3-3.7l0.9-5.8c0.7-4.5,2-7.9,4-10.3c2-2.4,4.6-4.2,7.7-5.1c3.2-1,6.8-1.5,10.9-1.5
			c1.3,0,2.8,0,4.5,0.1c1.7,0.1,3.5,0.2,5.4,0.4c1.9,0.2,3.7,0.4,5.5,0.6c1.8,0.2,3.4,0.5,4.9,0.8l-1.1,7.2
			c-2.1-0.2-4.4-0.3-6.9-0.4c-2.5-0.1-4.9-0.2-7.3-0.2c-2.4-0.1-4.4-0.1-6.1-0.1c-2.5,0-4.6,0.2-6.4,0.7c-1.8,0.5-3.2,1.4-4.3,2.8
			c-1.1,1.4-1.8,3.3-2.3,5.8l-0.6,3.8c-0.1,0.5-0.1,0.9-0.2,1.3c-0.1,0.4-0.1,0.8-0.1,1.3c0,2.2,0.6,3.8,1.9,4.7s3.3,1.3,5.9,1.3
			h7.6c5.3,0,9.3,1.2,11.9,3.5c2.6,2.3,3.9,5.5,3.9,9.6c0,1.1-0.1,2.4-0.3,3.7l-0.9,6.3c-0.6,4-1.9,7.1-3.8,9.5
			c-1.9,2.4-4.6,4-7.9,5.1C458,140.5,454,141,449.3,141z" />
      <path id="XMLID_20_" class="st0" d="M498.7,140.4L487,72.1h9.6l9.6,58.3l28.8-58.3h9.6l-34,68.4H498.7z" />
    </g>
  </g>
  <g id="XMLID_292_">
    <path id="XMLID_293_" class="st1" d="M80.5,38.1c0.7-7.3-2.7-21.6-12.2-21.5l-0.5,0C58.3,16.8,54.5,31.1,55,38.4" />
    <rect id="XMLID_294_" x="21" y="30" class="st2" width="93" height="86" />
    <rect id="XMLID_295_" x="12" y="51" class="st3" width="111" height="122" />
    <polygon id="XMLID_296_" class="st4" points="33,51 13.1,51 33,38.2 	" />
    <polygon id="XMLID_297_" class="st3" points="21,29.9 33,38.2 21,46 	" />
    <polygon id="XMLID_298_" class="st3" points="114,29.9 102,38.2 114,46 	" />
    <polygon id="XMLID_299_" class="st4" points="102,51 122.5,51 102,38.2 	" />
    <circle id="XMLID_300_" class="st4" cx="48.7" cy="67.8" r="5.4" />
    <circle id="XMLID_301_" class="st4" cx="86.2" cy="67.8" r="5.4" />
    <path id="XMLID_302_" class="st1" d="M85.7,68c1.6-10.7-2.6-31.9-16.6-32l-0.8,0c-14-0.2-20.6,20.8-20.2,31.6" />
    <g id="XMLID_303_">
      <g id="XMLID_304_">
        <path id="XMLID_305_" class="st5" d="M72,116.4c-2.2,0.3-4.2,0.5-6,0.5c-4.3,0-8-1.7-11.3-5c-3.2-3.3-4.9-7.9-4.9-13.9
				c0-6.6,1.8-11.9,5.3-15.8c3.5-3.9,7.4-5.9,11.7-5.9c4.6,0,8.8,2.1,12.6,6.3c3.7,4.2,5.6,10,5.6,17.5c0,16-6.4,32.2-19.1,48.4
				c-6.6,8.3-11,12.5-13.2,12.5l-1.8-1.8c0-0.5,0.9-1.9,2.7-4.1c7-7.7,11.7-14.2,14.1-19.5C70.2,130.4,71.6,123.9,72,116.4z" />
      </g>
      <g id="XMLID_307_">
        <polygon id="XMLID_308_" class="st3" points="74.1,94.5 63.2,101.1 60.7,84.7 			" />
        <polygon id="XMLID_309_" class="st3" points="76.5,106.2 72.4,108.7 67.2,98.7 69.9,97 			" />
      </g>
    </g>
  </g>
</svg>