<?xml version="1.0" encoding="utf-8"?>
<!-- Generator: Adobe Illustrator 19.0.0, SVG Export Plug-In . SVG Version: 6.00 Build 0)  -->
<svg version="1.1" id="Calque_1" xmlns="http://www.w3.org/2000/svg" xmlns:xlink="http://www.w3.org/1999/xlink" x="0px" y="0px"
	 viewBox="0 0 182.9 50.4" style="enable-background:new 0 0 182.9 50.4;" xml:space="preserve">
<style type="text/css">
	.st0{fill:#FFFFFF;}
	.st1{opacity:0.81;fill:none;stroke:#364B44;stroke-width:1.5;stroke-miterlimit:10;}
	.st2{opacity:0.84;fill:#FFFFFF;}
	.st3{opacity:0.7;fill:#037252;}
	.st4{opacity:0.46;fill:#178B6E;}
	.st5{fill:#178B6E;}
	.st6{fill:#037252;}
</style>
<g id="XMLID_126_">
	<g id="XMLID_442_">
		<g id="XMLID_283_">
			<g id="XMLID_291_">
				<path id="XMLID_303_" class="st0" d="M49.6,39.2c-0.9,0-1.8,0-2.7-0.1C46,39,45.2,39,44.4,38.9c-0.8-0.1-1.4-0.2-2-0.3l0.4-2.4
					c0.9,0.1,2,0.1,3.2,0.2c1.3,0,2.5,0.1,3.7,0.1c1,0,1.8-0.1,2.5-0.2c0.7-0.2,1.3-0.5,1.7-0.9c0.4-0.5,0.7-1.1,0.8-1.9l0.2-1.3
					c0-0.2,0-0.3,0-0.4c0-0.1,0-0.3,0-0.4c0-0.7-0.2-1.3-0.7-1.6c-0.5-0.3-1.3-0.5-2.3-0.5h-2.5c-1.6,0-2.8-0.4-3.7-1.1
					c-0.9-0.7-1.3-1.8-1.3-3.1c0-0.4,0-0.8,0.1-1.2l0.3-1.9c0.2-1.5,0.7-2.6,1.3-3.5c0.7-0.8,1.5-1.4,2.6-1.7
					c1.1-0.3,2.3-0.5,3.6-0.5c0.4,0,0.9,0,1.5,0c0.6,0,1.2,0.1,1.8,0.1s1.2,0.1,1.8,0.2c0.6,0.1,1.1,0.2,1.6,0.3l-0.4,2.4
					c-0.7-0.1-1.5-0.1-2.3-0.1c-0.8,0-1.6-0.1-2.4-0.1c-0.8,0-1.5,0-2,0c-0.8,0-1.5,0.1-2.1,0.2c-0.6,0.2-1.1,0.5-1.4,0.9
					c-0.4,0.5-0.6,1.1-0.8,2l-0.2,1.3c0,0.2,0,0.3-0.1,0.4c0,0.1,0,0.3,0,0.4c0,0.7,0.2,1.3,0.7,1.6c0.4,0.3,1.1,0.5,2,0.5h2.5
					c1.8,0,3.1,0.4,4,1.2c0.9,0.8,1.3,1.8,1.3,3.2c0,0.4,0,0.8-0.1,1.2l-0.3,2.1c-0.2,1.3-0.6,2.4-1.3,3.2c-0.7,0.8-1.5,1.3-2.6,1.7
					C52.5,39,51.2,39.2,49.6,39.2z"/>
				<path id="XMLID_301_" class="st0" d="M59.9,39l3.8-23.7h3.1l-1.4,8.9c0.8-0.6,1.7-1,2.8-1.4c1.1-0.4,2.3-0.6,3.5-0.6
					c1.3,0,2.4,0.3,3.1,1c0.7,0.7,1.1,1.7,1.1,3.1c0,0.5,0,1.1-0.1,1.7L74,39h-3.1l1.7-10.6c0-0.2,0-0.4,0-0.5c0-0.2,0-0.3,0-0.5
					c0-0.9-0.2-1.5-0.7-1.9C71.4,25.2,70.8,25,70,25c-1,0-1.8,0.1-2.6,0.4c-0.8,0.3-1.6,0.7-2.4,1.2L63,39H59.9z"/>
				<path id="XMLID_298_" class="st0" d="M84.7,39.2c-1.3,0-2.4-0.2-3.4-0.6s-1.7-1-2.2-1.8s-0.7-1.9-0.7-3.3c0-0.5,0-1.1,0.1-1.6
					c0-0.5,0.1-1,0.2-1.5c0.3-1.7,0.6-3,1.1-4.1c0.5-1.1,1-1.9,1.7-2.5c0.7-0.6,1.5-1,2.5-1.3s2.1-0.4,3.4-0.4
					c1.6,0,2.8,0.2,3.8,0.7c0.9,0.4,1.5,1.1,1.9,2c0.4,0.9,0.5,2,0.5,3.3c0,0.5,0,1-0.1,1.6c-0.1,0.6-0.1,1.1-0.2,1.7
					c-0.3,2-0.8,3.6-1.5,4.7c-0.7,1.1-1.6,1.9-2.8,2.4C87.9,39,86.5,39.2,84.7,39.2z M85.1,36.7c0.8,0,1.4-0.1,2-0.2
					c0.6-0.2,1-0.4,1.4-0.8c0.4-0.4,0.7-1,1-1.7c0.3-0.8,0.5-1.7,0.7-2.9c0.1-0.6,0.1-1.1,0.2-1.6c0.1-0.5,0.1-0.9,0.1-1.3
					c0-1.2-0.3-2-0.8-2.5c-0.5-0.5-1.5-0.7-2.7-0.7c-0.8,0-1.5,0.1-2,0.3c-0.6,0.2-1,0.5-1.4,0.9s-0.7,1.1-1,1.9S82,29.7,81.8,31
					c-0.1,0.5-0.1,0.9-0.2,1.3c0,0.4,0,0.8,0,1.1c0,0.9,0.1,1.6,0.4,2c0.3,0.5,0.7,0.8,1.2,1C83.7,36.6,84.4,36.7,85.1,36.7z"/>
				<path id="XMLID_295_" class="st0" d="M94.4,46.4l3.7-23.5c1.1-0.2,2.3-0.3,3.6-0.4c1.3-0.1,2.7-0.2,4.2-0.2
					c1.8,0,3.2,0.5,4.1,1.4c0.9,1,1.3,2.4,1.3,4.3c0,0.5,0,1.1-0.1,1.6c-0.1,0.6-0.1,1.1-0.2,1.6c-0.3,1.7-0.7,3.2-1.4,4.3
					c-0.7,1.2-1.5,2.1-2.6,2.7c-1.1,0.6-2.3,0.9-3.8,0.9c-0.8,0-1.6-0.1-2.4-0.2c-0.7-0.1-1.4-0.4-2.1-0.7l-1.3,8H94.4z M102.9,36.5
					c1,0,1.9-0.2,2.5-0.7c0.7-0.4,1.2-1.1,1.6-2c0.4-0.9,0.7-2,0.9-3.3c0-0.3,0.1-0.7,0.1-1c0.1-0.4,0.1-0.7,0.1-1.1
					c0-1.2-0.2-2.2-0.7-2.8s-1.3-0.9-2.4-0.9l-4.2,0l-1.8,11.1c0.5,0.1,0.9,0.3,1.3,0.4s0.7,0.2,1.1,0.2
					C101.9,36.5,102.4,36.5,102.9,36.5z"/>
				<path id="XMLID_292_" class="st0" d="M113.1,39l2.6-16.6h3.1L116.2,39H113.1z M116.6,19.6c-0.1,0-0.3-0.1-0.4-0.2
					c-0.1-0.1-0.1-0.2-0.1-0.4l0.4-2.6c0.1-0.4,0.3-0.6,0.6-0.6h2.3c0.2,0,0.3,0.1,0.3,0.2c0.1,0.1,0.1,0.2,0.1,0.4l-0.4,2.6
					c-0.1,0.4-0.3,0.5-0.6,0.5H116.6z"/>
			</g>
			<g id="XMLID_284_">
				<path id="XMLID_289_" class="st0" d="M127,39.2c-2.4,0-4.1-0.6-5.2-1.9c-1.1-1.3-1.7-3.1-1.7-5.5c0-0.7,0-1.5,0.1-2.4
					s0.2-1.6,0.3-2.4c0.4-2.4,0.9-4.4,1.7-6.1c0.7-1.6,1.7-2.9,3-3.7c1.3-0.8,2.8-1.3,4.7-1.3c1.7,0,3.1,0.1,4.2,0.4
					c1.2,0.2,2.1,0.5,2.9,0.7l-0.4,2.4c-1-0.2-1.9-0.3-3-0.5c-1-0.1-2.1-0.2-3.2-0.2c-1,0-1.8,0.2-2.5,0.4c-0.7,0.3-1.4,0.8-1.9,1.5
					c-0.5,0.7-1,1.6-1.4,2.7c-0.4,1.1-0.7,2.6-1,4.2c-0.1,0.7-0.2,1.5-0.3,2.2c-0.1,0.7-0.1,1.4-0.1,2c0,1.6,0.3,2.7,1,3.5
					c0.7,0.7,1.9,1.1,3.5,1.1c1.5,0,2.7,0,3.6-0.1c0.9-0.1,1.8-0.2,2.7-0.3l-0.4,2.4c-1,0.3-2.1,0.5-3.3,0.6
					C129.2,39.1,128.1,39.2,127,39.2z"/>
				<path id="XMLID_287_" class="st0" d="M144.6,39.2c-0.9,0-1.8,0-2.7-0.1c-0.9-0.1-1.7-0.1-2.5-0.2c-0.8-0.1-1.4-0.2-2-0.3
					l0.4-2.4c0.9,0.1,2,0.1,3.2,0.2c1.3,0,2.5,0.1,3.7,0.1c0.9,0,1.8-0.1,2.5-0.2c0.7-0.2,1.3-0.5,1.7-0.9c0.4-0.5,0.7-1.1,0.8-1.9
					l0.2-1.3c0-0.2,0-0.3,0-0.5c0-0.1,0-0.3,0-0.4c0-0.7-0.2-1.3-0.7-1.6c-0.5-0.3-1.3-0.5-2.3-0.5h-2.5c-1.6,0-2.8-0.4-3.7-1.1
					c-0.9-0.7-1.3-1.8-1.3-3.1c0-0.4,0-0.8,0.1-1.2l0.3-1.9c0.2-1.5,0.7-2.6,1.3-3.5s1.5-1.4,2.6-1.7c1.1-0.3,2.3-0.5,3.6-0.5
					c0.4,0,0.9,0,1.5,0s1.2,0.1,1.8,0.1c0.6,0.1,1.2,0.1,1.8,0.2c0.6,0.1,1.1,0.2,1.6,0.3l-0.4,2.4c-0.7-0.1-1.5-0.1-2.3-0.1
					s-1.6-0.1-2.4-0.1c-0.8,0-1.5,0-2,0c-0.8,0-1.5,0.1-2.1,0.2c-0.6,0.2-1.1,0.5-1.4,0.9c-0.4,0.5-0.6,1.1-0.8,2l-0.2,1.3
					c0,0.2,0,0.3-0.1,0.5c0,0.1,0,0.3,0,0.4c0,0.7,0.2,1.3,0.7,1.6c0.4,0.3,1.1,0.4,2,0.4h2.5c1.8,0,3.1,0.4,4,1.2
					c0.9,0.8,1.3,1.8,1.3,3.2c0,0.4,0,0.8-0.1,1.2l-0.3,2.1c-0.2,1.3-0.6,2.4-1.3,3.2s-1.5,1.3-2.6,1.7S146.2,39.2,144.6,39.2z"/>
				<path id="XMLID_285_" class="st0" d="M161.1,39l-3.9-22.8h3.2l3.2,19.5l9.6-19.5h3.2L165.1,39H161.1z"/>
			</g>
		</g>
	</g>
	<g id="XMLID_414_">
		<path id="XMLID_441_" class="st1" d="M21.5,6.9C21.7,4.5,20.6,0,17.6,0l-0.2,0c-3,0-4.2,4.6-4.1,6.9"/>
		<rect id="XMLID_440_" x="2.3" y="4.4" class="st2" width="30" height="7"/>
		<rect id="XMLID_436_" x="0.3" y="11.4" class="st0" width="35" height="39"/>
		<polygon id="XMLID_435_" class="st3" points="6.3,11.4 0,11.4 6.3,6.9 		"/>
		<polygon id="XMLID_433_" class="st4" points="2.3,4.2 6.1,6.9 2.3,9.4 		"/>
		<polygon id="XMLID_430_" class="st4" points="32.3,4.2 28.4,6.9 32.3,9.4 		"/>
		<polygon id="XMLID_429_" class="st3" points="28.3,11.4 34.9,11.4 28.3,6.9 		"/>
		<path id="XMLID_424_" class="st1" d="M23.2,16.4c0.5-3.4-0.8-10.2-5.3-10.2l-0.2,0c-4.5,0-6.6,6.7-6.5,10.1"/>
		<g id="XMLID_415_">
			<g id="XMLID_419_">
				<path id="XMLID_420_" class="st5" d="M19.2,31.8c-0.7,0.1-1.3,0.2-1.9,0.2c-1.4,0-2.6-0.5-3.6-1.6c-1-1.1-1.5-2.5-1.5-4.4
					c0-2.1,0.6-3.8,1.7-5c1.1-1.2,2.4-1.9,3.7-1.9c1.5,0,2.8,0.7,4,2c1.2,1.3,1.8,3.2,1.8,5.6c0,5.1-2,10.3-6.1,15.5
					c-2.1,2.7-3.5,4-4.2,4l-0.6-0.6c0-0.2,0.3-0.6,0.9-1.3c2.2-2.4,3.7-4.5,4.5-6.2C18.7,36.3,19.1,34.3,19.2,31.8z"/>
			</g>
			<g id="XMLID_416_">
				<polygon id="XMLID_418_" class="st0" points="19.5,24.9 16,27 15.2,21.7 				"/>
				<polygon id="XMLID_417_" class="st0" points="20.3,28.6 18.9,29.4 17.3,26.2 18.1,25.7 				"/>
			</g>
		</g>
		<circle id="XMLID_426_" class="st6" cx="11.4" cy="16.3" r="1.7"/>
		<circle id="XMLID_425_" class="st6" cx="23.3" cy="16.3" r="1.7"/>
	</g>
</g>
</svg>
