<?xml version="1.0" encoding="utf-8"?>
<!-- Generator: Adobe Illustrator 19.0.0, SVG Export Plug-In . SVG Version: 6.00 Build 0)  -->
<svg version="1.1" id="Calque_1" xmlns="http://www.w3.org/2000/svg" xmlns:xlink="http://www.w3.org/1999/xlink" x="0px" y="0px" viewBox="0 0 556 184" style="enable-background:new 0 0 556 184;" xml:space="preserve">
  <style type="text/css">
	.st0{fill:#FFFFFF;}
	.st1{fill:none;stroke:#364B44;stroke-width:1.5;stroke-miterlimit:10;}
	.st2{fill:#008060;}
	.st3{fill:#178B6E;}
	.st4{fill:#037252;}
</style>
  <g id="XMLID_349_">
    <g id="XMLID_8_">
      <path id="XMLID_9_" class="st0" d="M165.8,135.3c-2.7,0-5.4-0.1-8.1-0.3c-2.7-0.2-5.2-0.4-7.4-0.6c-2.3-0.2-4.2-0.6-5.9-0.9
			l1.1-7.2c2.6,0.2,5.8,0.4,9.5,0.6c3.7,0.1,7.3,0.2,10.9,0.2c2.8,0,5.3-0.2,7.4-0.7c2.1-0.5,3.8-1.4,5-2.8c1.3-1.3,2.1-3.2,2.4-5.7
			l0.6-3.8c0.1-0.5,0.1-0.9,0.1-1.3c0-0.4,0-0.8,0-1.1c0-2.2-0.7-3.8-2.1-4.8c-1.4-1-3.7-1.5-6.9-1.5h-7.4c-4.7,0-8.4-1.1-10.9-3.3
			c-2.5-2.2-3.8-5.3-3.8-9.3c0-1.2,0.1-2.4,0.3-3.7l0.9-5.7c0.7-4.4,2-7.8,4-10.3c2-2.4,4.6-4.1,7.7-5.1c3.1-1,6.7-1.5,10.8-1.5
			c1.3,0,2.8,0,4.5,0.1c1.7,0.1,3.5,0.2,5.4,0.4c1.9,0.2,3.7,0.4,5.5,0.6c1.8,0.2,3.4,0.5,4.9,0.8l-1.1,7.2
			c-2.1-0.2-4.4-0.3-6.8-0.4c-2.5-0.1-4.9-0.2-7.2-0.2c-2.4-0.1-4.4-0.1-6-0.1c-2.5,0-4.6,0.2-6.3,0.7c-1.8,0.5-3.2,1.4-4.3,2.8
			c-1.1,1.3-1.8,3.3-2.3,5.8l-0.6,3.8c-0.1,0.5-0.1,0.9-0.2,1.3c-0.1,0.4-0.1,0.8-0.1,1.2c0,2.2,0.6,3.8,1.9,4.6
			c1.3,0.9,3.2,1.3,5.9,1.3h7.5c5.3,0,9.2,1.1,11.8,3.4c2.6,2.3,3.9,5.5,3.9,9.5c0,1.1-0.1,2.3-0.3,3.7l-0.9,6.3
			c-0.6,3.9-1.9,7-3.8,9.4c-1.9,2.3-4.5,4-7.8,5C174.5,134.8,170.5,135.3,165.8,135.3z" />
      <path id="XMLID_11_" class="st0" d="M196.3,134.7l11.1-70.2h9.2l-4.1,26.3c2.3-1.7,5.1-3.1,8.3-4.2c3.2-1.2,6.7-1.7,10.5-1.7
			c4,0,7,1,9.1,2.9c2.1,2,3.2,5,3.2,9.1c0,1.5-0.1,3.2-0.4,5.1l-5.2,32.7h-9.2l5-31.5c0.1-0.6,0.1-1.1,0.1-1.5c0-0.5,0-0.9,0-1.4
			c0-2.6-0.7-4.5-2.1-5.5c-1.4-1-3.3-1.6-5.7-1.6c-2.9,0-5.5,0.4-7.7,1.2c-2.3,0.8-4.6,2-7.1,3.6l-5.9,36.7H196.3z" />
      <path id="XMLID_13_" class="st0" d="M269.9,135.3c-3.9,0-7.2-0.6-10-1.7c-2.8-1.2-4.9-3-6.4-5.4c-1.5-2.5-2.2-5.7-2.2-9.7
			c0-1.6,0.1-3.1,0.2-4.6c0.1-1.5,0.3-3,0.6-4.5c0.8-4.9,1.9-8.9,3.2-12.1c1.3-3.2,3-5.6,5.1-7.4c2-1.8,4.5-3,7.3-3.8
			s6.2-1.1,10.2-1.1c4.7,0,8.4,0.6,11.1,1.9c2.7,1.3,4.6,3.2,5.7,5.8c1.1,2.6,1.6,5.8,1.6,9.7c0,1.5-0.1,3-0.2,4.7
			c-0.2,1.7-0.4,3.4-0.6,5.1c-0.9,6-2.4,10.7-4.5,14c-2.1,3.3-4.8,5.7-8.2,7S275.1,135.3,269.9,135.3z M270.9,127.7
			c2.3,0,4.2-0.2,5.9-0.7s3.1-1.3,4.2-2.5c1.2-1.2,2.2-2.9,3-5.1c0.8-2.2,1.5-5.1,2.2-8.6c0.2-1.7,0.4-3.3,0.6-4.7
			c0.2-1.4,0.2-2.8,0.2-4c0-3.6-0.8-6.1-2.4-7.5c-1.6-1.5-4.3-2.2-8.1-2.2c-2.3,0-4.3,0.3-6,0.8s-3.1,1.5-4.2,2.8
			c-1.2,1.3-2.1,3.2-2.9,5.6c-0.8,2.4-1.5,5.5-2.1,9.2c-0.2,1.4-0.4,2.7-0.5,3.9c-0.1,1.2-0.1,2.3-0.1,3.4c0,2.6,0.4,4.6,1.3,6
			c0.9,1.4,2.1,2.3,3.6,2.9C267,127.5,268.8,127.7,270.9,127.7z" />
      <path id="XMLID_16_" class="st0" d="M298.5,156.5l11-69.7c3.4-0.6,6.9-1,10.7-1.3c3.7-0.3,7.9-0.5,12.4-0.5c5.5,0,9.5,1.4,12,4.2
			c2.6,2.8,3.9,7.1,3.9,12.9c0,1.5-0.1,3.1-0.2,4.8c-0.2,1.7-0.4,3.3-0.7,4.8c-0.8,5.1-2.2,9.4-4.1,12.9c-1.9,3.5-4.5,6.2-7.6,8
			c-3.1,1.8-6.9,2.8-11.2,2.8c-2.5,0-4.9-0.2-7-0.6c-2.2-0.4-4.2-1.1-6.1-2l-3.9,23.8H298.5z M323.8,127.4c3.1,0,5.6-0.6,7.5-1.9
			c2-1.3,3.5-3.2,4.7-5.8c1.2-2.6,2.1-5.9,2.7-9.8c0.1-0.9,0.3-1.9,0.4-3c0.2-1.1,0.2-2.2,0.2-3.2c0-3.7-0.7-6.4-2.2-8.3
			c-1.4-1.8-3.8-2.8-7-2.8l-12.4,0.1l-5.2,32.8c1.5,0.4,2.8,0.8,3.9,1.1c1.1,0.3,2.2,0.5,3.4,0.6
			C320.9,127.3,322.3,127.4,323.8,127.4z" />
      <path id="XMLID_19_" class="st0" d="M354.1,134.7l7.7-49.2h9.3l-7.8,49.2H354.1z M364.4,77.2c-0.4,0-0.8-0.2-1.1-0.5
			c-0.3-0.3-0.4-0.7-0.2-1.1l1.2-7.7c0.2-1.1,0.8-1.7,1.8-1.7h6.9c0.5,0,0.8,0.2,1,0.5c0.2,0.3,0.2,0.7,0.2,1.2l-1.2,7.7
			c-0.2,1-0.8,1.6-1.7,1.6H364.4z" />
    </g>
    <g id="XMLID_1_">
      <path id="XMLID_2_" class="st0" d="M395.3,135.3c-7,0-12.2-1.9-15.5-5.7c-3.3-3.8-4.9-9.2-4.9-16.2c0-2.2,0.1-4.6,0.4-7
			c0.3-2.5,0.6-4.9,1-7.1c1.1-7.1,2.8-13.1,5-18c2.2-4.9,5.2-8.6,8.9-11.1c3.7-2.5,8.4-3.8,14-3.8c4.9,0,9.1,0.4,12.5,1.1
			c3.4,0.7,6.3,1.4,8.6,2.1l-1.2,7.2c-2.8-0.6-5.8-1-8.9-1.4c-3.1-0.4-6.3-0.6-9.6-0.6c-2.8,0-5.3,0.4-7.4,1.3
			c-2.1,0.9-4,2.3-5.6,4.4c-1.6,2-3,4.7-4.1,8.1c-1.1,3.4-2.1,7.6-3,12.6c-0.3,2.1-0.6,4.3-0.8,6.5c-0.2,2.2-0.4,4.2-0.4,5.9
			c0,4.7,1,8.2,3,10.3c2,2.1,5.5,3.2,10.5,3.2c4.4,0,8-0.1,10.6-0.3c2.7-0.2,5.3-0.5,7.9-0.9L415,133c-3,0.9-6.2,1.5-9.7,1.8
			C401.8,135.1,398.5,135.3,395.3,135.3z" />
      <path id="XMLID_4_" class="st0" d="M447.6,135.3c-2.7,0-5.4-0.1-8.1-0.3c-2.7-0.2-5.2-0.4-7.4-0.6c-2.3-0.2-4.2-0.6-5.9-0.9
			l1.1-7.2c2.6,0.2,5.8,0.4,9.5,0.6c3.7,0.1,7.3,0.2,10.9,0.2c2.8,0,5.3-0.2,7.4-0.7c2.1-0.5,3.8-1.4,5-2.8c1.3-1.3,2.1-3.2,2.4-5.7
			l0.6-3.8c0.1-0.5,0.1-0.9,0.1-1.3c0-0.4,0-0.8,0-1.1c0-2.2-0.7-3.8-2.1-4.8c-1.4-1-3.7-1.5-6.9-1.5H447c-4.7,0-8.4-1.1-10.9-3.3
			c-2.5-2.2-3.8-5.3-3.8-9.3c0-1.2,0.1-2.4,0.3-3.7l0.9-5.7c0.7-4.4,2-7.8,4-10.3c2-2.4,4.6-4.1,7.7-5.1c3.1-1,6.7-1.5,10.8-1.5
			c1.3,0,2.8,0,4.5,0.1c1.7,0.1,3.5,0.2,5.4,0.4c1.9,0.2,3.7,0.4,5.5,0.6c1.8,0.2,3.4,0.5,4.9,0.8l-1.1,7.2
			c-2.1-0.2-4.4-0.3-6.8-0.4c-2.5-0.1-4.9-0.2-7.2-0.2c-2.4-0.1-4.4-0.1-6-0.1c-2.5,0-4.6,0.2-6.3,0.7c-1.8,0.5-3.2,1.4-4.3,2.8
			c-1.1,1.3-1.8,3.3-2.3,5.8l-0.6,3.8c-0.1,0.5-0.1,0.9-0.2,1.3c-0.1,0.4-0.1,0.8-0.1,1.2c0,2.2,0.6,3.8,1.9,4.6
			c1.3,0.9,3.2,1.3,5.9,1.3h7.5c5.3,0,9.2,1.1,11.8,3.4c2.6,2.3,3.9,5.5,3.9,9.5c0,1.1-0.1,2.3-0.3,3.7l-0.9,6.3
			c-0.6,3.9-1.9,7-3.8,9.4c-1.9,2.3-4.5,4-7.8,5C456.2,134.8,452.3,135.3,447.6,135.3z" />
      <path id="XMLID_6_" class="st0" d="M496.5,134.7l-11.6-67.8h9.6l9.5,57.7l28.5-57.7h9.5l-33.7,67.8H496.5z" />
    </g>
  </g>
  <g id="XMLID_355_">
    <path id="XMLID_356_" class="st1" d="M82,33.3C82.7,26,79.3,11.9,69.9,12l-0.5,0C60,12.1,56.2,26.3,56.8,33.6" />
    <rect id="XMLID_357_" x="22" y="26" class="st2" width="93" height="85" />
    <rect id="XMLID_358_" x="14" y="46" class="st3" width="109" height="121" />
    <polygon id="XMLID_359_" class="st4" points="34,46 15.2,46 34,33.4 	" />
    <polygon id="XMLID_360_" class="st3" points="22,25.1 33.9,33.4 22,41.1 	" />
    <polygon id="XMLID_361_" class="st3" points="115,25.1 103.1,33.4 115,41.1 	" />
    <polygon id="XMLID_362_" class="st4" points="103,46 123.6,46 103,33.4 	" />
    <circle id="XMLID_363_" class="st4" cx="50.5" cy="62.7" r="5.3" />
    <circle id="XMLID_364_" class="st4" cx="87.7" cy="62.7" r="5.3" />
    <path id="XMLID_365_" class="st1" d="M87.1,62.9c1.5-10.6-2.6-31.6-16.5-31.8l-0.8,0C56,31,49.5,51.8,49.8,62.4" />
    <g id="XMLID_366_">
      <g id="XMLID_367_">
        <path id="XMLID_368_" class="st0" d="M73.6,110.9c-2.2,0.3-4.2,0.5-6,0.5c-4.2,0-8-1.6-11.2-4.9c-3.2-3.3-4.8-7.9-4.8-13.7
				c0-6.5,1.8-11.7,5.3-15.6c3.5-3.9,7.4-5.8,11.6-5.8c4.6,0,8.7,2.1,12.4,6.2c3.7,4.1,5.5,9.9,5.5,17.3c0,15.9-6.3,31.9-18.9,48
				c-6.5,8.3-10.9,12.4-13.1,12.4l-1.8-1.8c0-0.5,0.9-1.9,2.7-4.1c6.9-7.6,11.6-14,14-19.3C71.8,124.7,73.2,118.4,73.6,110.9z" />
      </g>
      <g id="XMLID_370_">
        <polygon id="XMLID_371_" class="st3" points="75.6,89.2 64.8,95.7 62.4,79.4 			" />
        <polygon id="XMLID_372_" class="st3" points="78.1,100.7 73.9,103.3 68.8,93.3 71.5,91.7 			" />
      </g>
    </g>
  </g>
</svg>