<?xml version="1.0" encoding="utf-8"?>
<!-- Generator: Adobe Illustrator 19.0.0, SVG Export Plug-In . SVG Version: 6.00 Build 0)  -->
<svg version="1.1" id="Calque_1" xmlns="http://www.w3.org/2000/svg" xmlns:xlink="http://www.w3.org/1999/xlink" x="0px" y="0px" viewBox="0 0 800 534" style="enable-background:new 0 0 800 534;" xml:space="preserve">
  <style type="text/css">
	.st0{fill:#202123;}
	.st1{opacity:0.25;fill:#178B6E;}
	.st2{opacity:0.25;fill:#3B3D3F;}
	.st3{fill:#3B3D3F;}
	.st4{fill:none;stroke:#E8E8E8;stroke-width:0.5;stroke-miterlimit:10;}
	.st5{fill:#E8E8E8;}
</style>
  <g id="XMLID_4_"></g>
  <path id="XMLID_1233_" class="st0" d="M800,0v534H0V0c20,0,6.3,0,14.6,0H800z" />
  <path id="XMLID_1232_" class="st1" d="M800,0v51H0V0c20.3,0,6.3,0,14.6,0h770C792.8,0,773.5,0,800,0z" />
  <path id="XMLID_1230_" class="st2" d="M203,112H20.1c-2.8,0-5-2.2-5-5V78c0-2.8,2.2-5,5-5H207c2.8,0,5,2.2,5,5v25
	C212,108,208,112,203,112z" />
  <path id="XMLID_1229_" class="st2" d="M95.6,176.5H20.1c-2.8,0-5-2.2-5-5v-29c0-2.8,2.2-5,5-5h75.5c2.8,0,5,2.2,5,5v29
	C100.6,174.2,98.4,176.5,95.6,176.5z" />
  <path id="XMLID_1228_" class="st2" d="M95.6,220.5H20.1c-2.8,0-5-2.2-5-5v-29c0-2.8,2.2-5,5-5h75.5c2.8,0,5,2.2,5,5v29
	C100.6,218.2,98.4,220.5,95.6,220.5z" />
  <path id="XMLID_1227_" class="st2" d="M451.1,112h-71.5c-2.8,0-5-2.2-5-5V78c0-2.8,2.2-5,5-5h75.5c2.8,0,5,2.2,5,5v25
	C460.1,108,456,112,451.1,112z" />
  <path id="XMLID_1226_" class="st2" d="M95.6,264.5H20.1c-2.8,0-5-2.2-5-5v-29c0-2.8,2.2-5,5-5h75.5c2.8,0,5,2.2,5,5v29
	C100.6,262.2,98.4,264.5,95.6,264.5z" />
  <path id="XMLID_1225_" class="st2" d="M95.6,352.5H20.1c-2.8,0-5-2.2-5-5v-29c0-2.8,2.2-5,5-5h75.5c2.8,0,5,2.2,5,5v29
	C100.6,350.2,98.4,352.5,95.6,352.5z" />
  <path id="XMLID_1224_" class="st2" d="M95.6,308.5H20.1c-2.8,0-5-2.2-5-5v-29c0-2.8,2.2-5,5-5h75.5c2.8,0,5,2.2,5,5v29
	C100.6,306.2,98.4,308.5,95.6,308.5z" />
  <path id="XMLID_1223_" class="st2" d="M425.6,176.5h-308c-2.8,0-5-2.2-5-5v-29c0-2.8,2.2-5,5-5h308c2.8,0,5,2.2,5,5v29
	C430.6,174.2,428.3,176.5,425.6,176.5z" />
  <path id="XMLID_1222_" class="st2" d="M425.6,220.5h-308c-2.8,0-5-2.2-5-5v-29c0-2.8,2.2-5,5-5h308c2.8,0,5,2.2,5,5v29
	C430.6,218.2,428.3,220.5,425.6,220.5z" />
  <path id="XMLID_1221_" class="st2" d="M425.6,264.5h-308c-2.8,0-5-2.2-5-5v-29c0-2.8,2.2-5,5-5h308c2.8,0,5,2.2,5,5v29
	C430.6,262.2,428.3,264.5,425.6,264.5z" />
  <path id="XMLID_1220_" class="st2" d="M425.6,352.5h-308c-2.8,0-5-2.2-5-5v-29c0-2.8,2.2-5,5-5h308c2.8,0,5,2.2,5,5v29
	C430.6,350.2,428.3,352.5,425.6,352.5z" />
  <path id="XMLID_1219_" class="st2" d="M425.6,308.5h-308c-2.8,0-5-2.2-5-5v-29c0-2.8,2.2-5,5-5h308c2.8,0,5,2.2,5,5v29
	C430.6,306.2,428.3,308.5,425.6,308.5z" />
  <path id="XMLID_1218_" class="st2" d="M763.8,176.5h-308c-2.8,0-5-2.2-5-5v-29c0-2.8,2.2-5,5-5h308c2.8,0,5,2.2,5,5v29
	C768.8,174.2,766.6,176.5,763.8,176.5z" />
  <path id="XMLID_1217_" class="st2" d="M763.8,220.5h-308c-2.8,0-5-2.2-5-5v-29c0-2.8,2.2-5,5-5h308c2.8,0,5,2.2,5,5v29
	C768.8,218.2,766.6,220.5,763.8,220.5z" />
  <path id="XMLID_1216_" class="st2" d="M763.8,264.5h-308c-2.8,0-5-2.2-5-5v-29c0-2.8,2.2-5,5-5h308c2.8,0,5,2.2,5,5v29
	C768.8,262.2,766.6,264.5,763.8,264.5z" />
  <path id="XMLID_1215_" class="st2" d="M763.8,352.5h-308c-2.8,0-5-2.2-5-5v-29c0-2.8,2.2-5,5-5h308c2.8,0,5,2.2,5,5v29
	C768.8,350.2,766.6,352.5,763.8,352.5z" />
  <path id="XMLID_1214_" class="st2" d="M763.8,308.5h-308c-2.8,0-5-2.2-5-5v-29c0-2.8,2.2-5,5-5h308c2.8,0,5,2.2,5,5v29
	C768.8,306.2,766.6,308.5,763.8,308.5z" />
  <path id="XMLID_1213_" class="st2" d="M95.6,441H20.1c-2.8,0-5-2.2-5-5v-29c0-2.8,2.2-5,5-5h75.5c2.8,0,5,2.2,5,5v29
	C100.6,438.7,98.4,441,95.6,441z" />
  <path id="XMLID_1212_" class="st2" d="M95.6,397H20.1c-2.8,0-5-2.2-5-5v-29c0-2.8,2.2-5,5-5h75.5c2.8,0,5,2.2,5,5v29
	C100.6,394.7,98.4,397,95.6,397z" />
  <path id="XMLID_1211_" class="st2" d="M425.6,441h-308c-2.8,0-5-2.2-5-5v-29c0-2.8,2.2-5,5-5h308c2.8,0,5,2.2,5,5v29
	C430.6,438.7,428.3,441,425.6,441z" />
  <path id="XMLID_1210_" class="st2" d="M425.6,397h-308c-2.8,0-5-2.2-5-5v-29c0-2.8,2.2-5,5-5h308c2.8,0,5,2.2,5,5v29
	C430.6,394.7,428.3,397,425.6,397z" />
  <path id="XMLID_1209_" class="st2" d="M763.8,441h-308c-2.8,0-5-2.2-5-5v-29c0-2.8,2.2-5,5-5h308c2.8,0,5,2.2,5,5v29
	C768.8,438.7,766.6,441,763.8,441z" />
  <path id="XMLID_1208_" class="st2" d="M763.8,397h-308c-2.8,0-5-2.2-5-5v-29c0-2.8,2.2-5,5-5h308c2.8,0,5,2.2,5,5v29
	C768.8,394.7,766.6,397,763.8,397z" />
  <path id="XMLID_1206_" class="st2" d="M355.6,112H227c-2.8,0-5-2.2-5-5V78c0-2.8,2.2-5,5-5h132.6c2.8,0,5,2.2,5,5v25
	C364.6,108,360.6,112,355.6,112z" />
  <path id="XMLID_1205_" class="st2" d="M759.8,112H631.2c-2.8,0-5-2.2-5-5V78c0-2.8,2.2-5,5-5h132.6c2.8,0,5,2.2,5,5v25
	C768.8,108,764.8,112,759.8,112z" />
  <path id="XMLID_1304_" class="st2" d="M-704.4,178.5h-75.5c-2.8,0-5-2.2-5-5v-29c0-2.8,2.2-5,5-5h75.5c2.8,0,5,2.2,5,5v29
	C-699.4,176.2-701.6,178.5-704.4,178.5z" />
  <path id="XMLID_1303_" class="st2" d="M-704.4,222.5h-75.5c-2.8,0-5-2.2-5-5v-29c0-2.8,2.2-5,5-5h75.5c2.8,0,5,2.2,5,5v29
	C-699.4,220.2-701.6,222.5-704.4,222.5z" />
  <path id="XMLID_1301_" class="st2" d="M-704.4,266.5h-75.5c-2.8,0-5-2.2-5-5v-29c0-2.8,2.2-5,5-5h75.5c2.8,0,5,2.2,5,5v29
	C-699.4,264.2-701.6,266.5-704.4,266.5z" />
  <path id="XMLID_1300_" class="st2" d="M-704.4,354.5h-75.5c-2.8,0-5-2.2-5-5v-29c0-2.8,2.2-5,5-5h75.5c2.8,0,5,2.2,5,5v29
	C-699.4,352.2-701.6,354.5-704.4,354.5z" />
  <path id="XMLID_1299_" class="st2" d="M-704.4,310.5h-75.5c-2.8,0-5-2.2-5-5v-29c0-2.8,2.2-5,5-5h75.5c2.8,0,5,2.2,5,5v29
	C-699.4,308.2-701.6,310.5-704.4,310.5z" />
  <path id="XMLID_1288_" class="st2" d="M-704.4,443h-75.5c-2.8,0-5-2.2-5-5v-29c0-2.8,2.2-5,5-5h75.5c2.8,0,5,2.2,5,5v29
	C-699.4,440.7-701.6,443-704.4,443z" />
  <path id="XMLID_1287_" class="st2" d="M-704.4,399h-75.5c-2.8,0-5-2.2-5-5v-29c0-2.8,2.2-5,5-5h75.5c2.8,0,5,2.2,5,5v29
	C-699.4,396.7-701.6,399-704.4,399z" />
  <path id="XMLID_1282_" class="st2" d="M152.7,507.1H20.1c-2.8,0-5-2.2-5-5v-29c0-2.8,2.2-5,5-5h132.6c2.8,0,5,2.2,5,5v29
	C157.7,504.8,155.5,507.1,152.7,507.1z" />
  <g id="XMLID_1_">
    <path id="XMLID_1306_" class="st3" d="M763.8,507.1H582c-2.8,0-5-2.2-5-5v-29c0-2.8,2.2-5,5-5h181.8c2.8,0,5,2.2,5,5v29
		C768.8,504.8,766.6,507.1,763.8,507.1z" />
    <g id="XMLID_1249_">
      <path id="XMLID_1279_" class="st4" d="M628.5,500H590c-1.7,0-3-1.3-3-3v-20c0-1.7,1.3-3,3-3h38.5c1.7,0,3,1.3,3,3v20
			C631.5,498.7,630.1,500,628.5,500z" />
      <g id="XMLID_1250_">
        <g id="XMLID_1268_">
          <path id="XMLID_1277_" class="st5" d="M685.2,494.5h-1v-10.9l-3.3,1.2v-0.9l4.1-1.5h0.2V494.5z" />
          <path id="XMLID_1275_" class="st5" d="M690,495.5h-0.9l5-13.1h0.9L690,495.5z" />
          <path id="XMLID_1273_" class="st5" d="M701.3,494.5h-1v-10.9l-3.3,1.2v-0.9l4.1-1.5h0.2V494.5z" />
          <path id="XMLID_1271_" class="st5" d="M713.7,494.5h-7.6v-0.8l4.1-4.7c0.7-0.8,1.2-1.4,1.4-2s0.4-1,0.4-1.5
					c0-0.8-0.2-1.4-0.7-1.8c-0.4-0.4-1.1-0.7-1.9-0.7c-0.8,0-1.5,0.3-2,0.8c-0.5,0.5-0.8,1.2-0.8,2h-1c0-0.7,0.2-1.3,0.5-1.9
					c0.3-0.6,0.7-1,1.3-1.3c0.6-0.3,1.2-0.5,1.9-0.5c1.1,0,2,0.3,2.6,0.9c0.6,0.6,0.9,1.4,0.9,2.4c0,0.6-0.2,1.2-0.5,1.9
					s-1,1.5-1.9,2.5l-3.4,3.8h6.3V494.5z" />
          <path id="XMLID_1269_" class="st5" d="M717.8,487.9h1c0.6,0,1.1-0.1,1.5-0.3s0.8-0.5,1-0.8c0.2-0.4,0.3-0.8,0.3-1.2
					c0-0.8-0.2-1.4-0.7-1.8c-0.4-0.4-1.1-0.7-1.9-0.7c-0.8,0-1.4,0.2-1.9,0.7c-0.5,0.5-0.7,1.1-0.7,1.8h-1c0-0.6,0.2-1.2,0.5-1.7
					c0.3-0.5,0.8-0.9,1.3-1.2c0.6-0.3,1.2-0.4,1.9-0.4c1.1,0,2,0.3,2.6,0.9s0.9,1.4,0.9,2.5c0,0.6-0.2,1.1-0.6,1.6
					c-0.4,0.5-0.9,0.9-1.5,1.1c0.8,0.2,1.3,0.6,1.7,1.1c0.4,0.5,0.6,1.1,0.6,1.8c0,1-0.3,1.9-1,2.5c-0.7,0.6-1.6,0.9-2.7,0.9
					c-0.7,0-1.4-0.1-2-0.4c-0.6-0.3-1.1-0.7-1.4-1.2c-0.3-0.5-0.5-1.1-0.5-1.8h1c0,0.8,0.3,1.4,0.8,1.9s1.2,0.7,2.1,0.7
					c0.9,0,1.5-0.2,2-0.7c0.5-0.4,0.7-1.1,0.7-1.9c0-0.8-0.3-1.4-0.8-1.9s-1.3-0.6-2.3-0.6h-1V487.9z" />
        </g>
        <g id="XMLID_1261_">
          <g id="XMLID_1265_">
            <path id="XMLID_1266_" class="st5" d="M625,493.6l0,0.1l0.1-0.1l2.7-4.4h0.8l-3.2,5h-0.7l-3.2-5h0.8L625,493.6z" />
          </g>
          <g id="XMLID_1262_">
            <path id="XMLID_1263_" class="st5" d="M622.3,484.8h-0.8l3.2-5h0.7l3.2,5h-0.8l-2.7-4.4l-0.1-0.1l0,0.1L622.3,484.8z" />
          </g>
        </g>
        <g id="XMLID_1256_">
          <path id="XMLID_1260_" class="st4" d="M669,500h-20c-1.7,0-3-1.3-3-3v-20c0-1.7,1.3-3,3-3h20c1.7,0,3,1.3,3,3v20
					C672,498.7,670.6,500,669,500z" />
          <g id="XMLID_1257_">
            <path id="XMLID_1258_" class="st5" d="M662.6,491.1v1.2l-7.3-4.8v-1l7.3-4.8v1.2l-6.4,4l-0.2,0.1l0.2,0.1L662.6,491.1z" />
          </g>
        </g>
        <g id="XMLID_1251_">
          <path id="XMLID_1255_" class="st4" d="M755.9,500h-20c-1.7,0-3-1.3-3-3v-20c0-1.7,1.3-3,3-3h20c1.7,0,3,1.3,3,3v20
					C758.9,498.7,757.5,500,755.9,500z" />
          <g id="XMLID_1252_">
            <path id="XMLID_1253_" class="st5" d="M748.6,487.1l0.2-0.1l-0.2-0.1l-6.4-4v-1.2l7.3,4.8v1l-7.3,4.8v-1.2L748.6,487.1z" />
          </g>
        </g>
      </g>
    </g>
  </g>
  <g id="XMLID_1244_">
    <path id="XMLID_1247_" class="st5" d="M593.8,463.3h-2.3v-15.1l-4.6,1.7v-2.1l6.5-2.4h0.4V463.3z" />
    <path id="XMLID_1245_" class="st5" d="M600.7,462.1c0-0.4,0.1-0.7,0.3-1c0.2-0.3,0.6-0.4,1-0.4s0.8,0.1,1.1,0.4
		c0.2,0.3,0.4,0.6,0.4,1c0,0.4-0.1,0.7-0.4,0.9c-0.2,0.3-0.6,0.4-1.1,0.4s-0.8-0.1-1-0.4C600.8,462.8,600.7,462.5,600.7,462.1z" />
  </g>
  <g id="XMLID_1239_">
    <path id="XMLID_1242_" class="st5" d="M662.2,463.3h-11.6v-1.6l6.2-6.8c0.9-1,1.5-1.9,1.9-2.5c0.3-0.6,0.5-1.3,0.5-2
		c0-0.9-0.3-1.7-0.8-2.3c-0.6-0.6-1.3-0.9-2.2-0.9c-1.1,0-2,0.3-2.6,1c-0.6,0.6-0.9,1.5-0.9,2.7h-2.3c0-1.6,0.5-3,1.6-4
		c1.1-1,2.5-1.5,4.2-1.5c1.7,0,3,0.4,3.9,1.3c1,0.9,1.4,2,1.4,3.5c0,1.8-1.1,3.8-3.3,6.3l-4.8,5.2h8.9V463.3z" />
    <path id="XMLID_1240_" class="st5" d="M664.9,462.1c0-0.4,0.1-0.7,0.3-1c0.2-0.3,0.6-0.4,1-0.4s0.8,0.1,1.1,0.4
		c0.2,0.3,0.4,0.6,0.4,1c0,0.4-0.1,0.7-0.4,0.9c-0.2,0.3-0.6,0.4-1.1,0.4s-0.8-0.1-1-0.4C665,462.8,664.9,462.5,664.9,462.1z" />
  </g>
  <g id="XMLID_1234_">
    <path id="XMLID_1237_" class="st5" d="M740.8,453.2h1.7c1.1,0,1.9-0.3,2.5-0.8c0.6-0.5,0.9-1.3,0.9-2.2c0-2.1-1-3.1-3.1-3.1
		c-1,0-1.8,0.3-2.3,0.8c-0.6,0.6-0.9,1.3-0.9,2.2h-2.3c0-1.4,0.5-2.6,1.5-3.5c1-0.9,2.3-1.4,3.9-1.4c1.7,0,3,0.4,3.9,1.3
		c1,0.9,1.4,2.1,1.4,3.7c0,0.8-0.3,1.5-0.8,2.2c-0.5,0.7-1.2,1.3-2,1.6c1,0.3,1.7,0.8,2.3,1.5c0.5,0.7,0.8,1.6,0.8,2.6
		c0,1.6-0.5,2.9-1.6,3.8c-1,0.9-2.4,1.4-4.1,1.4s-3-0.5-4.1-1.4c-1-0.9-1.6-2.1-1.6-3.6h2.3c0,0.9,0.3,1.7,0.9,2.2s1.4,0.8,2.5,0.8
		c1.1,0,1.9-0.3,2.5-0.9c0.6-0.6,0.9-1.4,0.9-2.5c0-1-0.3-1.8-1-2.4c-0.6-0.6-1.5-0.8-2.7-0.9h-1.7V453.2z" />
    <path id="XMLID_1235_" class="st5" d="M751.8,462c0-0.4,0.1-0.7,0.3-1c0.2-0.3,0.6-0.4,1-0.4s0.8,0.1,1.1,0.4
		c0.2,0.3,0.4,0.6,0.4,1c0,0.4-0.1,0.7-0.4,0.9c-0.2,0.3-0.6,0.4-1.1,0.4s-0.8-0.1-1-0.4C751.9,462.7,751.8,462.4,751.8,462z" />
  </g>
</svg>