<?xml version="1.0" encoding="utf-8"?>
<!-- Generator: Adobe Illustrator 19.0.0, SVG Export Plug-In . SVG Version: 6.00 Build 0)  -->
<svg version="1.1" id="Calque_1" xmlns="http://www.w3.org/2000/svg" xmlns:xlink="http://www.w3.org/1999/xlink" x="0px" y="0px" viewBox="0 0 800 534" style="enable-background:new 0 0 800 534;" xml:space="preserve">
  <style type="text/css">
	.st0{fill:#202123;}
	.st1{opacity:0.25;fill:#178B6E;}
	.st2{opacity:0.25;fill:#3B3D3F;}
	.st3{fill:#3B3D3F;}
	.st4{fill:#E8E8E8;}
	.st5{fill:#E7E7E7;}
</style>
  <g id="XMLID_4_"></g>
  <path id="XMLID_580_" class="st0" d="M800,0v534H0V0c10.6-0.6,6.3,0,14.6,0H800z" />
  <path id="XMLID_579_" class="st1" d="M800,0v51H0V0c23.3-0.3,6.3,0,14.6,0h770C792.8,0,795.6-0.3,800,0z" />
  <path id="XMLID_578_" class="st2" d="M763.8,507.1h-161c-2.8,0-5-2.2-5-5v-29c0-2.8,2.2-5,5-5h161c2.8,0,5,2.2,5,5v29
	C768.8,504.8,766.6,507.1,763.8,507.1z" />
  <path id="XMLID_577_" class="st3" d="M203,112H20.1c-2.8,0-5-2.2-5-5V78c0-2.8,2.2-5,5-5H207c2.8,0,5,2.2,5,5v25
	C212,108,208,112,203,112z" />
  <path id="XMLID_576_" class="st2" d="M95.6,176.5H20.1c-2.8,0-5-2.2-5-5v-29c0-2.8,2.2-5,5-5h75.5c2.8,0,5,2.2,5,5v29
	C100.6,174.2,98.4,176.5,95.6,176.5z" />
  <path id="XMLID_575_" class="st2" d="M95.6,220.5H20.1c-2.8,0-5-2.2-5-5v-29c0-2.8,2.2-5,5-5h75.5c2.8,0,5,2.2,5,5v29
	C100.6,218.2,98.4,220.5,95.6,220.5z" />
  <path id="XMLID_574_" class="st3" d="M491,112H379.6c-2.8,0-5-2.2-5-5V78c0-2.8,2.2-5,5-5H495c2.8,0,5,2.2,5,5v25
	C500,108,496,112,491,112z" />
  <path id="XMLID_572_" class="st2" d="M95.6,264.5H20.1c-2.8,0-5-2.2-5-5v-29c0-2.8,2.2-5,5-5h75.5c2.8,0,5,2.2,5,5v29
	C100.6,262.2,98.4,264.5,95.6,264.5z" />
  <path id="XMLID_570_" class="st2" d="M95.6,352.5H20.1c-2.8,0-5-2.2-5-5v-29c0-2.8,2.2-5,5-5h75.5c2.8,0,5,2.2,5,5v29
	C100.6,350.2,98.4,352.5,95.6,352.5z" />
  <path id="XMLID_569_" class="st2" d="M95.6,308.5H20.1c-2.8,0-5-2.2-5-5v-29c0-2.8,2.2-5,5-5h75.5c2.8,0,5,2.2,5,5v29
	C100.6,306.2,98.4,308.5,95.6,308.5z" />
  <path id="XMLID_568_" class="st2" d="M425.6,176.5h-308c-2.8,0-5-2.2-5-5v-29c0-2.8,2.2-5,5-5h308c2.8,0,5,2.2,5,5v29
	C430.6,174.2,428.3,176.5,425.6,176.5z" />
  <path id="XMLID_567_" class="st2" d="M425.6,220.5h-308c-2.8,0-5-2.2-5-5v-29c0-2.8,2.2-5,5-5h308c2.8,0,5,2.2,5,5v29
	C430.6,218.2,428.3,220.5,425.6,220.5z" />
  <path id="XMLID_566_" class="st2" d="M425.6,264.5h-308c-2.8,0-5-2.2-5-5v-29c0-2.8,2.2-5,5-5h308c2.8,0,5,2.2,5,5v29
	C430.6,262.2,428.3,264.5,425.6,264.5z" />
  <path id="XMLID_565_" class="st2" d="M425.6,352.5h-308c-2.8,0-5-2.2-5-5v-29c0-2.8,2.2-5,5-5h308c2.8,0,5,2.2,5,5v29
	C430.6,350.2,428.3,352.5,425.6,352.5z" />
  <path id="XMLID_564_" class="st2" d="M425.6,308.5h-308c-2.8,0-5-2.2-5-5v-29c0-2.8,2.2-5,5-5h308c2.8,0,5,2.2,5,5v29
	C430.6,306.2,428.3,308.5,425.6,308.5z" />
  <path id="XMLID_563_" class="st2" d="M763.8,176.5h-308c-2.8,0-5-2.2-5-5v-29c0-2.8,2.2-5,5-5h308c2.8,0,5,2.2,5,5v29
	C768.8,174.2,766.6,176.5,763.8,176.5z" />
  <path id="XMLID_562_" class="st2" d="M763.8,220.5h-308c-2.8,0-5-2.2-5-5v-29c0-2.8,2.2-5,5-5h308c2.8,0,5,2.2,5,5v29
	C768.8,218.2,766.6,220.5,763.8,220.5z" />
  <path id="XMLID_561_" class="st2" d="M763.8,264.5h-308c-2.8,0-5-2.2-5-5v-29c0-2.8,2.2-5,5-5h308c2.8,0,5,2.2,5,5v29
	C768.8,262.2,766.6,264.5,763.8,264.5z" />
  <path id="XMLID_560_" class="st2" d="M763.8,352.5h-308c-2.8,0-5-2.2-5-5v-29c0-2.8,2.2-5,5-5h308c2.8,0,5,2.2,5,5v29
	C768.8,350.2,766.6,352.5,763.8,352.5z" />
  <path id="XMLID_559_" class="st2" d="M763.8,308.5h-308c-2.8,0-5-2.2-5-5v-29c0-2.8,2.2-5,5-5h308c2.8,0,5,2.2,5,5v29
	C768.8,306.2,766.6,308.5,763.8,308.5z" />
  <path id="XMLID_558_" class="st2" d="M95.6,441H20.1c-2.8,0-5-2.2-5-5v-29c0-2.8,2.2-5,5-5h75.5c2.8,0,5,2.2,5,5v29
	C100.6,438.7,98.4,441,95.6,441z" />
  <path id="XMLID_557_" class="st2" d="M95.6,397H20.1c-2.8,0-5-2.2-5-5v-29c0-2.8,2.2-5,5-5h75.5c2.8,0,5,2.2,5,5v29
	C100.6,394.7,98.4,397,95.6,397z" />
  <path id="XMLID_556_" class="st2" d="M425.6,441h-308c-2.8,0-5-2.2-5-5v-29c0-2.8,2.2-5,5-5h308c2.8,0,5,2.2,5,5v29
	C430.6,438.7,428.3,441,425.6,441z" />
  <path id="XMLID_555_" class="st2" d="M425.6,397h-308c-2.8,0-5-2.2-5-5v-29c0-2.8,2.2-5,5-5h308c2.8,0,5,2.2,5,5v29
	C430.6,394.7,428.3,397,425.6,397z" />
  <path id="XMLID_554_" class="st2" d="M763.8,441h-308c-2.8,0-5-2.2-5-5v-29c0-2.8,2.2-5,5-5h308c2.8,0,5,2.2,5,5v29
	C768.8,438.7,766.6,441,763.8,441z" />
  <path id="XMLID_553_" class="st2" d="M763.8,397h-308c-2.8,0-5-2.2-5-5v-29c0-2.8,2.2-5,5-5h308c2.8,0,5,2.2,5,5v29
	C768.8,394.7,766.6,397,763.8,397z" />
  <path id="XMLID_552_" class="st2" d="M152.7,507.1H20.1c-2.8,0-5-2.2-5-5v-29c0-2.8,2.2-5,5-5h132.6c2.8,0,5,2.2,5,5v29
	C157.7,504.8,155.5,507.1,152.7,507.1z" />
  <path id="XMLID_551_" class="st3" d="M355.6,112H227c-2.8,0-5-2.2-5-5V78c0-2.8,2.2-5,5-5h132.6c2.8,0,5,2.2,5,5v25
	C364.6,108,360.6,112,355.6,112z" />
  <path id="XMLID_550_" class="st2" d="M759.8,112H631.2c-2.8,0-5-2.2-5-5V78c0-2.8,2.2-5,5-5h132.6c2.8,0,5,2.2,5,5v25
	C768.8,108,764.8,112,759.8,112z" />
  <g id="XMLID_9_">
    <path id="XMLID_10_" class="st4" d="M54.6,94.7c0-0.7-0.2-1.2-0.7-1.6c-0.5-0.4-1.3-0.8-2.6-1.1s-2.2-0.7-2.7-1.1
		c-0.8-0.6-1.2-1.4-1.2-2.3c0-0.9,0.4-1.7,1.1-2.3c0.8-0.6,1.7-0.9,2.9-0.9c0.8,0,1.5,0.2,2.2,0.5c0.6,0.3,1.1,0.7,1.5,1.3
		s0.5,1.2,0.5,1.9h-1c0-0.8-0.3-1.5-0.8-2c-0.6-0.5-1.3-0.8-2.3-0.8c-0.9,0-1.7,0.2-2.2,0.6s-0.8,1-0.8,1.6c0,0.6,0.2,1.1,0.7,1.5
		s1.3,0.7,2.4,1c1.1,0.3,1.9,0.6,2.5,0.9s1,0.7,1.3,1.1c0.3,0.4,0.4,1,0.4,1.6c0,1-0.4,1.7-1.1,2.3c-0.8,0.6-1.8,0.9-3,0.9
		c-0.9,0-1.6-0.2-2.3-0.5c-0.7-0.3-1.3-0.7-1.6-1.3c-0.4-0.5-0.6-1.2-0.6-1.9h1c0,0.9,0.3,1.5,1,2c0.6,0.5,1.5,0.7,2.5,0.7
		c0.9,0,1.7-0.2,2.3-0.6C54.3,95.9,54.6,95.4,54.6,94.7z" />
    <path id="XMLID_12_" class="st4" d="M61.1,97.8c-0.8,0-1.5-0.2-2.1-0.6c-0.6-0.4-1.1-0.9-1.4-1.6C57.2,95,57,94.3,57,93.4v-0.4
		c0-0.9,0.2-1.6,0.5-2.3c0.3-0.7,0.8-1.2,1.4-1.6s1.2-0.6,1.9-0.6c1.1,0,2,0.4,2.6,1.1c0.6,0.7,1,1.8,1,3.1v0.6H58v0.2
		c0,1,0.3,1.9,0.9,2.5c0.6,0.7,1.3,1,2.2,1c0.5,0,1-0.1,1.4-0.3c0.4-0.2,0.8-0.5,1.1-0.9l0.6,0.5C63.5,97.3,62.5,97.8,61.1,97.8z
		 M60.9,89.4c-0.7,0-1.4,0.3-1.9,0.8c-0.5,0.5-0.8,1.3-0.9,2.2h5.4v-0.1c0-0.9-0.3-1.6-0.7-2.1S61.6,89.4,60.9,89.4z" />
    <path id="XMLID_19_" class="st4" d="M72,97.7c-0.1-0.3-0.2-0.7-0.2-1.3c-0.3,0.5-0.8,0.8-1.3,1.1c-0.5,0.2-1.1,0.4-1.7,0.4
		c-0.9,0-1.6-0.2-2.1-0.7c-0.5-0.5-0.8-1.1-0.8-1.8c0-0.9,0.4-1.6,1.1-2.1c0.7-0.5,1.7-0.8,3-0.8h1.8v-1c0-0.6-0.2-1.1-0.6-1.5
		c-0.4-0.4-1-0.6-1.7-0.6c-0.7,0-1.3,0.2-1.7,0.5c-0.5,0.4-0.7,0.8-0.7,1.3l-1,0c0-0.7,0.3-1.3,1-1.9c0.7-0.5,1.5-0.8,2.4-0.8
		c1,0,1.8,0.3,2.4,0.8c0.6,0.5,0.9,1.2,0.9,2.1v4.3c0,0.9,0.1,1.5,0.3,2v0.1H72z M68.9,96.9c0.7,0,1.3-0.2,1.8-0.5
		c0.5-0.3,0.9-0.8,1.1-1.3v-2h-1.8c-1,0-1.8,0.2-2.3,0.5s-0.8,0.8-0.8,1.4c0,0.5,0.2,0.9,0.6,1.3C67.8,96.8,68.3,96.9,68.9,96.9z" />
    <path id="XMLID_22_" class="st4" d="M79.6,89.5c-0.2,0-0.4-0.1-0.7-0.1c-0.6,0-1.1,0.2-1.6,0.5c-0.4,0.3-0.7,0.8-0.9,1.5v6.2h-1v-9
		h1l0,1.4c0.5-1.1,1.4-1.6,2.5-1.6c0.3,0,0.5,0,0.7,0.1L79.6,89.5z" />
    <path id="XMLID_24_" class="st4" d="M84.4,97c0.7,0,1.3-0.2,1.7-0.6c0.5-0.4,0.7-0.9,0.8-1.5h1c0,0.5-0.2,1-0.5,1.5
		s-0.7,0.8-1.3,1.1c-0.5,0.3-1.1,0.4-1.7,0.4c-1.2,0-2.1-0.4-2.8-1.2c-0.7-0.8-1-1.9-1-3.3V93c0-0.9,0.2-1.7,0.5-2.3
		c0.3-0.7,0.8-1.2,1.3-1.6c0.6-0.4,1.3-0.6,2-0.6c1,0,1.8,0.3,2.4,0.9c0.6,0.6,1,1.4,1,2.3h-1c0-0.7-0.3-1.3-0.8-1.7
		c-0.5-0.4-1-0.6-1.7-0.6c-0.9,0-1.6,0.3-2.1,1c-0.5,0.6-0.7,1.6-0.7,2.7v0.3c0,1.1,0.2,2,0.7,2.7C82.8,96.7,83.5,97,84.4,97z" />
    <path id="XMLID_27_" class="st4" d="M90.8,90.2c0.3-0.5,0.7-1,1.3-1.2c0.5-0.3,1.1-0.4,1.7-0.4c1,0,1.7,0.3,2.1,0.8
		s0.7,1.4,0.7,2.4v5.9h-1v-5.9c0-0.8-0.2-1.4-0.5-1.8c-0.3-0.4-0.9-0.6-1.6-0.6c-0.6,0-1.2,0.2-1.6,0.6c-0.5,0.4-0.8,0.9-1.1,1.6
		v6.2h-1V84.9h1V90.2z" />
  </g>
  <g id="XMLID_30_">
    <path id="XMLID_31_" class="st4" d="M271.3,92.1h-5.6v5.7h-1V85.6h7.5v0.9h-6.5v4.7h5.6V92.1z" />
    <path id="XMLID_35_" class="st4" d="M273.9,86.1c0-0.2,0.1-0.3,0.2-0.5s0.3-0.2,0.5-0.2s0.4,0.1,0.5,0.2c0.1,0.1,0.2,0.3,0.2,0.5
		c0,0.2-0.1,0.3-0.2,0.5c-0.1,0.1-0.3,0.2-0.5,0.2s-0.4-0.1-0.5-0.2C274,86.5,273.9,86.3,273.9,86.1z M275.1,97.7h-1v-9h1V97.7z" />
    <path id="XMLID_39_" class="st4" d="M278.9,97.7h-1V85h1V97.7z" />
    <path id="XMLID_41_" class="st4" d="M283.1,86.4v2.3h1.9v0.8h-1.9v6c0,0.5,0.1,0.9,0.3,1.1c0.2,0.2,0.5,0.4,0.9,0.4
		c0.2,0,0.4,0,0.8-0.1l0,0.8c-0.3,0.1-0.6,0.1-1.1,0.1c-0.7,0-1.2-0.2-1.5-0.6s-0.5-1-0.5-1.7v-6h-1.7v-0.8h1.7v-2.3H283.1z" />
    <path id="XMLID_43_" class="st4" d="M290.5,97.9c-0.8,0-1.5-0.2-2.1-0.6c-0.6-0.4-1.1-0.9-1.4-1.6c-0.3-0.7-0.5-1.4-0.5-2.3v-0.4
		c0-0.9,0.2-1.6,0.5-2.3c0.3-0.7,0.8-1.2,1.4-1.6s1.2-0.6,1.9-0.6c1.1,0,2,0.4,2.6,1.1c0.6,0.7,1,1.8,1,3.1v0.6h-6.4v0.2
		c0,1,0.3,1.9,0.9,2.5c0.6,0.7,1.3,1,2.2,1c0.5,0,1-0.1,1.4-0.3c0.4-0.2,0.8-0.5,1.1-0.9l0.6,0.5C293,97.4,291.9,97.9,290.5,97.9z
		 M290.3,89.4c-0.7,0-1.4,0.3-1.9,0.8c-0.5,0.5-0.8,1.3-0.9,2.2h5.4v-0.1c0-0.9-0.3-1.6-0.7-2.1S291.1,89.4,290.3,89.4z" />
    <path id="XMLID_49_" class="st4" d="M300,89.6c-0.2,0-0.4-0.1-0.7-0.1c-0.6,0-1.1,0.2-1.6,0.5c-0.4,0.3-0.7,0.8-0.9,1.5v6.2h-1v-9
		h1l0,1.4c0.5-1.1,1.4-1.6,2.5-1.6c0.3,0,0.5,0,0.7,0.1L300,89.6z" />
  </g>
  <g id="XMLID_36_">
    <path id="XMLID_51_" class="st4" d="M425.9,93.7c-0.1,1.3-0.6,2.2-1.4,2.9c-0.8,0.7-1.8,1-3.1,1c-0.9,0-1.7-0.2-2.4-0.7
		c-0.7-0.4-1.2-1.1-1.6-1.9c-0.4-0.8-0.6-1.8-0.6-2.8v-1.6c0-1.1,0.2-2,0.6-2.9c0.4-0.8,0.9-1.5,1.6-1.9c0.7-0.5,1.5-0.7,2.4-0.7
		c1.3,0,2.3,0.3,3.1,1s1.2,1.7,1.3,2.9h-1c-0.3-2.1-1.4-3.1-3.3-3.1c-1.1,0-2,0.4-2.6,1.2c-0.6,0.8-1,2-1,3.4v1.5
		c0,1.4,0.3,2.5,1,3.3s1.5,1.2,2.6,1.2c1.1,0,1.9-0.3,2.4-0.8c0.5-0.5,0.9-1.3,1-2.3H425.9z" />
    <path id="XMLID_53_" class="st4" d="M427.6,92.9c0-0.9,0.2-1.6,0.5-2.3c0.3-0.7,0.8-1.2,1.4-1.6s1.3-0.6,2.1-0.6
		c1.2,0,2.2,0.4,2.9,1.3c0.7,0.8,1.1,1.9,1.1,3.3v0.2c0,0.9-0.2,1.7-0.5,2.3s-0.8,1.2-1.4,1.6c-0.6,0.4-1.3,0.6-2.1,0.6
		c-1.2,0-2.2-0.4-2.9-1.3c-0.7-0.8-1.1-1.9-1.1-3.3V92.9z M428.6,93.2c0,1.1,0.3,2,0.8,2.6c0.6,0.7,1.3,1,2.2,1c0.9,0,1.6-0.3,2.2-1
		c0.6-0.7,0.8-1.6,0.8-2.7v-0.2c0-0.7-0.1-1.3-0.4-1.9c-0.3-0.6-0.6-1-1.1-1.3c-0.5-0.3-1-0.5-1.6-0.5c-0.9,0-1.6,0.3-2.2,1
		c-0.6,0.7-0.8,1.6-0.8,2.7V93.2z" />
    <path id="XMLID_56_" class="st4" d="M438.8,97.5h-1V84.8h1V97.5z" />
    <path id="XMLID_58_" class="st4" d="M447.3,96.4c-0.6,0.9-1.6,1.3-2.9,1.3c-1,0-1.7-0.3-2.2-0.8c-0.5-0.6-0.8-1.4-0.8-2.5v-5.8h1
		v5.7c0,1.7,0.7,2.6,2.1,2.6c1.4,0,2.3-0.6,2.7-1.8v-6.5h1v9h-1L447.3,96.4z" />
    <path id="XMLID_60_" class="st4" d="M451.7,88.5l0,1.5c0.3-0.5,0.7-0.9,1.2-1.2c0.5-0.3,1.1-0.4,1.7-0.4c1.4,0,2.3,0.6,2.7,1.7
		c0.3-0.6,0.8-1,1.3-1.3c0.5-0.3,1.1-0.5,1.8-0.5c1.9,0,2.9,1.1,2.9,3.2v6h-1v-5.9c0-0.8-0.2-1.4-0.5-1.8c-0.3-0.4-0.9-0.6-1.7-0.6
		c-0.7,0-1.3,0.2-1.8,0.7c-0.5,0.5-0.8,1-0.8,1.6v5.9h-1v-6c0-0.8-0.2-1.3-0.5-1.7c-0.4-0.4-0.9-0.6-1.6-0.6c-0.6,0-1.2,0.2-1.6,0.5
		c-0.4,0.4-0.8,0.9-1,1.6v6.2h-1v-9H451.7z" />
    <path id="XMLID_62_" class="st4" d="M466.8,88.5l0,1.5c0.3-0.6,0.8-1,1.3-1.3c0.5-0.3,1.1-0.4,1.7-0.4c1,0,1.7,0.3,2.1,0.8
		c0.5,0.5,0.7,1.4,0.7,2.4v5.9h-1v-5.9c0-0.8-0.2-1.4-0.5-1.8c-0.3-0.4-0.9-0.6-1.6-0.6c-0.6,0-1.2,0.2-1.6,0.6
		c-0.5,0.4-0.8,0.9-1,1.6v6.2h-1v-9H466.8z" />
    <path id="XMLID_64_" class="st4" d="M480.6,95.2c0-0.5-0.2-0.9-0.6-1.2s-1-0.5-1.8-0.7s-1.4-0.4-1.9-0.6c-0.4-0.2-0.8-0.5-1-0.8
		c-0.2-0.3-0.3-0.7-0.3-1.1c0-0.7,0.3-1.3,0.9-1.8c0.6-0.5,1.3-0.7,2.3-0.7c1,0,1.8,0.2,2.4,0.7c0.6,0.5,0.9,1.1,0.9,1.9h-1
		c0-0.5-0.2-1-0.7-1.3c-0.4-0.3-1-0.5-1.7-0.5c-0.7,0-1.2,0.1-1.6,0.4c-0.4,0.3-0.6,0.7-0.6,1.1c0,0.4,0.2,0.8,0.5,1
		s0.9,0.5,1.8,0.7c0.9,0.2,1.5,0.4,2,0.7c0.4,0.2,0.8,0.5,1,0.8c0.2,0.3,0.3,0.7,0.3,1.2c0,0.8-0.3,1.4-0.9,1.8
		c-0.6,0.5-1.4,0.7-2.4,0.7c-1,0-1.9-0.3-2.5-0.8c-0.7-0.5-1-1.1-1-1.9h1c0,0.6,0.3,1,0.7,1.4c0.5,0.3,1,0.5,1.8,0.5
		c0.7,0,1.3-0.2,1.7-0.5C480.4,96.1,480.6,95.7,480.6,95.2z" />
  </g>
  <g id="XMLID_75_">
    <path id="XMLID_76_" class="st4" d="M34.6,70.3h-2.3V55.3L27.8,57v-2.1l6.5-2.4h0.4V70.3z" />
    <path id="XMLID_78_" class="st4" d="M41.5,69.1c0-0.4,0.1-0.7,0.3-1c0.2-0.3,0.6-0.4,1-0.4s0.8,0.1,1.1,0.4c0.2,0.3,0.4,0.6,0.4,1
		c0,0.4-0.1,0.7-0.4,0.9c-0.2,0.3-0.6,0.4-1.1,0.4s-0.8-0.1-1-0.4C41.6,69.8,41.5,69.5,41.5,69.1z" />
  </g>
  <g id="XMLID_70_">
    <path id="XMLID_71_" class="st4" d="M235.1,70.3h-11.6v-1.6l6.2-6.8c0.9-1,1.5-1.9,1.9-2.5c0.3-0.6,0.5-1.3,0.5-2
		c0-0.9-0.3-1.7-0.8-2.3c-0.6-0.6-1.3-0.9-2.2-0.9c-1.1,0-2,0.3-2.6,1c-0.6,0.6-0.9,1.5-0.9,2.7h-2.3c0-1.6,0.5-3,1.6-4
		c1.1-1,2.5-1.5,4.2-1.5c1.7,0,3,0.4,3.9,1.3c1,0.9,1.4,2,1.4,3.5c0,1.8-1.1,3.8-3.3,6.3l-4.8,5.2h8.9V70.3z" />
    <path id="XMLID_73_" class="st4" d="M237.8,69.1c0-0.4,0.1-0.7,0.3-1c0.2-0.3,0.6-0.4,1-0.4s0.8,0.1,1.1,0.4c0.2,0.3,0.4,0.6,0.4,1
		c0,0.4-0.1,0.7-0.4,0.9c-0.2,0.3-0.6,0.4-1.1,0.4s-0.8-0.1-1-0.4C237.9,69.8,237.8,69.5,237.8,69.1z" />
  </g>
  <g id="XMLID_32_">
    <path id="XMLID_66_" class="st4" d="M381.1,60.3h1.7c1.1,0,1.9-0.3,2.5-0.8c0.6-0.5,0.9-1.3,0.9-2.2c0-2.1-1-3.1-3.1-3.1
		c-1,0-1.8,0.3-2.3,0.8c-0.6,0.6-0.9,1.3-0.9,2.2h-2.3c0-1.4,0.5-2.6,1.5-3.5c1-0.9,2.3-1.4,3.9-1.4c1.7,0,3,0.4,3.9,1.3
		c1,0.9,1.4,2.1,1.4,3.7c0,0.8-0.3,1.5-0.8,2.2c-0.5,0.7-1.2,1.3-2,1.6c1,0.3,1.7,0.8,2.3,1.5c0.5,0.7,0.8,1.6,0.8,2.6
		c0,1.6-0.5,2.9-1.6,3.8c-1,0.9-2.4,1.4-4.1,1.4s-3-0.5-4.1-1.4c-1-0.9-1.6-2.1-1.6-3.6h2.3c0,0.9,0.3,1.7,0.9,2.2s1.4,0.8,2.5,0.8
		c1.1,0,1.9-0.3,2.5-0.9c0.6-0.6,0.9-1.4,0.9-2.5c0-1-0.3-1.8-1-2.4c-0.6-0.6-1.5-0.8-2.7-0.9h-1.7V60.3z" />
    <path id="XMLID_68_" class="st4" d="M392.1,69.1c0-0.4,0.1-0.7,0.3-1c0.2-0.3,0.6-0.4,1-0.4s0.8,0.1,1.1,0.4c0.2,0.3,0.4,0.6,0.4,1
		c0,0.4-0.1,0.7-0.4,0.9c-0.2,0.3-0.6,0.4-1.1,0.4s-0.8-0.1-1-0.4C392.2,69.8,392.1,69.5,392.1,69.1z" />
  </g>
  <g id="XMLID_6_">
    <path id="XMLID_28_" class="st5" d="M384.5,92.8c0,2.1,1.9,4.2,3.3,5.5c2.2,2,4.7,2.6,7.6,2.4c0.9-0.1,1.7-0.2,2.5-0.5
		c3-1.2,5-3.3,6.3-6.1c0.3-0.6,0.3-1.2,0-1.7c-1.1-2.4-2.9-4.4-5.2-5.7c-1.3-0.7-2.8-1-4.3-1c-1.4,0-2.9,0.1-4.2,0.7
		c-1.7,0.7-3.1,1.9-4.2,3.3c-0.2,0.3-0.5,0.6-0.7,0.9c0,0,0,0.1-0.1,0.1c-0.5,0.7-1.1,1.3-1.1,2.2C384.5,92.7,384.5,92.7,384.5,92.8
		z M394.4,88c2.8,0,5.1,2.3,5,5c0.1,2.7-2.1,5-4.9,5c-2.8,0-5-2.3-5-5.1C389.5,90.3,391.6,88,394.4,88z" />
    <path id="XMLID_14_" class="st5" d="M396.9,93c0,1.4-1,2.5-2.5,2.5c-1.4,0-2.4-1.1-2.4-2.5c0-1.4,1.1-2.4,2.5-2.4
		C395.9,90.5,396.9,91.6,396.9,93z" />
  </g>
  <g id="XMLID_7_">
    <path id="XMLID_18_" class="st5" d="M253.8,89.9c-0.2,0.2-0.4,0.2-0.7,0.2c-5.9,0-11.9,0-17.8,0c-0.4,0-1-0.3-1.1-0.7
		c0,0-0.1,0-0.1-0.1V89c0-0.4,0.6-1,1-1h18.4c0.2,0,0.4,0.3,0.5,0.4C254.3,88.8,254.3,89.6,253.8,89.9z" />
    <path id="XMLID_15_" class="st5" d="M250.3,95.1c-0.1,0-0.3-0.1-0.4-0.1c-1.9,0-3.8,0-5.7,0c-2,0-3.9,0.1-5.9,0.1
		c-0.2,0-0.5,0-0.7-0.1c-0.3-0.2-0.5-0.6-0.4-0.9c0.1-0.5,0.3-0.8,0.8-0.9c0.1,0,0.3-0.1,0.4-0.1c3.9,0,7.8,0,11.7,0
		c0.5,0,0.9,0.3,1.1,0.7C251.3,94.4,250.9,95,250.3,95.1z" />
    <path id="XMLID_13_" class="st5" d="M247.2,99c0,0.6-0.5,1.1-1,1.1c-0.7,0-1.4,0-2,0c-0.7,0-1.3,0-2,0c-0.5,0-1-0.5-1-1.1
		c0-0.6,0.4-1.1,1-1.1c1.3,0,2.7,0,4,0C246.7,98,247.2,98.5,247.2,99z" />
  </g>
  <g id="XMLID_8_">
    <path id="XMLID_34_" class="st5" d="M41.5,98c-0.5-0.5-0.9-0.9-1.4-1.4c-0.3-0.3-0.7-0.7-1-1c-0.3-0.3-0.5-0.5-0.8-0.8
		c-0.1-0.1-0.2-0.2-0.4-0.4c-0.4-0.4-0.7-0.7-1.1-1.1c-0.3-0.3-0.8-0.7-1-1.1c0-0.1-0.1-0.2-0.1-0.2c0-0.1,0.1-0.1,0.1-0.2
		c0.4-0.4,0.5-1,0.6-1.6c0.2-0.8,0.5-1.6,0.5-2.5c0-0.2,0-0.3,0-0.5c0-0.2,0-0.3,0-0.5c-0.4-2.7-2.1-5.2-4.7-6.1
		c-2.9-1-6-0.5-8.1,1.7c-1.1,1.1-1.8,2.4-2,4c-0.3,2.4,0.5,5,2.3,6.6c0.4,0.4,0.8,0.7,1.3,1c2.5,1.5,5.1,1.5,7.7,0
		c0.4-0.2,0.6-0.2,0.9,0.1c1.8,1.9,3.7,3.7,5.5,5.5c0.6,0.6,1.3,0.6,1.9,0C42.1,99.2,42.1,98.6,41.5,98z M29.5,82.7
		c2.9,0.1,5,2.2,4.9,5c0,2.8-2.1,5-5,5c-2.8,0-4.9-2-4.9-5C24.5,84.9,26.7,82.8,29.5,82.7z" />
  </g>
</svg>