<?xml version="1.0" encoding="utf-8"?>
<!-- Generator: Adobe Illustrator 19.0.0, SVG Export Plug-In . SVG Version: 6.00 Build 0)  -->
<svg version="1.1" id="Calque_1" xmlns="http://www.w3.org/2000/svg" xmlns:xlink="http://www.w3.org/1999/xlink" x="0px" y="0px"
	 viewBox="0 0 960 560" style="enable-background:new 0 0 960 560;" xml:space="preserve">
<style type="text/css">
	.st0{fill:#79CCF3;}
	.st1{fill:#00B2EB;}
	.st2{fill:#009EE2;}
	.st3{fill:#008ECB;}
	.st4{fill:#37A0DA;}
	.st5{font-family:'Exo-Regular';}
	.st6{font-size:34.1257px;}
</style>
<g id="XMLID_1144_">
	<path id="XMLID_1217_" class="st0" d="M194.2,230.7c-1.7,16-8.3,28.3-12.1,33.7c0,0.1-0.1,0.1-0.1,0.2c-0.4-0.6-0.8-1.1-1.2-1.7
		c0-1.3-0.1-2.8-0.2-4.7v-0.1c0-5.7-1.7-12.1-3-16.1c-0.5-1.6-1.2-3.2-2-4.6c-1.2-3.1-2.6-6.2-4.4-9.4
		c-9.3-16.4-25.8-28.2-44.2-32.7c-0.6-0.2-1.3-0.3-1.9-0.5c-7.7-1.7-16.2-2.3-24.3-1.3c-1.8-17.8,11.3-35,31-37.1
		c0.4-0.1,0.9-0.1,1.4-0.1c12.7-0.9,24.9,4.9,34.7,13c2.9,2.4,5.5,5,7.9,7.6C188.9,191.4,196.1,211.2,194.2,230.7z"/>
	<path id="XMLID_1161_" class="st0" d="M180.5,258.2c-0.5-5.3-1.9-12.8-5-20.8c0.8,1.5,1.5,3,2,4.6
		C178.9,246.1,180.5,252.5,180.5,258.2z"/>
	<path id="XMLID_1214_" class="st0" d="M180.8,262.9c-0.2-0.3-0.4-0.5-0.6-0.8c0.3-1.2,0.4-2.5,0.4-3.9
		C180.7,260.1,180.8,261.7,180.8,262.9z"/>
	<path id="XMLID_1212_" class="st1" d="M141.5,238.2c-1.9-0.5-3.9-0.9-5.9-1.3l0-6.6C137.6,232.9,139.5,235.6,141.5,238.2z"/>
	<path id="XMLID_1211_" class="st1" d="M180.5,258.2L180.5,258.2c0,1.4-0.1,2.7-0.4,3.9c-12.2-16.2-24.5-32.5-36.6-48.6
		c-0.3-0.4-0.6-0.8-0.9-1.2c-3.4-5-6.4-8.1-11.1-8.1l-6.6-0.1c-3.9-0.1-7.1,3.1-7.1,7v25.1c-7.1,0.6-14.1,2.2-20.8,4.8
		c-7.6,2.9-15.4,7.3-21.7,13c-14-13.1-14-36.5,1.8-50.5c6.5-5.8,14.8-8.8,23.5-10c8.1-1,16.6-0.4,24.3,1.3c0.6,0.2,1.3,0.3,1.9,0.5
		c18.4,4.5,34.9,16.3,44.2,32.7c1.8,3.2,3.3,6.3,4.4,9.4C178.7,245.4,180.1,252.9,180.5,258.2z"/>
	<path id="XMLID_1194_" class="st1" d="M117.9,236.1v22.3c-11.6,4.4-23.3,7.1-35.3,0.7c-2.7-1.5-5.1-3.2-7.2-5.2
		c6.3-5.7,14.1-10.1,21.7-13C103.8,238.3,110.8,236.7,117.9,236.1z"/>
	<path id="XMLID_1190_" class="st1" d="M150,249.7c-4.8-0.1-9.6,0.7-14.3,2l-0.1-14.8c2,0.3,3.9,0.8,5.9,1.3
		C144.3,242,147.2,245.8,150,249.7z"/>
	<path id="XMLID_1188_" class="st1" d="M180.8,262.9c-0.2-0.3-0.4-0.5-0.6-0.8c0.3-1.2,0.4-2.5,0.4-3.9
		C180.7,260.1,180.8,261.7,180.8,262.9z"/>
	<path id="XMLID_1210_" class="st2" d="M117.9,236.1v72c-3.6,3.5-7.8,6.4-12.7,8.1h0c-2.3,0.8-4.9,1.4-7.6,1.7
		c-7.5,0.7-14.6-1.1-20.3-4.6c0,0,0,0,0,0c-12.2-7.5-19.2-22.7-15-38.6c2.1-8.2,7-15,13.2-20.7c6.3-5.7,14.1-10.1,21.7-13
		C103.8,238.3,110.8,236.7,117.9,236.1z"/>
	<path id="XMLID_1209_" class="st2" d="M163.1,267.3c-1.9,0.3-3.7,0.7-5.2,1.1c-4.9,1.3-9.2,3.6-13,6.7c0,0-0.1,0-0.1,0.1
		c-3.4,2.7-6.4,5.9-9.1,9.4l0-5.1l-0.1-19.6l0-8.1l-0.1-14.8c2,0.3,3.9,0.8,5.9,1.3c2.8,3.8,5.7,7.6,8.5,11.5
		c1.1,1.5,2.1,2.9,3.2,4.4c1.6,2.1,3.1,4.2,4.7,6.3C159.6,262.7,161.4,265,163.1,267.3z"/>
	<path id="XMLID_1224_" class="st3" d="M165.3,270.2c-0.1-0.1-0.2-0.2-0.3-0.3c-0.6-0.9-1.3-1.7-1.9-2.6c-1.7-2.3-3.5-4.7-5.2-7
		c-4.5-0.8-9.4-1.2-14.7-1.1c-2.5,0.1-5,0.3-7.5,0.6l0.1,19.6l0,5.1l0.1,35h9.3c0.3-2.4,0.5-4.8,0.7-7.2c0.2-2.4,0.5-4.8,0.9-7.2
		c0,0,0,0,0,0c1.6-9.4,4.8-18.6,12-25.3c2.1-1.9,5.2-4.5,8.6-6.6C166.7,272.2,166,271.2,165.3,270.2z M120.1,335.6
		c-1.2,0-2.2-1-2.2-2.2v-68.3c-9.8,4.4-18.6,11-25.6,19.2c-6.9,8-12.8,18.2-15,28.9c-1.2,5.7-1.3,11.6,0.1,17.3
		c3.3,13.5,13.4,22.9,25.2,25.9c8.6,2.2,18.2,1,26.4-4.5c6.4-4.3,10.2-9.9,12.6-16.2c0,0,0,0,0,0H120.1z"/>
	<path id="XMLID_1213_" class="st0" d="M170.8,277.1c-0.4-0.4-0.7-0.8-1.1-1.2c-0.8-0.9-1.5-1.8-2.2-2.7c-0.7-1-1.5-2-2.2-3
		c-5.8,0.6-12.9,2-20.3,4.9c-1.4,0.5-2.8,1.1-4.2,1.8c-1.7,0.8-3.4,1.7-5,2.6l0,5.1l0.1,35h26.9c-2.7-9.9-3.8-20.3,0.5-30
		C164.8,286.1,167.4,281.1,170.8,277.1z M167.6,335.6h-47.5c-1.2,0-2.2-1-2.2-2.2v-38.9c-5.4,6.4-9.7,13.8-12.7,21.7h0
		c-0.5,1.3-0.9,2.5-1.3,3.8c-3.5,11.4-4.8,24.7-1.3,36.4c1.3,4.3,3.2,8.3,6,12c12,15.9,33.4,18.4,47.8,7.8c3.1-2.3,5.9-5.1,8.1-8.7
		C171.1,357.2,170.4,346.4,167.6,335.6z"/>
	<path id="XMLID_1206_" class="st1" d="M192,319.5h-49.5c0.9-4.9,2.3-9.8,4.2-14.4c0,0,0,0,0,0c1-2.4,2.2-4.7,3.5-7
		c5.9-10.3,13.5-17.7,19.4-22.2c0.4,0.4,0.7,0.8,1.1,1.2c1.1,1.1,2.3,2.1,3.6,3c0.2,0.1,0.4,0.2,0.6,0.4c-0.5,5.3,0.3,11.2,1,15
		C177.9,305.5,184.5,313.2,192,319.5z"/>
	<path id="XMLID_1204_" class="st1" d="M221.2,367.2c-4.2,18.7-24.4,30.6-44.4,24.2c-8.3-2.7-15.2-8.3-20.5-15.2
		c-5.1-6.5-8.8-14.1-11.2-21.6c-2-6.1-3.2-12.6-3.5-19c0,0,0,0,0,0h62.2c1.2,0,2.2-1,2.2-2.2v-2.9c8.6,7.2,15.4,15.6,16,28
		C222.1,361.5,221.9,364.4,221.2,367.2z"/>
	<path id="XMLID_1196_" class="st2" d="M198.3,293.9h-3c-1.2,0-2.1,1-2.1,2.1v23.5c-0.7,0-0.5,0-1.1,0h-17.6
		c-1.4-4.6-2.3-9.4-2.6-14.2c-0.7-9.8,0.8-18.5,2.6-25.2c0.2,0.1,0.4,0.2,0.6,0.4c1.9,1.1,4,1.8,6.6,1.9c0.2,0,0.3,0,0.5,0
		c1.3,0,2.5-0.2,3.7-0.5c2,2.8,4.3,5.2,6,7C193.7,290.9,195.9,292.5,198.3,293.9z"/>
	<path id="XMLID_1199_" class="st2" d="M271.3,335.5c-0.2,14.4-9.9,28.1-25.6,32.6c-8,2.3-16.5,1.6-24.5-0.9
		c-8.1-2.5-15.8-7-22.3-12c-6.9-5.4-12.8-12.1-17.3-19.6h22.2c1.2,0,2.2-1,2.2-2.2v-36c5.5,1.8,11.5,2.6,17.3,3
		c0.5,0,0.9,0.1,1.3,0.1c1.2,0.1,2.4,0.1,3.5,0.2v0.8l-0.1,26.1c0.5,4.8,1.2,8.1,6,8.1h12v-32.5c7.2,2,13.8,5.6,18.8,12.5
		C269.5,321.8,271.4,328.7,271.3,335.5z"/>
	<path id="XMLID_954_" class="st3" d="M246.2,302.5v-30.4c10.4-4.1,21-6.2,32.1-0.9c5.7,2.7,10.2,6.8,13.3,11.6
		c8.5,13,7.2,31.4-5.4,43.7c-4.2,4.1-9.3,7-14.8,8.9c-10.3,3.6-22.1,3.7-32.6,1.9c-11.9-2.1-23.3-7.2-32.7-14.7v-28.7h-10.7
		c-1.2,0-2.1,1-2.1,2.1v13c-0.7-0.9-1.3-1.9-1.9-2.8c-5.3-8.5-8.2-17-9.8-23.9c0.2,0,0.3,0,0.5,0c1.3,0,2.5-0.2,3.7-0.5
		c1.6-0.4,3.1-1.1,4.4-2c0.6-0.4,1.1-0.8,1.6-1.2c3.4,1.7,6.8,2.9,9.3,3.7c9.2,2.8,18.5,1,27.3-2.3l-0.1,20.6v0.8l-0.1,26.1
		c0.5,4.8,1.2,8.1,6,8.1h12v-32.5"/>
	<path id="XMLID_1195_" class="st0" d="M228.4,253.4l-0.1,19.2l0,7.4l-0.1,20.6v0.8c-1.6-0.3-3.3-0.7-4.9-1.1
		c-5.3-1.4-10.3-3.4-15.1-6.1c-7.7-4.3-13.7-9.6-18.2-14.4c0.6-0.4,1.1-0.8,1.6-1.2c1.9-1.6,3.6-3.6,5.2-5.8c0.7-1,1.5-2,2.2-3
		c0.1-0.2,0.2-0.3,0.3-0.5c2.3-0.2,4.4-0.6,6.1-0.9C214.9,266.6,222.3,260.6,228.4,253.4z"/>
	<path id="XMLID_1193_" class="st0" d="M301.4,266.9c-1.9,6.1-5.4,11.4-9.8,16c-7.3,7.5-17.1,12.8-26.7,16c-6,2-12.3,3.2-18.7,3.6
		v-70.7c5.9-5.5,12.8-9.4,21.9-9.8c4.2-0.2,8.1,0.4,11.8,1.5C296.9,229,307.3,248,301.4,266.9z"/>
	<path id="XMLID_1192_" class="st1" d="M228.5,230.3l0,3.9l-0.1,19.2v0l-0.1,19.2c-2.8,0.7-5.5,1.1-8.4,1.4
		c-8.7,0.9-16.7,0.1-23.1-1.2c0.7-1,1.5-2,2.2-3c0.1-0.2,0.2-0.3,0.3-0.5c3.7-4.9,7.3-9.9,11-14.8c0,0,0,0,0,0
		c0.1-0.2,0.3-0.4,0.4-0.6C216.7,246.1,222.6,238.2,228.5,230.3z"/>
	<path id="XMLID_1191_" class="st1" d="M279.9,223.5c-2.3,7.9-6.3,15.4-11,21.7c-6.1,8.3-13.9,15.3-22.7,20.3V204l-8.4,0.1l-5.2,0.1
		c-4.7,0-7.7,3.1-11.1,8.1c-0.3,0.4-0.6,0.8-0.9,1.2c-2.4,3.2-4.9,6.5-7.3,9.7c0-0.6,0-1.2,0-1.8c0.3-15.3,0.8-30.6,13.8-40.8
		c2.4-1.9,5-3.4,7.6-4.5c17.6-7.5,39,1.9,45.5,21.9C282.9,206.3,282.4,215.1,279.9,223.5z"/>
	<path id="XMLID_1184_" class="st2" d="M228.5,230.3l0,3.9c-3.9,6.9-9,13.1-15.2,18.2c-0.9,0.8-1.9,1.5-2.8,2.2
		c0.1-0.2,0.3-0.4,0.4-0.6C216.7,246.1,222.6,238.2,228.5,230.3z"/>
	<path id="XMLID_1186_" class="st2" d="M237.9,201.2c-0.1,1-0.1,1.9-0.2,2.9l-5.2,0.1c-4.7,0-7.7,3.1-11.1,8.1
		c-0.3,0.4-0.6,0.8-0.9,1.2c-2.4,3.2-4.9,6.5-7.3,9.7v0l0,0c-4,5.2-7.9,10.4-11.8,15.7c0.4-0.9,0.8-1.9,1.2-2.8
		c7.4-18.1,6.1-39.1-2.4-56.8c-4.6-9.6-11.6-19.1-20.5-25.3c11.8-8.2,28.6-8.4,41.5,1.7c6.6,5.2,10.9,12.5,13.6,20.5
		C237.4,184.2,238.3,193,237.9,201.2z"/>
	<path id="XMLID_1171_" class="st3" d="M180.8,262.9c-0.2-0.3-0.4-0.5-0.6-0.8c0.3-1.2,0.4-2.5,0.4-3.9
		C180.7,260.1,180.8,261.7,180.8,262.9z"/>
	<path id="XMLID_1170_" class="st3" d="M202.6,236c-0.4,1-0.8,1.9-1.2,2.8l0,0c-6.4,8.5-12.8,17-19.2,25.5
		c3.7-5.4,10.4-17.7,12.1-33.7c1.9-19.5-5.3-39.3-18.5-53.8c-2.4-2.6-5-5.2-7.9-7.6c-9.8-8.1-22.1-14-34.7-13
		c7.7-7.4,18.8-11.3,30.8-9.2c5.8,1,11.1,3.5,15.8,6.8c8.9,6.3,15.9,15.8,20.5,25.3C208.7,196.9,210.1,217.9,202.6,236z"/>
</g>
<text id="XMLID_1054_" transform="matrix(1.1473 0 0 1 801.4852 351.3463)" class="st4 st5 st6">dsgn</text>
<g id="XMLID_1023_">
	<g id="XMLID_1031_">
		<path id="XMLID_1050_" class="st4" d="M467.1,305.8c-3.5-1.5-5.9-4.1-7.2-7.6c-1.3-3.5-2-8.1-2.1-13.9h29.4
			c4.7,0,8.8-0.6,12.3-1.6c3.4-1.1,6.1-2.9,8-5.5c1.8-2.5,2.8-5.9,2.8-10c0-6-1-10.7-3.2-14.2c-2.1-3.4-5.5-5.8-9.9-7.2
			c-4.5-1.4-10.3-2.1-17.4-2.1c-8.4,0-15,1.1-19.9,3.2c-4.9,2.1-8.5,5.8-10.6,11.1c-2.1,5.3-3.3,12.6-3.3,22c0,9.2,1,16.4,3.2,21.8
			c2.1,5.3,5.6,9.1,10.4,11.3c4.9,2.3,11.5,3.3,20,3.3c5.7,0,8.5,0.2,16,0c4.4-0.1,4.4,0,12.3-0.5l0.4-7.8h-25.9
			C475.6,308.1,470.5,307.3,467.1,305.8z M459.6,261.6c1.4-3.7,3.6-6.3,6.8-7.8c3.2-1.5,7.6-2.1,13.3-2.1c4.8,0,8.7,0.5,11.5,1.4
			c2.9,1,5,2.5,6.3,4.8c1.4,2.3,2,5.4,2,9.5c0,3.8-1,6.4-3.2,7.9c-2.2,1.5-5.5,2.2-10.1,2.2h-28.6
			C457.6,270.6,458.3,265.3,459.6,261.6z"/>
		<path id="XMLID_1048_" class="st4" d="M569.3,253.2v-8.6h-23.2v-19.8h-10.9l-0.2,19.8l-13,0.1v8.5h12.8l-0.4,39.3
			c-0.1,5.6,0.7,10.1,2.3,13.4c1.6,3.3,4.1,5.8,7.5,7.3c3.4,1.5,7.7,2.3,13,2.3h11l0.1-8.3l-9.8-0.3c-1.3-0.1-2.6-0.3-4.1-0.7
			c-1.4-0.5-2.8-1.1-4-2.1c-1.3-1-2.3-2.4-3-4.2c-0.8-1.9-1.2-4.4-1.2-7.5v-39.3H569.3z"/>
		<path id="XMLID_1046_" class="st4" d="M899.2,253.2v-8.6H876v-19.8h-11l-0.2,19.8l-13,0.1v8.5h12.8l-0.5,39.3
			c-0.1,5.6,0.7,10.1,2.3,13.4c1.6,3.3,4.1,5.8,7.6,7.3c3.4,1.5,7.7,2.3,13,2.3h11v-8.3l-9.8-0.3c-1.4-0.1-2.7-0.3-4.1-0.7
			c-1.4-0.5-2.7-1.1-4-2.1c-1.2-1-2.3-2.4-3-4.2c-0.7-1.9-1.1-4.4-1.1-7.5v-39.3H899.2z"/>
		<path id="XMLID_1041_" class="st4" d="M594.8,242.8c-1.3,0.5-3.8,0.9-5.2,1.4c0,1.4,0.2,7,1.7,7c7.5-0.2,15-0.4,22.5-0.6
			c1.9,0.1,4.4,0.4,7.4,0.9c2.5,0.5,3.7,0.7,5.3,1.4c1.5,0.7,4.4,1.8,6.1,4.9c1.2,2.1,1.8,4.6,1.8,7.5v4.6c0,2.3-2,4.1-4.5,4.1
			h-22.8c-8.5,0-14.7,1.7-18.9,5.2c-4.2,3.4-6.3,8-6.3,13.6v5c0,5.7,1.9,10.1,5.7,13.2c3.8,3.1,8.7,4.6,14.6,4.6
			c3.5,0,7.1-0.4,10.8-1.2c3.6-0.8,7-1.9,10.2-2.9c6.4-2,7.1-2.2,11.1-3.2v6.6l8.5-0.1c1.8,0,3.3-1.4,3.3-3.1v-47.1
			c0-5.2-1-9.4-3.1-12.7c-2.7-4.2-6.7-5.8-9.6-7.1c-1.6-0.7-5.3-2.2-16.4-2.8c-4.1-0.2-9.6-0.4-16.1,0L594.8,242.8z M634.4,301.6
			c0,0-0.8,0.2-2.1,0.7c-1.3,0.5-2.9,1-5,1.6c-2,0.6-4.3,1.2-6.7,1.8c-2.4,0.6-4.8,1.1-7.1,1.5c-2.3,0.5-4.4,0.6-6.2,0.5
			c-2.1-0.1-4.2-0.5-6.3-1.2c-2-0.7-3.7-1.9-5.1-3.7c-1.4-1.7-2-4-2-6.8v-3.2c0-3.6,1.2-6.6,3.7-8.9c2.5-2.3,6.6-3.5,12.3-3.7
			l20.1,0.1c2.5,0,4.5,1.8,4.5,4.1V301.6z"/>
		<path id="XMLID_1037_" class="st4" d="M731.2,260.9c-1.5-4.7-3.6-8.4-6.6-11c-2.9-2.6-6.5-4.5-10.9-5.5c-4.4-1.1-9.5-1.6-15.3-1.6
			c-5.8,0-10.9,0.5-15.2,1.5c-4.4,1.1-8,2.9-10.9,5.5c-2.9,2.6-5.1,6.3-6.5,11c-1.4,4.7-2.1,10.9-2.1,18.3c0,7.3,0.7,13.4,2.1,18.1
			c1.4,4.7,3.6,8.4,6.5,11.1c2.9,2.7,6.5,4.5,10.9,5.6c4.4,1.1,9.5,1.6,15.2,1.6c5.8,0,11-0.5,15.4-1.6c4.4-1.1,8-2.9,10.9-5.5
			c2.9-2.6,5-6.3,6.5-11c1.5-4.7,2.2-10.8,2.2-18.3S732.7,265.6,731.2,260.9z M719.9,293.8c-1,3.7-2.5,6.5-4.4,8.4
			c-1.9,1.9-4.3,3.1-7.2,3.7c-2.8,0.6-6.1,0.9-9.9,0.9c-3.8,0-7.1-0.3-9.9-0.9c-2.8-0.6-5.2-1.9-7.1-3.7c-1.9-1.9-3.3-4.6-4.4-8.4
			c-1-3.7-1.5-8.6-1.5-14.7c0-6.2,0.5-11.1,1.5-14.8c1-3.6,2.5-6.3,4.4-8.2c1.9-1.9,4.3-3.1,7.1-3.7c2.8-0.6,6.1-1,9.9-1
			c3.7,0,7.1,0.3,9.9,1c2.9,0.6,5.3,1.9,7.2,3.7c1.9,1.9,3.3,4.6,4.4,8.2c1,3.7,1.5,8.6,1.5,14.8
			C721.3,285.2,720.8,290.1,719.9,293.8z"/>
		<path id="XMLID_1034_" class="st4" d="M757.4,244.5h-0.9c-3,0-5.5,2.3-5.5,5.1v60.8c0,2.8,2.5,5.1,5.5,5.1h0.9
			c3.1,0,5.5-2.3,5.5-5.1v-60.8C762.9,246.8,760.5,244.5,757.4,244.5z M763,217.8c-0.3-0.4-0.9-0.6-1.7-0.6h-8.4
			c-1.6,0-2.4,0.7-2.4,2.1v10.4c0,1.4,0.8,2.1,2.4,2.1h2.8c4.4,0,7.9-3.2,7.9-7.2v-5.3C763.5,218.7,763.3,218.2,763,217.8z"/>
		<path id="XMLID_1032_" class="st4" d="M836.1,280.3c-4-3.1-9.6-4.5-17-4.5h-11.4c-3.1,0-5.9-0.2-8.2-0.7s-4.2-1.4-5.5-2.7
			c-1.4-1.4-2-3.4-2-6.2v-2.9c0-4.4,1.4-7.3,4.1-8.8c2.8-1.5,6.7-2.3,11.9-2.3h31l-0.1-8.4c-3.6,0.1-7.7,0-11.2,0
			c-6,0.1-11.9,0.1-17.7,0.1c-6.6,0-12,0.7-16.2,2.1c-4.2,1.4-7.2,3.5-9.2,6.4c-2,2.8-2.9,6.4-2.9,10.9v3.7c0,4.5,1,8.1,3,10.7
			c2,2.5,4.9,4.4,8.5,5.4c3.7,1.1,7.9,1.6,12.6,1.6H817c5.1,0,8.8,0.9,11.1,2.6c2.3,1.8,3.5,4.1,3.5,7.2v3.2c0,3-0.7,5.3-2,6.8
			c-1.4,1.5-3.3,2.5-5.7,2.9c-2.5,0.5-5.3,0.7-8.6,0.7h-33l-0.1,7.9c2.3-0.1,3.4,0,6.1,0.1c2.9,0,5.3,0,8.5-0.1
			c3.3,0,6.1,0.1,9.1,0.2c2.9,0.1,5.3,0.1,7.4,0.1c5.7,0,10.7-0.5,15-1.5c4.3-1,7.6-2.8,10.1-5.4c2.5-2.7,3.7-6.3,3.7-11.1v-4.9
			C842.2,287.6,840.2,283.3,836.1,280.3z"/>
	</g>
	<path id="XMLID_1030_" class="st4" d="M595.1,242.7c-3.2,0.4-7.9,1.5-9.5,4.7c-1.1,2.2-1.6,4.6-1.7,7c-0.2,2.1-0.2,4,0.2,5.8
		c0.5,1.9,1.9,1.7,3.9,1.7c2.3,0.1,2.8,0.4,3-1.2c0.2-1.6-0.5-6.6,0.8-7.6c2.3-1.7,7.6-2.6,9.2-2.5"/>
	<g id="XMLID_1027_">
		<path id="XMLID_1028_" class="st4" d="M382.5,277.4c-6.4-0.1-9.5-4.7-12.8-9.2c-3-3.9-5.9-7.8-8.9-11.7
			c-4.4-5.9-10.9-12.3-15.4-18.1l0,0l0.2,72c-0.4,3.5,1.2,6.5-2.4,6.5h-9.1v-97.4l10.3,0.2c3.5,0,5.8,3.8,8.4,7.5
			c0.2,0.3,0.4,0.6,0.7,0.9c9.6,12.6,19.4,25.2,29,37.8"/>
	</g>
	<g id="XMLID_1024_">
		<path id="XMLID_1025_" class="st4" d="M382.5,265.9c9.6-12.6,19.4-25.2,29-37.8c0.2-0.3,0.5-0.6,0.7-0.9c2.5-3.7,4.8-7.5,8.4-7.5
			l10.3-0.2V317h-9.1c-3.6,0-2.8-2.8-3.2-6.3l0.2-72l0,0c-4.4,5.9-10.2,12.1-14.6,18c-3,3.9-5.9,7.8-8.9,11.7
			c-3.4,4.5-6.5,9.1-12.8,9.2"/>
	</g>
</g>
</svg>
